<svg width="218" height="57" viewBox="0 0 218 57" fill="none" xmlns="http://www.w3.org/2000/svg">
<path d="M153.99 50.7702C153.99 50.7702 153.99 50.7435 153.99 50.7346C153.99 50.7079 153.964 50.6812 153.955 50.6544C153.937 50.6099 153.919 50.5743 153.893 50.5298C153.866 50.4941 153.839 50.4674 153.813 50.4318C153.786 50.4051 153.75 50.3695 153.715 50.3517C153.679 50.3249 153.635 50.3071 153.599 50.2893C153.573 50.2804 153.546 50.2537 153.519 50.2537C128.632 43.7527 103.398 43.7527 78.5201 50.2537C78.4934 50.2537 78.4667 50.2804 78.4401 50.2893C78.3956 50.3071 78.36 50.3249 78.3245 50.3517C78.2889 50.3784 78.2622 50.4051 78.2267 50.4318C78.2 50.4585 78.1644 50.4941 78.1466 50.5298C78.12 50.5654 78.1022 50.6099 78.0844 50.6544C78.0755 50.6812 78.0577 50.699 78.0488 50.7346C78.0488 50.7435 78.0488 50.7613 78.0488 50.7702C78.0488 50.8147 78.0488 50.8593 78.0488 50.9038C78.0488 50.9483 78.0488 50.9929 78.0488 51.0374C78.0488 51.0463 78.0488 51.0641 78.0488 51.073C78.0488 51.0997 78.0755 51.1264 78.0844 51.1532C78.1022 51.1977 78.12 51.2333 78.1466 51.2778C78.1733 51.3135 78.2 51.3402 78.2267 51.3758C78.2533 51.4025 78.28 51.4292 78.3156 51.4559C78.3511 51.4827 78.3956 51.5005 78.4401 51.5183C78.4667 51.5272 78.4845 51.545 78.5112 51.5539C90.9503 54.8044 103.478 56.4252 116.015 56.4252C128.552 56.4252 141.071 54.8044 153.519 51.5539C153.519 51.5539 153.528 51.5539 153.537 51.545C153.617 51.5183 153.688 51.4916 153.75 51.4381C153.75 51.4381 153.75 51.4381 153.759 51.4292C153.813 51.3847 153.866 51.3313 153.902 51.26C153.919 51.2333 153.919 51.2066 153.937 51.1888C153.955 51.1532 153.973 51.1175 153.982 51.0819C153.982 51.073 153.982 51.0552 153.982 51.0463C153.982 51.0018 153.982 50.9572 153.982 50.9127C153.982 50.8682 153.982 50.8237 153.982 50.7791L153.99 50.7702Z" fill="#404040"/>
<path d="M179.865 36.0761C179.865 36.0761 179.865 36.0582 179.856 36.0493C179.829 35.9781 179.785 35.9069 179.731 35.8445C179.616 35.7198 179.456 35.6397 179.278 35.6308C167.843 35.0697 156.356 34.6779 144.85 34.4463C144.005 34.4285 143.917 33.1996 144.761 33.0749C147.669 32.6296 150.567 32.1487 153.466 31.6411C153.484 31.6411 153.502 31.6233 153.51 31.6233C153.564 31.6144 153.608 31.5877 153.653 31.5699C153.679 31.5521 153.706 31.5432 153.733 31.5253C153.768 31.4986 153.804 31.463 153.839 31.4274C153.857 31.4007 153.884 31.3829 153.902 31.3561C153.928 31.3116 153.946 31.2671 153.964 31.2226C153.973 31.1958 153.991 31.1602 153.999 31.1335C153.999 31.1335 153.999 31.1246 153.999 31.1157C153.999 31.0801 153.999 31.0444 153.999 30.9999C153.999 30.9643 154.008 30.9287 153.999 30.8841C153.999 30.8841 153.999 30.8752 153.999 30.8663C153.991 30.8129 153.964 30.7773 153.946 30.7238C153.928 30.6882 153.919 30.6526 153.902 30.6259C153.875 30.5903 153.848 30.5635 153.813 30.5368C153.786 30.5101 153.759 30.4745 153.724 30.4478C153.688 30.43 153.653 30.4211 153.617 30.4032C153.573 30.3854 153.537 30.3587 153.484 30.3498C153.484 30.3498 153.475 30.3498 153.466 30.3498C106.066 22.0143 57.9987 22.0143 10.5985 30.3498C10.5985 30.3498 10.5896 30.3498 10.5807 30.3498C10.5362 30.3587 10.5007 30.3765 10.4562 30.3943C10.4206 30.4122 10.3762 30.4211 10.3406 30.4478C10.3051 30.4656 10.2873 30.5012 10.2606 30.5279C10.225 30.5635 10.1895 30.5903 10.1628 30.6259C10.145 30.6526 10.1361 30.6882 10.1183 30.7238C10.1006 30.7684 10.0739 30.8129 10.065 30.8663C10.065 30.8663 10.065 30.8752 10.065 30.8841C10.065 30.9198 10.065 30.9554 10.065 30.9999C10.065 31.0355 10.0561 31.0712 10.065 31.1157C10.065 31.1157 10.065 31.1246 10.065 31.1335C10.0739 31.1869 10.1006 31.2226 10.1183 31.2671C10.1361 31.3027 10.145 31.3383 10.1628 31.365C10.1806 31.4007 10.2161 31.4185 10.2428 31.4452C10.2784 31.4808 10.3051 31.5164 10.3406 31.5431C10.3673 31.561 10.4029 31.5699 10.4295 31.5788C10.474 31.6055 10.5273 31.6233 10.5807 31.6411C10.5807 31.6411 10.5896 31.6411 10.5985 31.6411C34.303 35.8089 58.1676 37.8928 82.0322 37.8928C83.0369 37.8928 84.0328 37.8839 85.0375 37.875C96.7386 38.2134 108.466 38.3826 120.203 38.3826C139.942 38.3826 159.681 37.9017 179.278 36.9488C179.313 36.9488 179.34 36.931 179.367 36.9221C179.42 36.9132 179.464 36.9043 179.509 36.8865C179.545 36.8686 179.571 36.8508 179.607 36.8241C179.642 36.7974 179.687 36.7796 179.713 36.744C179.74 36.7173 179.758 36.6816 179.785 36.646C179.811 36.6104 179.838 36.5748 179.856 36.5302C179.873 36.4946 179.873 36.4501 179.882 36.4145C179.882 36.3788 179.909 36.3521 179.909 36.3165C179.909 36.3076 179.909 36.2987 179.909 36.2809C179.909 36.2631 179.909 36.2631 179.909 36.2453C179.909 36.1829 179.891 36.1206 179.873 36.0672L179.865 36.0761Z" fill="#404040"/>
<path d="M72.2517 50.539C72.225 50.4767 72.1806 50.4232 72.1361 50.3698C72.1094 50.3342 72.0917 50.2807 72.0561 50.2451C72.0472 50.2362 72.0205 50.2273 72.0116 50.2184C71.9939 50.2095 71.9939 50.1917 71.9761 50.1828C69.5309 48.2503 66.8457 48.2503 64.4006 50.1828C64.3828 50.1917 64.3828 50.2095 64.365 50.2184C64.3472 50.2273 64.3294 50.2362 64.3206 50.2451C64.285 50.2807 64.2672 50.3253 64.2405 50.3698C64.1961 50.4232 64.1516 50.4767 64.1249 50.539C64.0983 50.6013 64.0894 50.6548 64.0716 50.7171C64.0538 50.7794 64.0449 50.8329 64.0449 50.8952C64.0449 50.9576 64.0627 51.0199 64.0716 51.0733C64.0805 51.1357 64.0983 51.1891 64.1249 51.2514C64.1516 51.3138 64.1961 51.3672 64.2405 51.4206C64.2672 51.4563 64.285 51.5097 64.3206 51.5453C64.3294 51.5542 64.3561 51.5631 64.365 51.572C64.3828 51.5809 64.3828 51.5987 64.4006 51.6077C65.6187 52.5784 66.908 53.0593 68.1883 53.0593C69.4687 53.0593 70.7579 52.5784 71.9761 51.6077C71.9939 51.5987 71.9939 51.5809 72.0116 51.5631C72.0205 51.5542 72.0472 51.5453 72.0561 51.5364C72.0917 51.5008 72.1094 51.4563 72.1361 51.4117C72.1806 51.3583 72.225 51.3049 72.2517 51.2425C72.2784 51.1802 72.2873 51.1268 72.3051 51.0644C72.3228 51.0021 72.3317 50.9486 72.3317 50.8863C72.3317 50.824 72.314 50.7616 72.3051 50.7082C72.2962 50.6459 72.2784 50.5924 72.2517 50.5301V50.539Z" fill="#404040"/>
<path d="M161.851 28.1679C161.851 28.1679 161.895 28.257 161.922 28.2926C161.931 28.3015 161.948 28.3104 161.966 28.3193C161.975 28.3282 161.984 28.346 161.993 28.3638C163.086 29.3524 164.225 29.8422 165.372 29.8422C166.519 29.8422 167.657 29.3524 168.75 28.3638C168.768 28.3549 168.768 28.3371 168.786 28.3193C168.795 28.3104 168.813 28.3015 168.821 28.2926C168.857 28.257 168.866 28.2124 168.893 28.1679C168.928 28.1145 168.973 28.0611 168.99 27.9987C169.017 27.9364 169.026 27.8829 169.035 27.8206C169.044 27.7583 169.062 27.6959 169.062 27.6336C169.062 27.5713 169.044 27.5089 169.035 27.4466C169.026 27.3842 169.017 27.3219 168.99 27.2685C168.964 27.2061 168.928 27.1527 168.893 27.0993C168.866 27.0547 168.848 27.0102 168.821 26.9746C168.813 26.9657 168.795 26.9568 168.777 26.9479C168.768 26.939 168.759 26.9211 168.75 26.9033C166.572 24.9352 164.171 24.9352 161.993 26.9033C161.984 26.9122 161.975 26.9301 161.966 26.9479C161.957 26.9568 161.939 26.9657 161.922 26.9746C161.886 27.0102 161.877 27.0547 161.851 27.0993C161.815 27.1527 161.771 27.2061 161.753 27.2685C161.726 27.3308 161.717 27.3842 161.708 27.4466C161.699 27.5089 161.682 27.5713 161.682 27.6336C161.682 27.6959 161.699 27.7583 161.708 27.8206C161.717 27.8829 161.726 27.9453 161.753 27.9987C161.779 28.0611 161.815 28.1145 161.851 28.1679Z" fill="#404040"/>
<path d="M210.265 14.7295C210.265 14.7295 210.247 14.6761 210.238 14.6493C210.238 14.6137 210.22 14.5692 210.202 14.5336C210.185 14.489 210.158 14.4534 210.14 14.4178C210.122 14.3822 210.096 14.3555 210.078 14.3287C210.042 14.2931 210.007 14.2664 209.971 14.2486C209.944 14.2308 209.909 14.2041 209.882 14.1863C209.838 14.1685 209.793 14.1595 209.74 14.1506C209.713 14.1506 209.687 14.1328 209.66 14.1239C186.08 12.2181 162.331 11.2563 138.591 11.2563C114.842 11.2563 91.1017 12.2181 67.5216 14.1239C67.4949 14.1239 67.4772 14.1417 67.4505 14.1417C67.406 14.1506 67.3616 14.1595 67.3171 14.1774C67.2815 14.1952 67.246 14.213 67.2104 14.2397C67.1748 14.2664 67.1482 14.2842 67.1126 14.3198C67.0859 14.3466 67.0593 14.3822 67.0326 14.4178C67.0059 14.4534 66.9881 14.489 66.9703 14.5247C66.9526 14.5692 66.9437 14.6048 66.9348 14.6493C66.9348 14.6761 66.917 14.6939 66.917 14.7206C66.917 14.7384 66.917 14.7562 66.917 14.774C66.917 14.7918 66.917 14.8096 66.917 14.8275C66.917 14.8542 66.9348 14.8809 66.9437 14.9076C66.9437 14.9432 66.9614 14.9878 66.9792 15.0234C66.997 15.0679 67.0237 15.1035 67.0415 15.1392C67.0593 15.1748 67.0859 15.2015 67.1037 15.2282C67.1393 15.2638 67.1748 15.2905 67.2104 15.3084C67.2371 15.3262 67.2726 15.3529 67.2993 15.3707C67.3438 15.3885 67.3882 15.3974 67.4416 15.4063C67.4683 15.4063 67.4949 15.4241 67.5216 15.433C91.1017 17.3388 114.851 18.3006 138.591 18.3006C162.34 18.3006 186.08 17.3388 209.66 15.433C209.687 15.433 209.704 15.4152 209.731 15.4152C209.776 15.4063 209.82 15.3974 209.864 15.3796C209.9 15.3618 209.936 15.344 209.971 15.3173C210.007 15.2905 210.033 15.2727 210.069 15.2371C210.096 15.2104 210.122 15.1748 210.149 15.1392C210.176 15.1035 210.193 15.0679 210.211 15.0323C210.229 14.9878 210.238 14.9521 210.247 14.9076C210.247 14.8809 210.265 14.8631 210.265 14.8364C210.265 14.8186 210.265 14.8007 210.265 14.7829C210.265 14.7651 210.265 14.7473 210.265 14.7295Z" fill="#404040"/>
<path d="M218 3.49096C218 3.49096 217.982 3.42862 217.973 3.393C217.973 3.34847 217.956 3.31285 217.947 3.27723C217.929 3.2327 217.902 3.19708 217.876 3.16146C217.849 3.12583 217.831 3.09912 217.804 3.0635C217.778 3.03678 217.751 3.01897 217.715 3.00116C217.671 2.97444 217.635 2.94772 217.591 2.92101C217.564 2.9121 217.529 2.9032 217.493 2.89429C217.449 2.88539 217.413 2.86757 217.369 2.86757C181.421 0.961795 145.215 0 109 0C72.7941 0 36.5793 0.961795 0.6224 2.86757C0.586834 2.86757 0.56016 2.88539 0.533486 2.89429C0.489029 2.9032 0.43568 2.9121 0.391223 2.92991C0.355657 2.94772 0.328983 2.96554 0.293417 2.99225C0.257851 3.01897 0.213394 3.03678 0.18672 3.0724C0.160046 3.09912 0.142263 3.13474 0.12448 3.16146C0.0978057 3.19708 0.0711314 3.2327 0.0533486 3.27723C0.0355657 3.31285 0.0355657 3.35738 0.0266743 3.393C0.0266743 3.42862 0 3.45534 0 3.49096C0 3.49987 0 3.51768 0 3.52658C0 3.53549 0 3.5533 0 3.5622C0 3.59783 0.0177829 3.62454 0.0266743 3.66017C0.0266743 3.70469 0.0444571 3.74031 0.0533486 3.77594C0.0711314 3.82046 0.0978057 3.85609 0.12448 3.89171C0.151154 3.92733 0.168937 3.95405 0.195611 3.98967C0.222286 4.01639 0.24896 4.0342 0.284526 4.05201C0.328983 4.07872 0.364549 4.10544 0.409006 4.13216C0.43568 4.14106 0.471246 4.14997 0.506811 4.15887C0.551268 4.16778 0.586834 4.18559 0.631291 4.18559C36.5882 6.09137 72.803 7.05317 109.009 7.05317C145.224 7.05317 181.43 6.09137 217.387 4.18559C217.422 4.18559 217.449 4.16778 217.475 4.15887C217.52 4.14997 217.573 4.14106 217.618 4.12325C217.653 4.10544 217.68 4.08763 217.715 4.06091C217.751 4.0342 217.795 4.01639 217.822 3.98076C217.849 3.95405 217.867 3.91842 217.884 3.89171C217.911 3.85609 217.938 3.82046 217.956 3.77594C217.973 3.74031 217.973 3.69579 217.982 3.66017C217.982 3.62454 218.009 3.59783 218.009 3.5622C218.009 3.5533 218.009 3.53549 218.009 3.52658C218.009 3.51768 218.009 3.49987 218.009 3.49096H218Z" fill="#404040"/>
</svg>
