<?xml version="1.0" encoding="UTF-8"?>
<svg id="_圖層_1" xmlns="http://www.w3.org/2000/svg" version="1.1" viewBox="0 0 194 40.9">
  <!-- Generator: Adobe Illustrator 30.1.0, SVG Export Plug-In . SVG Version: 2.1.1 Build 136)  -->
  <path d="M10.6,15.9c.1.3.6,1.4,1.7,1.4s1.6-.7,1.6-1.7V3.1c0-1-.7-1.8-1.6-1.8s-1.6,1.1-1.8,1.5h0q0,0-.2,0H3.8v-.2c-.2-.4-.7-1.5-1.9-1.5S.3,2,.3,3v35.9c0,1,.7,1.7,1.6,1.7s1.6-.7,1.6-1.7v-22.8c0-.2,0-.6.5-.6h6.3c.1,0,.2,0,.3.4h0ZM10.8,5.8v1.7c0,.5-.3.5-.4.5H3.8s-.4,0-.4-.5v-1.7c0-.5.2-.5.4-.5h6.6c.1,0,.4,0,.4.5ZM3.5,12.8v-1.9c0-.2,0-.5.4-.5h6.6c.3,0,.4.3.4.5v1.9c0,.2,0,.5-.4.5H3.8c-.3,0-.4-.3-.4-.5h.1Z"/>
  <path d="M24.7,28.6c.3,0,.5.2.9.2.8,0,1.4-.6,1.4-1.5s-.6-1.5-1.4-1.5-.6,0-.8.2-.5.2-.8.2h-2.5c-.5,0-.5-.5-.5-.6v-3.7c0-.2,0-.6.5-.6h1.1c.3,0,.5,0,.8.2s.5.2.8.2c.8,0,1.4-.6,1.4-1.5s-.6-1.5-1.4-1.5-.5,0-.8.2c-.3,0-.5.2-.8.2H7c-.6,0-1.1.5-1.1,1.2s.5,1.2,1.1,1.2h3.9c-.3.3-.5.8-.5,1.3v3c0,.2,0,.7-.5.7h-4.4c-.6,0-1.1.5-1.1,1.2s.5,1.2,1.1,1.2h4.4c.1,0,.2,0,.3.1,0,0,.1.3.1.5-.5,4.4-2.1,6.7-4.3,9-.3.3-.4.8,0,1.2.2.2.4.4.7.4h.4c3.8-1.8,6-5.3,6.6-10.3,0-.3.2-.8.6-.8h3.1c.5,0,.5.5.5.6v8.4c0,1,.7,1.7,1.6,1.7s1.6-.7,1.6-1.7v-8.4c0-.2,0-.6.5-.6h2.6c.3,0,.5,0,.8.2h0l-.2-.6ZM13.1,21.2h4.1c.5,0,.5.5.5.6v3.6c0,.2,0,.6-.5.6h-3.1c-.5,0-.5-.5-.5-.6v-3c0-.5-.2-1-.5-1.3h0Z"/>
  <path d="M29.1,1.4c-1.2,0-1.7,1.1-1.9,1.5h0q0,0-.2,0h-6.4c-.2-.6-.7-1.6-1.8-1.6s-1.6.8-1.6,1.8v12.5c0,1,.7,1.7,1.6,1.7s1.5-.8,1.7-1.4q.2-.4.3-.4h6.3c.5,0,.5.5.5.6v17.4c0,3.2-.9,4.3-3.8,4.9h0c-.4,0-.7.5-.7.9s.3.8.8.9c.5,0,1,0,1.5,0,1.5,0,2.7-.4,3.6-1.2,1.3-1.1,1.9-2.8,1.9-5.1V3.1c0-1-.7-1.8-1.6-1.8h-.2ZM27.4,5.8v1.7c0,.5-.2.5-.4.5h-6.5c-.1,0-.4,0-.4-.5v-1.7c0-.5.2-.5.4-.5h6.5c.1,0,.4,0,.4.5ZM20.2,12.8v-1.9c0-.2,0-.5.4-.5h6.5c.3,0,.4.3.4.5v1.9c0,.2,0,.5-.4.5h-6.5c-.3,0-.4-.3-.4-.5Z"/>
  <path d="M79.1,9c-.4-.2-.8-.1-1.1.2-.3.4-.3.9,0,1.2,1.6,1.9,2.6,3.5,3.5,5.1h-.4c-3.7.2-7.4.5-10,.8h0v-.2c2.5-4.2,4.6-9.2,5.9-13.6.2-.7,0-1.4-.4-1.9-.4-.4-1-.6-1.5-.4-.6.2-1,.6-1.1,1.2-1.6,5.7-4.8,12.3-8.1,16.7-.7,1-.4,2.1.3,2.6.3.2.6.3.9.3s.9-.2,1.2-.7c.2-.3.5-.6.7-1,.2-.3.7-.6,1-.6h.5c2.6-.3,6.6-.6,10.5-.8.4,0,.7-.2.9-.6v-.3c.4.8.8,1.7,1.2,2.6.5,1.1,1.4,1.4,2.1,1.1.8-.3,1.4-1.3,1.1-2.5-1.2-3.8-4-7.2-7.4-9.2h.2Z"/>
  <path d="M82.7,21.2c-1.1,0-1.6,1.1-1.8,1.5q-.2.4-.3.4h-9.5l-.2-.4c-.3-.6-.7-1.5-1.7-1.5s-1.6.7-1.6,1.8v16.1c0,1,.7,1.7,1.6,1.7s1.6-.7,1.7-1.8c0-.8.2-2.2.3-2.4h9.5s.2.5.4,2c0,1,.8,1.7,1.7,1.7s1.6-.7,1.6-1.7v-15.6c0-1-.7-1.8-1.6-1.8h0ZM70.8,33.6v-7.5c0-.2,0-.6.5-.6h9.2c.5,0,.5.5.5.6v7.5c0,.2,0,.7-.5.7h-9.2c-.5,0-.5-.5-.5-.7Z"/>
  <path d="M63.8,28.3c-.3-.3-.4-.7-.3-1.2,1.9-5.4,2.4-11.9,2.7-16.9,0-.8-.2-1.2-.5-1.5s-.7-.5-1.1-.5c-.8,0-1.4.5-1.7,1.4-.2.5-.3.6-.3.7h-2.5v-.4c.4-2.9.6-5.5.8-7.7,0-1.1-.7-1.8-1.5-1.8s-1.6.5-1.7,1.7c0,2.2-.3,4.8-.7,7.6,0,.4-.3.7-.7.7h-3.5c-.6,0-1.1.5-1.1,1.2s.5,1.2,1.1,1.2h3.5v.4c-1,5.2-2.3,9.7-3.7,12.6-.5,1.1,0,2.1.7,2.5.7.3,1.6.2,2.1-.9.2-.4.4-.9.7-1.4,0,.1,0,.2.2.3.8.6,1.8,1.4,2.7,2.2.3.3.4.8.2,1.2-1.7,3.6-4.3,6.7-7.7,9.5h0c-.4.3-.5.9-.2,1.3.2.3.5.4.8.4h.4c4-2.2,7-5.2,9.2-9.2,0-.2.2-.2.2-.2h.2c.9,1,1.6,1.9,2.3,2.7.6.9,1.6.9,2.2.5.8-.5,1.2-1.7.5-2.7-.8-1.2-1.9-2.4-3.2-3.5h0v-.2ZM59.5,13.4c0-.4.3-.7.7-.7h2.2c0,0,.2,0,.3.1,0,0,0,.3,0,.5-.4,5.1-1.1,9-2.1,12.3,0,.2-.2.3-.2.4h-.3c-.9-.5-2-1-3-1.4h-.5c1.1-3,2.1-6.8,2.9-11.1h0Z"/>
  <path d="M115.8,29.5c-.3-.3-.8-.3-1.1,0-.3.3-.4.8-.2,1.1h0c.8,1.4,1.6,3.7,2.2,6.3.2,1,.9,1.4,1.5,1.4s.2,0,.3,0c.8-.2,1.5-1.1,1.3-2.2-.5-2.6-1.9-4.9-3.9-6.5h-.1Z"/>
  <path d="M111.8,30.1c-.4.2-.6.6-.6,1,.4,2.3.6,4.3.5,6.4,0,1.3.7,2,1.6,2h0c.8,0,1.6-.6,1.7-1.8,0-2.8-1-5.6-2.2-7.3-.2-.4-.7-.5-1.1-.3h0Z"/>
  <path d="M109.6,30.3c-.4,0-.8.2-1,.6-.8,2.7-1.5,4.6-3.3,7.1h0c-.6.9-.3,2,.4,2.5.3.2.6.3.9.3s.8-.2,1.1-.5c2.2-2.2,2.8-6.7,2.7-9.2,0-.5-.3-.8-.8-.9h0Z"/>
  <path d="M138.1,10.4c-.3,0-.6,0-.8.2-.3,0-.5.2-.8.2h-4c-.5,0-.5-.4-.5-.6V2c0-1-.7-1.7-1.6-1.7s-1.6.7-1.6,1.7v19.4c0,.5-.2.5-.4.5h-1.7v-.2c-.3-.4-.7-1.5-1.9-1.5s-1.6.7-1.6,1.8v3.1h0c-.2-.6-.6-.8-1.1-.7-2.1.6-3.9,1-5.6,1.3h-.2v-2.3c0-.5.3-.5.4-.5h3.2c.3,0,.5,0,.8.2.3,0,.5.2.8.2.8,0,1.4-.6,1.4-1.5s-.6-1.5-1.4-1.5-.6,0-.8.2c-.3,0-.5.2-.8.2h-3.1s-.4,0-.4-.5v-2c0-.5.3-.5.4-.5h2.6l.2.3c0,.3.6,1.3,1.6,1.3s1.5-.7,1.5-1.6V3.4c0-.9-.7-1.7-1.5-1.7s-1.3.5-1.7,1.4h0c0,0-9.1,0-9.1,0h0c-.4-.9-1-1.4-1.7-1.4s-1.5.7-1.5,1.6v14.1c0,.9.6,1.6,1.5,1.6s1.4-.5,1.7-1.4c0-.3.2-.4.3-.4h2.4s.4,0,.4.5v2c0,.5-.3.5-.4.5h-4.9c-.6,0-1.2.5-1.2,1.2s.5,1.2,1.2,1.2h4.9c.4,0,.4.3.4.6v2.2c0,.1,0,.6-.5.7-1.6.2-3.4.3-5.8.5h0c-1.1,0-1.6.9-1.5,1.7,0,.9.7,1.6,1.6,1.6,6.6-.2,11.3-1.3,15.9-3.8.2-.1.4-.4.5-.6v7.7c-.6-1.9-2-3.7-3.9-4.8-.4-.2-.9-.1-1.2.2-.3.3-.3.8,0,1.2.9,1.4,1.5,3,2.2,5.2.3,1.1,1.2,1.5,2,1.3.4,0,.7-.3.9-.7v3.3c0,1,.7,1.7,1.6,1.7s1.6-.7,1.7-1.8c0-1.3.2-2.1.3-2.2h7.4c.1,0,.2.6.4,2.1.1,1,.8,1.7,1.7,1.7s1.6-.7,1.6-1.7v-16.7c0-1-.7-1.8-1.6-1.8s-1.6,1.1-1.8,1.5h0q0,.1-.2.1h-1.9c-.1,0-.4,0-.4-.5v-7.7c0-.2,0-.6.5-.6h4c.3,0,.5,0,.8.2.3,0,.5.2.8.2.8,0,1.4-.6,1.4-1.5s-.6-1.5-1.4-1.5h-.5ZM113.1,9.9c-.6-1.5-1.5-3-2.4-3.9-.2-.2-.4-.2-.6-.2h0s.2-.2.3-.2h2.4c0,0,.4,0,.4.5v3.8h-.1ZM109.9,9c.4,1.4.7,2.8.9,4.4,0,1.1.9,1.6,1.6,1.5.2,0,.4-.1.7-.2,0,.2-.2.4-.4.4h-2.4c-.4,0-.4-.3-.4-.5v-5.5h0ZM117.2,14.8c1.1-1.1,1.8-2.6,2.3-4v3.7c0,.4,0,.5-.4.5h-2.2c0,0,.2-.1.3-.2h0ZM119.5,6.3c-.2-.2-.5-.3-.8-.3-.7,0-1.5.4-1.7,1.5-.2,1.8-.5,3.3-.9,4.8v-6.2c0-.4,0-.5.4-.5h2.5c0,0,.4,0,.4.5v.2h0ZM134.6,33.5c0,.2,0,.7-.5.7h-7.2c-.5,0-.5-.5-.5-.7v-8.7c0-.2,0-.6.5-.6h7.2c.5,0,.5.5.5.6v8.7Z"/>
  <path d="M192.4,21.5c-5.4-1.3-9.9-3.2-13.4-5.9h.1c1.6-.5,3.2-1.2,4.6-2.2.3-.2.7-.2,1,0,1.3,1.3,2.5,2.6,3.6,3.9.7.9,1.7.8,2.2.3.8-.6,1-1.8.2-2.9-1-1.2-2.2-2.4-3.7-3.7,0,0-.2-.2-.2-.3s0-.2.2-.4c1.6-1.8,2.8-3.8,3.5-6,.2-.6.1-1.2-.2-1.7-.3-.4-.8-.7-1.3-.7s-1.2.5-1.6.9q-.2.2-.5.2h-8.1c-.6,0-1.1.5-1.1,1.2s.5,1.2,1.1,1.2h7.5v.2c-.5.9-1.1,1.8-1.8,2.7-.2.2-.5.4-.9.2-1.4-.8-2.8-1.6-4.2-2.3-.4-.2-.8,0-1.1.4-.2.4-.2,1,.2,1.2,1,.8,2.1,1.7,3.2,2.7.1.1.2.2.2.3s-.1.2-.2.3c-.9.8-2,1.6-3.4,2.4-.3.2-.5.6-.4.9,0,0-.2-.2-.3-.2-.1-.1-.3-.2-.4-.2.5-.9.1-1.9-.5-2.3-.6-.4-1.5-.5-2.2.4-3.6,5.1-8.9,8.8-15.9,11-.5.1-.7.6-.6,1.1.1.5.5.8,1,.8,2.4-.4,4.7-1,6.9-1.9h.1v12.2c0,.2,0,.7-.5.7-1,0-2,.2-3.2.3h0c-1.1,0-1.6,1-1.5,1.8,0,.9.7,1.6,1.6,1.6h0c4.6-.2,11.1-1.3,15.5-5,.4-.3.5-.8.2-1.2,3.9,1.7,8,4.1,11.3,6.6.4.3.8.4,1.1.4.5,0,1-.3,1.3-.7.6-.8.6-2.1-.5-3-1.5-1.1-3.1-2.1-4.9-3,1.8-.6,3.4-1.7,4.1-3.1.6-1.1.2-2.2-.6-2.6-.6-.4-1.6-.3-2.2.7-.8,1.3-1.5,2.4-2.7,3.6h0c-.2.2-.3.4-.3.7-2.7-1.2-5.6-2-8.5-2.5h6q.2,0,.3.1c.3.5.8,1.2,1.8,1.2s1.6-.7,1.6-1.6v-7.5h.2c1.8.8,3.7,1.5,5.7,1.9.9.2,1.7-.4,1.9-1.3s-.2-2-1.4-2.3h0v.4ZM175.1,31.6c-.1.5.1,1,.6,1.2s1,.4,1.5.6h-.2c-1.9,1-4.4,1.7-7.3,2.3h-.3c-.1,0-.1-.2-.1-.4v-3.6c0-.2,0-.6.5-.6h5.9c-.3,0-.5.3-.6.6h0ZM171,20.7c.8-.5,1.6-1.1,2.2-1.7.2-.2.4-.2.5,0,.5.5.9,1,1.3,1.7h-4.1.1ZM169.3,24.3v-1c0-.2,0-.3.2-.3h13.1s.2,0,.2.3v1c0,.2,0,.3-.2.3h-13.1c-.1,0-.2-.1-.2-.3ZM181.6,20.7h-3.9c.4-.5.4-1.3,0-2-.6-.9-1.6-1.4-2.3-1.7h0c.3-.4.7-.8,1-1.2h0c1.3,1.9,3.1,3.5,5.2,4.9h0ZM169.3,28.2v-1c0-.3.2-.3.2-.3h13s.2,0,.2.3v1c0,.3-.2.3-.2.3h-13s-.2,0-.2-.3Z"/>
  <path d="M159.3,21.1h.1c7-1.1,14-6.5,16.6-12.9.2-.6.2-1.2-.1-1.7-.3-.4-.8-.7-1.2-.7s-1.1.4-1.5.9c0,0-.1,0-.2,0h-1.4s-.2,0-.2-.3v-.6c0-.3.1-.3.2-.3h2.6c.3,0,.5,0,.8.2.3,0,.5.2.8.2.8,0,1.4-.6,1.4-1.5s-.6-1.5-1.4-1.5-.6,0-.8.2c-.3,0-.5.2-.8.2h-2.2c-.1,0-.3,0-.4-1.5-.1-1.2-.8-1.9-1.7-1.9s-1.5.7-1.5,1.7v4.7c0,.4-.2.4-.3.4h-1c0-.2.2-.4.2-.7.3-1.1-.2-1.9-.9-2.2-.8-.3-1.7,0-2.1.9-1,2.5-2.2,5.6-5,8-.4.3-.5.8-.2,1.2.2.4.7.5,1.1.3,1.4-.6,2.6-1.4,3.7-2.5h.2c.1-.1.2-.1.2,0,.8.8,1.4,1.5,1.5,1.8.5.6,1.2.8,1.7.5-2.5,2.2-5.4,4-8.5,5.1-.5.2-.7.7-.6,1.2.1.4.4.7.8.7h.1ZM168.2,11.4c-.5-.6-1.3-1.2-2.4-1.6h-.2c.2-.4.4-.7.5-1,.2.3.5.5.9.5h4.9c-.9,1.6-2.1,3-3.4,4.2.3-.6.3-1.3-.3-2h0Z"/>
</svg>