<svg width="194" height="44" viewBox="0 0 194 44" fill="none" xmlns="http://www.w3.org/2000/svg">
<g clip-path="url(#clip0_868_8)">
<path d="M24.58 28.5299C24.85 28.6199 25.12 28.7099 25.43 28.7099C26.23 28.7099 26.81 28.0699 26.81 27.1899C26.81 26.3099 26.23 25.6699 25.43 25.6699C25.12 25.6699 24.85 25.7599 24.59 25.8499C24.33 25.9399 24.08 26.0199 23.79 26.0199H21.27C20.81 26.0199 20.76 25.5699 20.76 25.3699V21.6999C20.76 21.4799 20.82 21.0999 21.23 21.0999H22.34C22.61 21.0999 22.84 21.1799 23.09 21.2699C23.34 21.3599 23.61 21.4499 23.9 21.4499C24.7 21.4499 25.28 20.8099 25.28 19.9299C25.28 19.0499 24.7 18.4099 23.9 18.4099C23.61 18.4099 23.35 18.4999 23.1 18.5799C22.84 18.6699 22.59 18.7499 22.3 18.7499H6.88997C6.26997 18.7499 5.77997 19.2599 5.77997 19.9199C5.77997 20.5799 6.26997 21.0899 6.88997 21.0899H10.82C10.5 21.3899 10.31 21.8399 10.31 22.3699V25.3499C10.31 25.5499 10.24 26.0099 9.77997 26.0099H5.32997C4.70997 26.0099 4.21997 26.5199 4.21997 27.1799C4.21997 27.8399 4.70997 28.3499 5.32997 28.3499H9.71997C9.85997 28.3499 9.95997 28.3899 10.02 28.4499C10.1 28.5399 10.14 28.7199 10.12 28.9199C9.58997 33.2999 8.06997 35.5899 5.78997 37.8799C5.44997 38.2099 5.39997 38.7299 5.65997 39.1099C5.82997 39.3499 6.09997 39.4899 6.36997 39.4899C6.49997 39.4899 6.62997 39.4599 6.75997 39.3999C10.51 37.5899 12.72 34.1099 13.32 29.0999C13.37 28.8199 13.51 28.3499 13.96 28.3499H17.06C17.52 28.3499 17.57 28.7999 17.57 28.9999V37.3699C17.57 38.3499 18.25 39.0599 19.19 39.0599C20.13 39.0599 20.77 38.3499 20.77 37.3699V28.9999C20.77 28.8099 20.82 28.3499 21.28 28.3499H23.84C24.1 28.3499 24.34 28.4299 24.59 28.5199L24.58 28.5299ZM12.97 21.1099H17.06C17.52 21.1099 17.57 21.5599 17.57 21.7599V25.3899C17.57 25.5799 17.52 26.0399 17.06 26.0399H14.01C13.55 26.0399 13.5 25.5899 13.5 25.3899V22.4399C13.5 21.8899 13.3 21.4299 12.97 21.1199V21.1099Z" fill="#242424"/>
<path d="M10.5 15.88C10.65 16.22 11.12 17.26 12.24 17.26C13.15 17.26 13.82 16.56 13.82 15.59V3.05004C13.82 2.05004 13.14 1.29004 12.24 1.29004C11.1 1.29004 10.62 2.35004 10.41 2.79004C10.36 2.90004 10.33 2.93004 10.33 2.93004C10.33 2.93004 10.28 2.95004 10.17 2.95004H3.82001C3.67001 2.95004 3.63001 2.93004 3.63001 2.93004C3.63001 2.93004 3.60001 2.89004 3.54001 2.78004C3.34001 2.37004 2.80001 1.29004 1.64001 1.29004C0.72001 1.29004 0.0100098 2.06004 0.0100098 3.05004V38.96C0.0100098 39.97 0.71001 40.7 1.66001 40.7C2.61001 40.7 3.31001 39.97 3.31001 38.96V16.16C3.31001 15.97 3.36001 15.51 3.82001 15.51H10.16C10.29 15.51 10.33 15.51 10.49 15.88H10.5ZM10.62 5.76004V7.47004C10.62 7.94004 10.36 7.94004 10.26 7.94004H3.67001C3.57001 7.94004 3.31001 7.94004 3.31001 7.47004V5.76004C3.31001 5.29004 3.56001 5.29004 3.67001 5.29004H10.27C10.38 5.29004 10.63 5.29004 10.63 5.76004H10.62ZM3.31001 12.68V10.76C3.31001 10.53 3.38001 10.27 3.69001 10.27H10.25C10.56 10.27 10.63 10.54 10.63 10.76V12.68C10.63 12.9 10.56 13.17 10.25 13.17H3.69001C3.38001 13.17 3.31001 12.9 3.31001 12.68Z" fill="#242424"/>
<path d="M28.9701 1.29004C27.8001 1.29004 27.2701 2.37004 27.0601 2.79004C27.0001 2.93004 26.9801 2.93004 26.9801 2.93004C26.9801 2.93004 26.9301 2.95004 26.7801 2.95004H20.5101C20.4001 2.95004 20.3601 2.95004 20.3601 2.94004C20.3601 2.94004 20.3201 2.90004 20.2701 2.80004C20.0601 2.35004 19.5701 1.29004 18.4401 1.29004C17.5401 1.29004 16.8601 2.05004 16.8601 3.05004V15.6C16.8601 16.57 17.5201 17.27 18.4401 17.27C19.4401 17.27 19.9101 16.48 20.1801 15.89C20.3401 15.52 20.3901 15.52 20.5101 15.52H26.7801C27.2401 15.52 27.2901 15.97 27.2901 16.17V33.55C27.2901 36.79 26.4401 37.9 23.4801 38.47C23.0601 38.56 22.7701 38.94 22.7901 39.4C22.8101 39.87 23.1201 40.25 23.5501 40.3C24.0601 40.38 24.5501 40.42 25.0201 40.42C26.4901 40.42 27.7301 40.01 28.6701 39.22C29.9401 38.14 30.6101 36.37 30.6101 34.11V3.05004C30.6101 2.06004 29.8901 1.29004 28.9701 1.29004ZM27.2901 5.76004V7.47004C27.2901 7.94004 27.0401 7.94004 26.9301 7.94004H20.4101C20.3101 7.94004 20.0501 7.94004 20.0501 7.47004V5.76004C20.0501 5.29004 20.3001 5.29004 20.4101 5.29004H26.9301C27.0401 5.29004 27.2901 5.29004 27.2901 5.76004ZM20.0601 12.68V10.76C20.0601 10.53 20.1201 10.27 20.4401 10.27H26.9201C27.2301 10.27 27.3001 10.54 27.3001 10.76V12.68C27.3001 12.9 27.2401 13.17 26.9201 13.17H20.4401C20.1301 13.17 20.0601 12.9 20.0601 12.68Z" fill="#242424"/>
<path d="M63.7099 28.2099C63.3799 27.9499 63.2699 27.4899 63.4199 26.9999C65.2999 21.5599 65.8399 15.1299 66.0899 10.1299C66.1199 9.36994 65.8399 8.90994 65.6099 8.65994C65.3199 8.35994 64.9299 8.18994 64.5199 8.18994C63.7699 8.18994 63.1399 8.70994 62.7899 9.61994C62.5899 10.1299 62.4999 10.2499 62.4699 10.2799C62.4699 10.2799 62.4399 10.2899 62.3499 10.2899H60.1999C60.1299 10.2899 60.0099 10.2899 59.9599 10.2199C59.8999 10.1499 59.8799 9.99994 59.9199 9.78994C60.3099 6.89994 60.5599 4.31994 60.6699 2.12994C60.7299 0.989938 59.9699 0.339938 59.1899 0.289938C58.3999 0.239938 57.5699 0.799938 57.4799 1.97994C57.3899 4.16994 57.1399 6.72994 56.7499 9.55994C56.6799 9.99994 56.4099 10.2799 56.0299 10.2799H52.5699C51.9499 10.2799 51.4599 10.7899 51.4599 11.4499C51.4599 12.1099 51.9499 12.6199 52.5699 12.6199H55.8499C55.9199 12.6199 56.0399 12.6299 56.0999 12.6999C56.1599 12.7699 56.1799 12.9299 56.1399 13.1199C55.1599 18.3299 53.8399 22.7899 52.4199 25.6699C51.8999 26.7299 52.3699 27.7599 53.1299 28.1299C53.7799 28.4499 54.7299 28.3199 55.2599 27.2499C55.4799 26.8099 55.6999 26.3299 55.9099 25.8299C55.9699 25.9399 56.0499 26.0299 56.1499 26.0999C56.9799 26.7499 57.8999 27.4899 58.8199 28.2699C59.1499 28.5599 59.2399 29.0199 59.0399 29.4399C57.2999 33.0799 54.7699 36.1699 51.2999 38.8899C51.2999 38.8899 51.2999 38.8899 51.2899 38.8899C50.9099 39.1999 50.8299 39.7599 51.0999 40.1899C51.2699 40.4699 51.5599 40.6299 51.8699 40.6299C52.0099 40.6299 52.1599 40.5999 52.2999 40.5299C56.2999 38.3399 59.3099 35.3399 61.4999 31.3499C61.6099 31.1499 61.6999 31.0999 61.7199 31.0999C61.7199 31.0799 61.7999 31.1199 61.9199 31.2399C62.7999 32.1799 63.5399 33.0499 64.1699 33.8799C64.8099 34.8099 65.7299 34.8199 66.3499 34.4099C67.1199 33.9099 67.5299 32.7599 66.8799 31.6799C66.1199 30.4799 65.0199 29.2799 63.6999 28.1999L63.7099 28.2099ZM59.3399 13.3099C59.4099 12.8899 59.6599 12.6299 60.0199 12.6299H62.2699C62.3899 12.6299 62.4899 12.6599 62.5399 12.7299C62.6199 12.8199 62.6599 12.9899 62.6399 13.1899C62.2299 18.3099 61.5699 22.2299 60.5599 25.5099C60.4899 25.7299 60.3899 25.8299 60.3299 25.8599C60.2699 25.8799 60.1599 25.8599 60.0399 25.7799C59.1199 25.2699 58.0899 24.8099 56.9899 24.4099C56.8899 24.3699 56.7799 24.3499 56.6799 24.3499C56.6099 24.3499 56.5399 24.3499 56.4699 24.3799C57.5699 21.3899 58.5699 17.5899 59.3399 13.3099Z" fill="#242424"/>
<path d="M78.98 8.97006C78.62 8.77006 78.17 8.86006 77.9 9.20006C77.6 9.56006 77.61 10.0701 77.92 10.4401C79.5 12.3901 80.55 13.9301 81.42 15.5401C81.3 15.5001 81.17 15.4901 81.04 15.5001C77.36 15.7001 73.59 16.0301 71.08 16.2701C71.05 16.2701 71.02 16.2701 70.99 16.2701C71.01 16.2201 71.04 16.1701 71.08 16.0901C73.54 11.8601 75.69 6.90006 76.97 2.49006C77.18 1.77006 77.05 1.09006 76.61 0.640062C76.21 0.230062 75.62 0.0600624 75.07 0.210062C74.51 0.360062 74.1 0.780062 73.95 1.37006C72.31 7.09006 69.15 13.6601 65.9 18.1001C65.17 19.0901 65.5 20.1701 66.18 20.6801C66.44 20.8701 66.76 20.9901 67.09 20.9901C67.52 20.9901 67.97 20.8001 68.32 20.3301C68.56 20.0101 68.8 19.6801 69.04 19.3201C69.27 18.9801 69.69 18.7201 70.06 18.6801L70.59 18.6301C73.2 18.4001 77.15 18.0501 81.09 17.8301C81.49 17.8001 81.82 17.5801 82 17.2101C82.04 17.1201 82.08 17.0201 82.1 16.9201C82.49 17.7301 82.86 18.5901 83.26 19.5501C83.73 20.6801 84.63 20.9401 85.32 20.6801C86.13 20.3901 86.75 19.3901 86.38 18.2101C85.14 14.4401 82.37 10.9801 78.96 8.96006L78.98 8.97006Z" fill="#242424"/>
<path d="M82.55 21.1299C81.42 21.1299 80.96 22.2299 80.8 22.5899C80.65 22.9499 80.57 22.9999 80.48 23.0099H71.01C71.01 23.0099 70.93 22.9499 70.78 22.5899C70.52 21.9599 70.05 21.1299 69.04 21.1299C68.11 21.1299 67.46 21.8499 67.46 22.8899V38.9799C67.46 39.9499 68.12 40.6499 69.04 40.6499C69.96 40.6499 70.64 39.9399 70.71 38.8899C70.77 38.1199 70.87 36.6999 71 36.5099C71 36.5099 71.05 36.4999 71.2 36.4999H80.38C80.45 36.4999 80.48 36.4999 80.48 36.4999C80.56 36.5899 80.71 36.9699 80.86 38.5299C81 39.5699 81.64 40.2099 82.55 40.2099C83.46 40.2099 84.13 39.4899 84.13 38.5399V22.8899C84.13 21.8499 83.48 21.1299 82.55 21.1299ZM70.66 33.5199V25.9999C70.66 25.8099 70.71 25.3499 71.17 25.3499H80.42C80.88 25.3499 80.93 25.7999 80.93 25.9999V33.5199C80.93 33.7099 80.88 34.1699 80.42 34.1699H71.17C70.71 34.1699 70.66 33.7199 70.66 33.5199Z" fill="#242424"/>
<path d="M128.5 19.2699C129.42 19.2699 130.12 18.5199 130.12 17.5299V4.11988C130.12 3.12988 129.44 2.37988 128.54 2.37988C127.64 2.37988 126.92 3.12988 126.92 4.11988V17.5399C126.92 18.5299 127.6 19.2799 128.5 19.2799V19.2699Z" fill="#242424"/>
<path d="M130.69 22.2299C131.22 22.3599 131.73 22.43 132.22 22.43C133.27 22.43 134.2 22.12 134.98 21.52C136.25 20.54 136.94 18.84 136.94 16.75V1.88995C136.94 0.929951 136.25 0.199951 135.32 0.199951C134.39 0.199951 133.74 0.929951 133.74 1.88995V15.79C133.74 19.23 132.77 20.02 130.73 20.4C130.33 20.46 130.03 20.81 130 21.24C129.97 21.7 130.25 22.1099 130.68 22.2299H130.69Z" fill="#242424"/>
<path d="M138.53 36.6699C135.15 35.8099 132.43 34.6599 130.17 33.0499C132.99 32.3299 134.98 30.9599 136.1 28.9699C136.67 27.9299 136.23 26.8399 135.47 26.3899C134.84 26.0199 133.89 26.0499 133.27 26.9999C131.96 29.0199 131.25 29.8999 129.37 31.4499C129.14 31.6299 129.02 31.8999 129.03 32.1799C127.19 30.6399 125.66 28.7399 124.3 26.3799C124.06 25.9599 123.58 25.7899 123.14 25.9699C122.7 26.1599 122.48 26.6399 122.62 27.1099C124.72 34.0699 130.54 39.1799 137.82 40.4299C137.91 40.4399 137.99 40.4499 138.08 40.4499C138.9 40.4499 139.6 39.8399 139.78 38.8999C139.96 37.9899 139.59 36.9399 138.52 36.6699H138.53Z" fill="#242424"/>
<path d="M123.84 33.9099C122.12 34.6999 119.9 35.3599 117.21 35.8699C117.5 35.5599 117.68 35.1299 117.68 34.6299V30.3499C117.68 29.8199 117.96 29.1799 118.36 28.7799C119.17 28.0399 119.94 27.2299 120.65 26.3899C121.07 25.9499 121.65 25.6599 122.07 25.6599H136.3C136.61 25.6599 136.88 25.7399 137.17 25.8299C137.45 25.9199 137.74 26.0099 138.06 26.0099C138.91 26.0099 139.56 25.3399 139.56 24.4499C139.56 23.5599 138.92 22.8899 138.06 22.8899C137.74 22.8899 137.46 22.9799 137.18 23.0599C136.89 23.1499 136.61 23.2399 136.26 23.2399H125.25C125.22 23.1699 125.18 23.0699 125.15 22.9999C125.05 22.7399 124.93 22.4099 124.69 22.0999C124.22 21.4699 123.52 20.9799 122.52 20.5899C122.62 20.5399 122.71 20.4799 122.8 20.4099C123.35 20.0099 124.01 19.1899 124.01 17.5899V13.3499C124.01 12.4499 123.33 11.7399 122.47 11.7399C121.35 11.7399 120.85 12.7499 120.68 13.0899C120.66 13.1399 120.64 13.1699 120.64 13.1699C120.62 13.1699 120.57 13.1799 120.48 13.1799H117.88C117.79 13.1799 117.62 13.1799 117.62 12.8199V11.7299C117.62 11.3699 117.79 11.3699 117.88 11.3699H122.9C123.19 11.3699 123.44 11.4499 123.7 11.5399C123.96 11.6299 124.24 11.7199 124.54 11.7199C125.36 11.7199 125.96 11.0799 125.96 10.1999C125.96 9.3199 125.36 8.6799 124.54 8.6799C124.24 8.6799 123.97 8.7699 123.71 8.8499C123.44 8.9399 123.18 9.0199 122.87 9.0199H117.91C117.84 9.0199 117.63 9.0199 117.63 8.6399V7.4199C117.63 7.0399 117.84 7.0399 117.91 7.0399H121.11C121.4 7.0399 121.65 7.1199 121.91 7.2099C122.17 7.2999 122.45 7.3899 122.75 7.3899C123.57 7.3899 124.17 6.7499 124.17 5.8699C124.17 4.9899 123.57 4.3499 122.75 4.3499C122.45 4.3499 122.18 4.4399 121.92 4.5199C121.65 4.6099 121.39 4.6899 121.08 4.6899H118.05C117.69 4.6899 117.63 4.3499 117.63 4.1499V1.8199C117.63 0.879902 116.93 0.149902 116.03 0.149902C115.13 0.149902 114.47 0.879902 114.47 1.8199V4.1599C114.47 4.5199 114.33 4.6999 114.05 4.6999H112.28C112.58 4.1199 112.83 3.5099 113.05 2.8599C113.4 1.7399 112.8 0.789902 112.01 0.529902C111.34 0.309902 110.43 0.559902 110.03 1.6499C109.09 4.2799 108.05 6.2599 106.85 7.7199C106.56 8.0799 106.55 8.5899 106.83 8.9399C106.86 8.9699 106.89 8.9999 106.92 9.0299C106.32 9.0499 105.86 9.5599 105.86 10.1999C105.86 10.8399 106.35 11.3699 106.97 11.3699H114.21C114.3 11.3699 114.47 11.3699 114.47 11.7299V12.8199C114.47 13.1799 114.3 13.1799 114.21 13.1799H111.81C111.72 13.1799 111.67 13.1799 111.66 13.1799C111.66 13.1699 111.63 13.1399 111.61 13.0799C111.44 12.7499 110.94 11.7399 109.82 11.7399C108.96 11.7399 108.28 12.4499 108.28 13.3499V19.7499C108.28 20.6899 108.96 21.3999 109.86 21.3999C110.76 21.3999 111.4 20.6899 111.4 19.7499V16.0999C111.4 15.5199 111.74 15.5199 111.85 15.5199H114.02C114.13 15.5199 114.47 15.5199 114.47 16.0999V21.5399C114.47 22.4899 115.14 23.2099 116.03 23.2099C116.92 23.2099 117.63 22.4899 117.63 21.5399V16.1399C117.63 15.7299 117.8 15.5199 118.12 15.5199H120.48C120.59 15.5199 120.9 15.5199 120.9 16.0599V17.1799C120.9 18.5499 120.75 18.7599 119.7 18.9499C119.32 19.0199 119.03 19.3499 118.99 19.7599C118.96 20.0899 119.1 20.3899 119.35 20.5799C119.23 20.9299 119.33 21.3399 119.61 21.5999C120.1 22.0499 120.66 22.6399 121.2 23.2499H106.27C105.63 23.2499 105.12 23.7799 105.12 24.4599C105.12 25.1399 105.62 25.6699 106.27 25.6699H116.71C113.25 29.2599 109.76 31.0199 104.91 32.8199C104.47 32.9899 104.25 33.4799 104.37 33.9599C104.49 34.4199 104.89 34.7099 105.35 34.6399C109.09 33.9899 111.86 33.0799 114.36 31.6799C114.38 31.6699 114.4 31.6599 114.42 31.6499C114.42 31.6899 114.43 31.7499 114.43 31.8199V34.6399C114.43 35.3499 114.8 35.9299 115.35 36.1999C113.48 36.4899 111.42 36.7199 109.16 36.8899C108.1 36.9699 107.58 37.8499 107.62 38.6699C107.66 39.6099 108.33 40.3199 109.19 40.3199C114.98 40.3199 120.48 38.6499 124.69 35.6199C125.12 35.3199 125.24 34.7699 124.98 34.3199C124.74 33.8999 124.25 33.7299 123.82 33.9299L123.84 33.9099ZM112.18 7.0299H114.21C114.28 7.0299 114.49 7.0299 114.49 7.4099V8.6299C114.49 9.0099 114.28 9.0099 114.21 9.0099H108.16C109.34 8.3599 110.36 7.4799 111.2 6.4099C111.39 6.7799 111.75 7.0199 112.18 7.0199V7.0299Z" fill="#242424"/>
<path d="M165.59 15.1901C165.19 15.1901 164.84 15.3201 164.56 15.5401C167.87 10.7801 169.34 5.53005 169.99 2.22005C170.22 1.02005 169.48 0.200052 168.66 0.030052C167.87 -0.129948 166.93 0.300052 166.68 1.44005C165 8.75005 162.06 14.7901 157.67 19.8901C157.67 19.8901 157.66 19.9001 157.65 19.9101C157.33 20.3201 157.35 20.8901 157.7 21.2601C158.02 21.6001 158.53 21.6601 158.95 21.3701C160.98 19.8601 162.65 18.1101 164.03 16.2501C163.94 16.4901 163.89 16.7501 163.89 17.0401V38.9901C163.89 40.1001 164.6 40.9001 165.58 40.9001C166.56 40.9001 167.27 40.1001 167.27 38.9901V17.0401C167.27 15.9601 166.56 15.1701 165.58 15.1701L165.59 15.1901Z" fill="#242424"/>
<path d="M182.08 9.96008H190.38C190.7 9.96008 190.97 10.0301 191.26 10.1101C191.55 10.1901 191.84 10.2701 192.17 10.2701C193.02 10.2701 193.63 9.63008 193.63 8.75008C193.63 7.82008 193.02 7.15008 192.17 7.15008C191.83 7.15008 191.53 7.24008 191.24 7.33008C190.95 7.42008 190.67 7.50008 190.33 7.50008H177.87C177.65 7.50008 177.44 7.56008 177.27 7.66008C177.91 5.72008 178.34 3.86008 178.65 2.23008C178.89 1.01008 178.18 0.21008 177.37 0.0400796C176.59 -0.10992 175.64 0.31008 175.41 1.42008C174.25 6.65008 172.69 12.3001 167.52 18.7501C167.2 19.1501 167.21 19.6901 167.55 20.0401C167.88 20.4001 168.41 20.4501 168.83 20.1601C172.9 16.9901 175.28 12.9701 176.74 9.14008C176.89 9.63008 177.33 9.96008 177.87 9.96008H178.07C178.12 9.96008 178.17 9.96008 178.17 10.1501V39.3101C178.17 40.3401 178.88 41.0901 179.86 41.0901C180.84 41.0901 181.55 40.3401 181.55 39.3101V29.8001C181.55 29.6101 181.6 29.1501 182.06 29.1501H189.5C189.78 29.1501 190.03 29.2301 190.29 29.3101C190.58 29.4001 190.87 29.5001 191.22 29.5001C192.01 29.5001 192.6 28.8301 192.6 27.9401C192.6 27.0501 192.01 26.3801 191.22 26.3801C190.87 26.3801 190.58 26.4701 190.3 26.5601C190.03 26.6501 189.77 26.7301 189.47 26.7301H182.07C181.61 26.7301 181.56 26.2801 181.56 26.0801V20.1801C181.56 19.9901 181.61 19.5301 182.07 19.5301H189.51C189.79 19.5301 190.04 19.6101 190.3 19.6901C190.59 19.7801 190.88 19.8801 191.23 19.8801C192.02 19.8801 192.61 19.2101 192.61 18.3201C192.61 17.4301 192.02 16.7601 191.23 16.7601C190.88 16.7601 190.59 16.8501 190.31 16.9401C190.04 17.0301 189.78 17.1101 189.48 17.1101H182.08C181.62 17.1101 181.57 16.6601 181.57 16.4601V10.6001C181.57 10.4101 181.62 9.95008 182.08 9.95008V9.96008Z" fill="#242424"/>
</g>
<defs>
<clipPath id="clip0_868_8">
<rect width="193.64" height="43.17" fill="white"/>
</clipPath>
</defs>
</svg>
