<?xml version="1.0" encoding="UTF-8"?>
<svg id="_圖層_1" data-name="圖層 1" xmlns="http://www.w3.org/2000/svg" viewBox="0 0 193.64 43.17">
  <defs>
    <style>
      .cls-1 {
        fill: #231815;
      }
    </style>
  </defs>
  <path class="cls-1" d="M24.58,28.53c.27.09.54.18.85.18.8,0,1.38-.64,1.38-1.52s-.58-1.52-1.38-1.52c-.31,0-.58.09-.84.18-.26.09-.51.17-.8.17h-2.52c-.46,0-.51-.45-.51-.65v-3.67c0-.22.06-.6.47-.6h1.11c.27,0,.5.08.75.17.25.09.52.18.81.18.8,0,1.38-.64,1.38-1.52s-.58-1.52-1.38-1.52c-.29,0-.55.09-.8.17-.26.09-.51.17-.8.17H6.89c-.62,0-1.11.51-1.11,1.17s.49,1.17,1.11,1.17h3.93c-.32.3-.51.75-.51,1.28v2.98c0,.2-.07.66-.53.66h-4.45c-.62,0-1.11.51-1.11,1.17s.49,1.17,1.11,1.17h4.39c.14,0,.24.04.3.1.08.09.12.27.1.47-.53,4.38-2.05,6.67-4.33,8.96-.34.33-.39.85-.13,1.23.17.24.44.38.71.38.13,0,.26-.03.39-.09,3.75-1.81,5.96-5.29,6.56-10.3.05-.28.19-.75.64-.75h3.1c.46,0,.51.45.51.65v8.37c0,.98.68,1.69,1.62,1.69s1.58-.71,1.58-1.69v-8.37c0-.19.05-.65.51-.65h2.56c.26,0,.5.08.75.17ZM12.97,21.11h4.09c.46,0,.51.45.51.65v3.63c0,.19-.05.65-.51.65h-3.05c-.46,0-.51-.45-.51-.65v-2.95c0-.55-.2-1.01-.53-1.32Z"/>
  <path class="cls-1" d="M10.5,15.88c.15.34.62,1.38,1.74,1.38.91,0,1.58-.7,1.58-1.67V3.05c0-1-.68-1.76-1.58-1.76-1.14,0-1.62,1.06-1.83,1.5-.05.11-.08.14-.08.14,0,0-.05.02-.16.02H3.82c-.15,0-.19-.02-.19-.02,0,0-.03-.04-.09-.15-.2-.41-.74-1.49-1.9-1.49-.92,0-1.63.77-1.63,1.76v35.91c0,1.01.7,1.74,1.65,1.74s1.65-.73,1.65-1.74v-22.8c0-.19.05-.65.51-.65h6.34c.13,0,.17,0,.33.37ZM10.62,5.76v1.71c0,.47-.26.47-.36.47H3.67c-.1,0-.36,0-.36-.47v-1.71c0-.47.25-.47.36-.47h6.6c.11,0,.36,0,.36.47ZM3.31,12.68v-1.92c0-.23.07-.49.38-.49h6.56c.31,0,.38.27.38.49v1.92c0,.22-.07.49-.38.49H3.69c-.31,0-.38-.27-.38-.49Z"/>
  <path class="cls-1" d="M28.97,1.29c-1.17,0-1.7,1.08-1.91,1.5-.06.14-.08.14-.08.14,0,0-.05.02-.2.02h-6.27c-.11,0-.15,0-.15-.01,0,0-.04-.04-.09-.14-.21-.45-.7-1.51-1.83-1.51-.9,0-1.58.76-1.58,1.76v12.55c0,.97.66,1.67,1.58,1.67,1,0,1.47-.79,1.74-1.38.16-.37.21-.37.33-.37h6.27c.46,0,.51.45.51.65v17.38c0,3.24-.85,4.35-3.81,4.92,0,0,0,0,0,0-.42.09-.71.47-.69.93.02.47.33.85.76.9.51.08,1,.12,1.47.12,1.47,0,2.71-.41,3.65-1.2,1.27-1.08,1.94-2.85,1.94-5.11V3.05c0-.99-.72-1.76-1.64-1.76ZM27.29,5.76v1.71c0,.47-.25.47-.36.47h-6.52c-.1,0-.36,0-.36-.47v-1.71c0-.47.25-.47.36-.47h6.52c.11,0,.36,0,.36.47ZM20.06,12.68v-1.92c0-.23.06-.49.38-.49h6.48c.31,0,.38.27.38.49v1.92c0,.22-.06.49-.38.49h-6.48c-.31,0-.38-.27-.38-.49Z"/>
  <path class="cls-1" d="M63.71,28.21c-.33-.26-.44-.72-.29-1.21,1.88-5.44,2.42-11.87,2.67-16.87.03-.76-.25-1.22-.48-1.47-.29-.3-.68-.47-1.09-.47-.75,0-1.38.52-1.73,1.43-.2.51-.29.63-.32.66,0,0-.03.01-.12.01h-2.15c-.07,0-.19,0-.24-.07-.06-.07-.08-.22-.04-.43.39-2.89.64-5.47.75-7.66.06-1.14-.7-1.79-1.48-1.84-.79-.05-1.62.51-1.71,1.69-.09,2.19-.34,4.75-.73,7.58-.07.44-.34.72-.72.72h-3.46c-.62,0-1.11.51-1.11,1.17s.49,1.17,1.11,1.17h3.28c.07,0,.19.01.25.08.06.07.08.23.04.42-.98,5.21-2.3,9.67-3.72,12.55-.52,1.06-.05,2.09.71,2.46.65.32,1.6.19,2.13-.88.22-.44.44-.92.65-1.42.06.11.14.2.24.27.83.65,1.75,1.39,2.67,2.17.33.29.42.75.22,1.17-1.74,3.64-4.27,6.73-7.74,9.45,0,0,0,0-.01,0-.38.31-.46.87-.19,1.3.17.28.46.44.77.44.14,0,.29-.03.43-.1,4-2.19,7.01-5.19,9.2-9.18.11-.2.2-.25.22-.25,0-.02.08.02.2.14.88.94,1.62,1.81,2.25,2.64.64.93,1.56.94,2.18.53.77-.5,1.18-1.65.53-2.73-.76-1.2-1.86-2.4-3.18-3.48ZM59.34,13.31c.07-.42.32-.68.68-.68h2.25c.12,0,.22.03.27.1.08.09.12.26.1.46-.41,5.12-1.07,9.04-2.08,12.32-.07.22-.17.32-.23.35-.06.02-.17,0-.29-.08-.92-.51-1.95-.97-3.05-1.37-.1-.04-.21-.06-.31-.06-.07,0-.14,0-.21.03,1.1-2.99,2.1-6.79,2.87-11.07Z"/>
  <path class="cls-1" d="M78.98,8.97c-.36-.2-.81-.11-1.08.23-.3.36-.29.87.02,1.24,1.58,1.95,2.63,3.49,3.5,5.1-.12-.04-.25-.05-.38-.04-3.68.2-7.45.53-9.96.77-.03,0-.06,0-.09,0,.02-.05.05-.1.09-.18,2.46-4.23,4.61-9.19,5.89-13.6.21-.72.08-1.4-.36-1.85-.4-.41-.99-.58-1.54-.43-.56.15-.97.57-1.12,1.16-1.64,5.72-4.8,12.29-8.05,16.73-.73.99-.4,2.07.28,2.58.26.19.58.31.91.31.43,0,.88-.19,1.23-.66.24-.32.48-.65.72-1.01.23-.34.65-.6,1.02-.64l.53-.05c2.61-.23,6.56-.58,10.5-.8.4-.03.73-.25.91-.62.04-.09.08-.19.1-.29.39.81.76,1.67,1.16,2.63.47,1.13,1.37,1.39,2.06,1.13.81-.29,1.43-1.29,1.06-2.47-1.24-3.77-4.01-7.23-7.42-9.25Z"/>
  <path class="cls-1" d="M82.55,21.13c-1.13,0-1.59,1.1-1.75,1.46-.15.36-.23.41-.32.42h-9.47s-.08-.06-.23-.42c-.26-.63-.73-1.46-1.74-1.46-.93,0-1.58.72-1.58,1.76v16.09c0,.97.66,1.67,1.58,1.67s1.6-.71,1.67-1.76c.06-.77.16-2.19.29-2.38,0,0,.05-.01.2-.01h9.18c.07,0,.1,0,.1,0,.08.09.23.47.38,2.03.14,1.04.78,1.68,1.69,1.68s1.58-.72,1.58-1.67v-15.65c0-1.04-.65-1.76-1.58-1.76ZM70.66,33.52v-7.52c0-.19.05-.65.51-.65h9.25c.46,0,.51.45.51.65v7.52c0,.19-.05.65-.51.65h-9.25c-.46,0-.51-.45-.51-.65Z"/>
  <path class="cls-1" d="M128.5,19.27c.92,0,1.62-.75,1.62-1.74V4.12c0-.99-.68-1.74-1.58-1.74s-1.62.75-1.62,1.74v13.42c0,.99.68,1.74,1.58,1.74Z"/>
  <path class="cls-1" d="M130.69,22.23c.53.13,1.04.2,1.53.2,1.05,0,1.98-.31,2.76-.91,1.27-.98,1.96-2.68,1.96-4.77V1.89c0-.96-.69-1.69-1.62-1.69s-1.58.73-1.58,1.69v13.9c0,3.44-.97,4.23-3.01,4.61-.4.06-.7.41-.73.84-.03.46.25.87.68.99Z"/>
  <path class="cls-1" d="M138.53,36.67c-3.38-.86-6.1-2.01-8.36-3.62,2.82-.72,4.81-2.09,5.93-4.08.57-1.04.13-2.13-.63-2.58-.63-.37-1.58-.34-2.2.61-1.31,2.02-2.02,2.9-3.9,4.45-.23.18-.35.45-.34.73-1.84-1.54-3.37-3.44-4.73-5.8-.24-.42-.72-.59-1.16-.41-.44.19-.66.67-.52,1.14,0,0,0,0,0,0,2.1,6.96,7.92,12.07,15.2,13.32.09.01.17.02.26.02.82,0,1.52-.61,1.7-1.55.18-.91-.19-1.96-1.26-2.23Z"/>
  <path class="cls-1" d="M123.84,33.91c-1.72.79-3.94,1.45-6.63,1.96.29-.31.47-.74.47-1.24v-4.28c0-.53.28-1.17.68-1.57.81-.74,1.58-1.55,2.29-2.39.42-.44,1-.73,1.42-.73h14.23c.31,0,.58.08.87.17.28.09.57.18.89.18.85,0,1.5-.67,1.5-1.56s-.64-1.56-1.5-1.56c-.32,0-.6.09-.88.17-.29.09-.57.18-.92.18h-11.01c-.03-.07-.07-.17-.1-.24-.1-.26-.22-.59-.46-.9-.47-.63-1.17-1.12-2.17-1.51.1-.05.19-.11.28-.18.55-.4,1.21-1.22,1.21-2.82v-4.24c0-.9-.68-1.61-1.54-1.61-1.12,0-1.62,1.01-1.79,1.35-.02.05-.04.08-.04.08-.02,0-.07.01-.16.01h-2.6c-.09,0-.26,0-.26-.36v-1.09c0-.36.17-.36.26-.36h5.02c.29,0,.54.08.8.17.26.09.54.18.84.18.82,0,1.42-.64,1.42-1.52s-.6-1.52-1.42-1.52c-.3,0-.57.09-.83.17-.27.09-.53.17-.84.17h-4.96c-.07,0-.28,0-.28-.38v-1.22c0-.38.21-.38.28-.38h3.2c.29,0,.54.08.8.17.26.09.54.18.84.18.82,0,1.42-.64,1.42-1.52s-.6-1.52-1.42-1.52c-.3,0-.57.09-.83.17-.27.09-.53.17-.84.17h-3.03c-.36,0-.42-.34-.42-.54V1.82c0-.94-.7-1.67-1.6-1.67s-1.56.73-1.56,1.67v2.34c0,.36-.14.54-.42.54h-1.77c.3-.58.55-1.19.77-1.84.35-1.12-.25-2.07-1.04-2.33-.67-.22-1.58.03-1.98,1.12-.94,2.63-1.98,4.61-3.18,6.07-.29.36-.3.87-.02,1.22.03.03.06.06.09.09-.6.02-1.06.53-1.06,1.17s.49,1.17,1.11,1.17h7.24c.09,0,.26,0,.26.36v1.09c0,.36-.17.36-.26.36h-2.4c-.09,0-.14,0-.15,0,0-.01-.03-.04-.05-.1-.17-.33-.67-1.34-1.79-1.34-.86,0-1.54.71-1.54,1.61v6.4c0,.94.68,1.65,1.58,1.65s1.54-.71,1.54-1.65v-3.65c0-.58.34-.58.45-.58h2.17c.11,0,.45,0,.45.58v5.44c0,.95.67,1.67,1.56,1.67s1.6-.72,1.6-1.67v-5.4c0-.41.17-.62.49-.62h2.36c.11,0,.42,0,.42.54v1.12c0,1.37-.15,1.58-1.2,1.77-.38.07-.67.4-.71.81-.03.33.11.63.36.82-.12.35-.02.76.26,1.02.49.45,1.05,1.04,1.59,1.65h-14.93c-.64,0-1.15.53-1.15,1.21s.5,1.21,1.15,1.21h10.44c-3.46,3.59-6.95,5.35-11.8,7.15-.44.17-.66.66-.54,1.14.12.46.52.75.98.68,3.74-.65,6.51-1.56,9.01-2.96.02-.01.04-.02.06-.03,0,.04.01.1.01.17v2.82c0,.71.37,1.29.92,1.56-1.87.29-3.93.52-6.19.69h0c-1.06.08-1.58.96-1.54,1.78.04.94.71,1.65,1.57,1.65,5.79,0,11.29-1.67,15.5-4.7.43-.3.55-.85.29-1.3-.24-.42-.73-.59-1.16-.39ZM112.18,7.03h2.03c.07,0,.28,0,.28.38v1.22c0,.38-.21.38-.28.38h-6.05c1.18-.65,2.2-1.53,3.04-2.6.19.37.55.61.98.61Z"/>
  <path class="cls-1" d="M165.59,15.19c-.4,0-.75.13-1.03.35,3.31-4.76,4.78-10.01,5.43-13.32.23-1.2-.51-2.02-1.33-2.19-.79-.16-1.73.27-1.98,1.41-1.68,7.31-4.62,13.35-9.01,18.45,0,0-.01.01-.02.02-.32.41-.3.98.05,1.35.32.34.83.4,1.25.11,2.03-1.51,3.7-3.26,5.08-5.12-.09.24-.14.5-.14.79v21.95c0,1.11.71,1.91,1.69,1.91s1.69-.8,1.69-1.91v-21.95c0-1.08-.71-1.87-1.69-1.87Z"/>
  <path class="cls-1" d="M182.08,9.96h8.3c.32,0,.59.07.88.15.29.08.58.16.91.16.85,0,1.46-.64,1.46-1.52,0-.93-.61-1.6-1.46-1.6-.34,0-.64.09-.93.18-.29.09-.57.17-.91.17h-12.46c-.22,0-.43.06-.6.16.64-1.94,1.07-3.8,1.38-5.43.24-1.22-.47-2.02-1.28-2.19-.78-.15-1.73.27-1.96,1.38-1.16,5.23-2.72,10.88-7.89,17.33,0,0,0,0,0,0-.32.4-.31.94.03,1.29.33.36.86.41,1.28.12,4.07-3.17,6.45-7.19,7.91-11.02.15.49.59.82,1.13.82h.2c.05,0,.1,0,.1.19v29.16c0,1.03.71,1.78,1.69,1.78s1.69-.75,1.69-1.78v-9.51c0-.19.05-.65.51-.65h7.44c.28,0,.53.08.79.16.29.09.58.19.93.19.79,0,1.38-.67,1.38-1.56s-.59-1.56-1.38-1.56c-.35,0-.64.09-.92.18-.27.09-.53.17-.83.17h-7.4c-.46,0-.51-.45-.51-.65v-5.9c0-.19.05-.65.51-.65h7.44c.28,0,.53.08.79.16.29.09.58.19.93.19.79,0,1.38-.67,1.38-1.56s-.59-1.56-1.38-1.56c-.35,0-.64.09-.92.18-.27.09-.53.17-.83.17h-7.4c-.46,0-.51-.45-.51-.65v-5.86c0-.19.05-.65.51-.65Z"/>
</svg>