<svg width="303" height="574" viewBox="0 0 303 574" fill="none" xmlns="http://www.w3.org/2000/svg">
<g clip-path="url(#clip0_952_572)">
<path d="M236.188 138.87C252.918 138.87 266.479 129.625 266.479 118.221C266.479 106.816 252.918 97.5715 236.188 97.5715C219.459 97.5715 205.897 106.816 205.897 118.221C205.897 129.625 219.459 138.87 236.188 138.87Z" fill="white"/>
<path d="M266.654 121.897C266.963 121.011 267.471 120.878 267.502 119.782C267.541 117.649 265.961 117.63 265.398 118.797C265.123 119.416 265.053 120.232 264.951 120.942C264.935 121.773 264.593 122.525 264.307 123.3C262.64 127.423 259.226 130.739 255.253 133.17C251.231 135.553 246.606 137.192 241.667 137.893C238.199 138.382 231.614 138.897 224.05 136.761C220.304 135.683 216.356 133.907 212.897 131.185C211.217 129.773 209.66 128.155 208.422 126.284C207.242 124.382 206.416 122.252 206.114 120.033C205.509 115.562 207.313 111.02 210.234 107.854C213.075 104.563 216.774 102.401 220.231 100.909C227.258 97.9391 233.503 97.7654 236.5 97.7663C239.748 97.7469 242.99 98.187 246.14 98.9298C248.915 99.5748 251.611 100.561 254.119 101.882C256.247 102.962 258.237 104.314 259.963 105.929C261.377 107.151 262.505 108.645 263.508 110.177C264.139 111.3 264.693 112.454 265.042 113.674C265.276 114.3 265.328 114.97 265.448 115.614C265.568 116.484 265.489 117.441 266.18 117.849C266.408 117.991 266.657 118.065 266.884 117.994C267.352 117.858 267.675 116.87 267.564 116.03C267.328 114.938 267.083 114.196 266.618 113.212C266.086 112.147 265.676 111.12 265.069 110.097C264.742 109.403 264.237 108.829 263.816 108.198C262.776 106.782 261.522 105.549 260.201 104.413C258.633 103.139 256.948 102.016 255.162 101.091C253.175 100.056 251.097 99.1954 248.954 98.5672C246.644 97.8396 244.263 97.3885 241.872 97.0698C239.335 96.8093 236.78 96.6466 234.234 96.8135C233.583 96.8396 229.897 96.9307 224.904 98.2224C219.967 99.482 213.601 102.301 209.172 107.435C206.99 109.974 205.394 113.117 204.998 116.317C204.571 119.511 205.26 122.57 206.373 124.935C208.756 129.67 211.968 131.82 212.404 132.268C214.532 133.959 216.927 135.25 219.39 136.334C221.866 137.422 224.482 138.114 227.107 138.691C229.716 139.133 232.349 139.501 234.996 139.479C237.554 139.543 240.109 139.318 242.638 138.959C245.023 138.533 247.406 138.035 249.686 137.2C250.97 136.81 252.18 136.221 253.417 135.709C259.776 132.723 263.977 128.289 265.863 124.034C266.12 123.323 266.498 122.645 266.654 121.898V121.897Z" fill="black"/>
</g>
<g clip-path="url(#clip1_952_572)">
<path d="M263.73 166.154C263.748 166.591 263.614 166.981 263.413 167.337C263.236 167.649 263.009 167.935 262.791 168.203C262.292 168.815 261.659 169.348 260.931 169.818C260.385 170.169 259.951 170.444 258.805 170.264C257.818 170.111 256.692 169.707 255.635 169.213C254.291 168.585 254.261 167.678 254.272 167.111C254.279 166.63 254.453 166.187 254.621 165.76C254.682 165.609 254.742 165.457 254.793 165.306C255.238 163.997 255.894 162.73 257.067 161.822C257.586 161.42 258.122 161.005 258.864 160.888C260.172 160.688 261.824 161.648 262.427 162.64C263.175 163.873 263.686 165.112 263.729 166.155L263.73 166.154Z" fill="black"/>
</g>
<g clip-path="url(#clip2_952_572)">
<path d="M173.475 147.629C190.205 147.629 203.766 138.384 203.766 126.98C203.766 115.575 190.205 106.33 173.475 106.33C156.746 106.33 143.184 115.575 143.184 126.98C143.184 138.384 156.746 147.629 173.475 147.629Z" fill="white"/>
<path d="M203.941 130.656C204.25 129.769 204.758 129.637 204.789 128.541C204.827 126.408 203.247 126.389 202.684 127.556C202.41 128.175 202.34 128.99 202.238 129.701C202.222 130.532 201.88 131.284 201.594 132.059C199.927 136.182 196.512 139.498 192.54 141.929C188.517 144.312 183.892 145.951 178.953 146.652C175.486 147.141 168.9 147.656 161.336 145.52C157.591 144.442 153.643 142.666 150.184 139.944C148.504 138.532 146.946 136.914 145.709 135.042C144.529 133.141 143.702 131.011 143.401 128.791C142.795 124.321 144.599 119.779 147.521 116.613C150.362 113.322 154.06 111.16 157.517 109.668C164.545 106.698 170.79 106.524 173.787 106.525C177.035 106.506 180.276 106.946 183.427 107.689C186.202 108.334 188.897 109.32 191.405 110.64C193.534 111.721 195.523 113.073 197.249 114.688C198.664 115.91 199.791 117.404 200.795 118.936C201.426 120.059 201.98 121.213 202.329 122.433C202.562 123.059 202.615 123.728 202.734 124.373C202.854 125.243 202.775 126.2 203.466 126.608C203.694 126.75 203.943 126.824 204.171 126.753C204.638 126.617 204.961 125.629 204.85 124.789C204.614 123.697 204.37 122.954 203.905 121.971C203.372 120.906 202.963 119.879 202.355 118.856C202.029 118.162 201.524 117.588 201.102 116.957C200.063 115.541 198.809 114.308 197.488 113.172C195.919 111.898 194.234 110.775 192.449 109.85C190.461 108.815 188.384 107.954 186.24 107.326C183.931 106.599 181.55 106.147 179.159 105.829C176.622 105.568 174.067 105.405 171.521 105.572C170.87 105.599 167.184 105.69 162.191 106.981C157.253 108.241 150.887 111.06 146.458 116.194C144.277 118.733 142.68 121.876 142.285 125.076C141.857 128.27 142.546 131.329 143.66 133.694C146.043 138.428 149.255 140.579 149.69 141.027C151.818 142.717 154.214 144.009 156.677 145.093C159.152 146.181 161.768 146.873 164.394 147.45C167.002 147.892 169.635 148.26 172.282 148.237C174.84 148.302 177.396 148.076 179.924 147.718C182.31 147.292 184.692 146.794 186.973 145.958C188.257 145.569 189.466 144.98 190.703 144.468C197.063 141.481 201.264 137.048 203.149 132.793C203.407 132.082 203.785 131.404 203.941 130.656V130.656Z" fill="black"/>
</g>
<g clip-path="url(#clip3_952_572)">
<path d="M159.811 191.423C176.54 191.423 190.102 182.178 190.102 170.774C190.102 159.37 176.54 150.125 159.811 150.125C143.081 150.125 129.52 159.37 129.52 170.774C129.52 182.178 143.081 191.423 159.811 191.423Z" fill="white"/>
<path d="M190.277 174.45C190.586 173.564 191.094 173.432 191.125 172.336C191.163 170.202 189.583 170.184 189.02 171.351C188.746 171.97 188.676 172.785 188.574 173.496C188.557 174.326 188.216 175.078 187.93 175.853C186.263 179.976 182.848 183.293 178.876 185.724C174.853 188.106 170.228 189.745 165.289 190.447C161.822 190.935 155.236 191.45 147.672 189.315C143.927 188.236 139.979 186.461 136.519 183.738C134.84 182.327 133.282 180.709 132.045 178.837C130.865 176.936 130.038 174.805 129.737 172.586C129.131 168.116 130.935 163.574 133.857 160.408C136.698 157.116 140.396 154.954 143.853 153.463C150.88 150.493 157.126 150.319 160.123 150.32C163.371 150.3 166.612 150.74 169.762 151.483C172.538 152.128 175.233 153.115 177.741 154.435C179.87 155.516 181.859 156.867 183.585 158.482C185 159.705 186.127 161.199 187.131 162.731C187.762 163.854 188.316 165.007 188.665 166.228C188.898 166.854 188.951 167.523 189.07 168.167C189.19 169.037 189.111 169.994 189.802 170.402C190.03 170.545 190.279 170.618 190.507 170.547C190.974 170.412 191.297 169.423 191.186 168.584C190.95 167.492 190.706 166.749 190.241 165.765C189.708 164.7 189.299 163.673 188.691 162.651C188.365 161.957 187.86 161.382 187.438 160.752C186.399 159.335 185.145 158.103 183.824 156.966C182.255 155.692 180.57 154.569 178.785 153.644C176.797 152.61 174.72 151.749 172.576 151.121C170.267 150.393 167.886 149.942 165.495 149.623C162.958 149.363 160.403 149.2 157.857 149.367C157.206 149.393 153.52 149.484 148.527 150.776C143.589 152.035 137.223 154.855 132.794 159.989C130.613 162.527 129.016 165.671 128.621 168.87C128.193 172.064 128.882 175.124 129.996 177.489C132.378 182.223 135.591 184.374 136.026 184.822C138.154 186.512 140.55 187.804 143.013 188.887C145.488 189.976 148.104 190.668 150.73 191.245C153.338 191.686 155.971 192.055 158.618 192.032C161.176 192.097 163.732 191.871 166.26 191.513C168.646 191.087 171.028 190.589 173.309 189.753C174.593 189.364 175.802 188.774 177.039 188.262C183.398 185.276 187.6 180.843 189.485 176.588C189.742 175.877 190.121 175.199 190.277 174.451V174.45Z" fill="black"/>
</g>
<g clip-path="url(#clip4_952_572)">
<path d="M93.944 285.319C110.673 285.319 124.235 276.074 124.235 264.67C124.235 253.265 110.673 244.02 93.944 244.02C77.2147 244.02 63.6528 253.265 63.6528 264.67C63.6528 276.074 77.2147 285.319 93.944 285.319Z" fill="white"/>
<path d="M124.409 268.345C124.719 267.459 125.226 267.327 125.258 266.231C125.296 264.098 123.716 264.079 123.153 265.246C122.879 265.865 122.809 266.68 122.706 267.391C122.69 268.222 122.349 268.974 122.062 269.748C120.395 273.871 116.981 277.188 113.009 279.619C108.986 282.002 104.361 283.641 99.422 284.342C95.9549 284.83 89.369 285.346 81.8051 283.21C78.0594 282.132 74.1118 280.356 70.6523 277.633C68.9724 276.222 67.4151 274.604 66.1774 272.732C64.9975 270.831 64.1712 268.7 63.8696 266.481C63.2639 262.011 65.0682 257.469 67.9893 254.303C70.8303 251.011 74.5292 248.85 77.9861 247.358C85.0133 244.388 91.2584 244.214 94.2554 244.215C97.5036 244.196 100.745 244.636 103.895 245.379C106.671 246.024 109.366 247.01 111.874 248.33C114.003 249.411 115.992 250.763 117.718 252.377C119.133 253.6 120.26 255.094 121.263 256.626C121.895 257.749 122.448 258.902 122.798 260.123C123.031 260.749 123.084 261.418 123.203 262.062C123.323 262.933 123.244 263.889 123.935 264.298C124.163 264.44 124.412 264.513 124.639 264.443C125.107 264.307 125.43 263.319 125.319 262.479C125.083 261.387 124.839 260.644 124.374 259.66C123.841 258.595 123.431 257.569 122.824 256.546C122.498 255.852 121.993 255.278 121.571 254.647C120.532 253.231 119.278 251.998 117.956 250.861C116.388 249.587 114.703 248.464 112.918 247.539C110.93 246.505 108.852 245.644 106.709 245.016C104.4 244.288 102.019 243.837 99.6273 243.519C97.0904 243.258 94.5356 243.095 91.9894 243.262C91.3385 243.288 87.6524 243.379 82.6596 244.671C77.7221 245.931 71.3559 248.75 66.927 253.884C64.7454 256.423 63.1489 259.566 62.7537 262.766C62.326 265.959 63.0152 269.019 64.1286 271.384C66.5113 276.118 69.7237 278.269 70.1591 278.717C72.2871 280.407 74.6825 281.699 77.1453 282.782C79.6209 283.871 82.237 284.563 84.8625 285.14C87.471 285.582 90.1041 285.95 92.7509 285.927C95.3091 285.992 97.8648 285.766 100.393 285.408C102.778 284.982 105.161 284.484 107.442 283.648C108.725 283.259 109.935 282.669 111.172 282.158C117.531 279.171 121.733 274.738 123.618 270.483C123.875 269.772 124.254 269.094 124.409 268.346V268.345Z" fill="black"/>
</g>
<g clip-path="url(#clip5_952_572)">
<path d="M240.042 315.099C256.772 315.099 270.333 305.854 270.333 294.45C270.333 283.046 256.772 273.801 240.042 273.801C223.313 273.801 209.751 283.046 209.751 294.45C209.751 305.854 223.313 315.099 240.042 315.099Z" fill="black"/>
<path d="M270.508 298.126C270.817 297.24 271.325 297.107 271.357 296.011C271.395 293.878 269.815 293.86 269.252 295.026C268.977 295.645 268.907 296.461 268.805 297.171C268.789 298.002 268.447 298.754 268.161 299.529C266.494 303.652 263.08 306.969 259.107 309.399C255.085 311.782 250.46 313.421 245.521 314.123C242.054 314.611 235.468 315.126 227.904 312.99C224.158 311.912 220.21 310.136 216.751 307.414C215.071 306.002 213.514 304.384 212.276 302.513C211.096 300.611 210.27 298.481 209.968 296.262C209.363 291.791 211.167 287.249 214.088 284.083C216.929 280.792 220.628 278.63 224.085 277.139C231.112 274.168 237.357 273.995 240.354 273.995C243.602 273.976 246.844 274.416 249.994 275.159C252.769 275.804 255.465 276.79 257.973 278.111C260.101 279.192 262.091 280.543 263.817 282.158C265.231 283.38 266.359 284.874 267.362 286.406C267.993 287.529 268.547 288.683 268.896 289.904C269.13 290.529 269.183 291.199 269.302 291.843C269.422 292.713 269.343 293.67 270.034 294.078C270.262 294.22 270.511 294.294 270.738 294.223C271.206 294.087 271.529 293.099 271.418 292.259C271.182 291.167 270.937 290.425 270.472 289.441C269.94 288.376 269.53 287.349 268.923 286.326C268.596 285.632 268.091 285.058 267.67 284.427C266.63 283.011 265.376 281.778 264.055 280.642C262.487 279.368 260.802 278.245 259.016 277.32C257.029 276.285 254.951 275.424 252.808 274.796C250.498 274.069 248.117 273.618 245.726 273.299C243.189 273.038 240.634 272.876 238.088 273.043C237.437 273.069 233.751 273.16 228.758 274.452C223.821 275.711 217.455 278.531 213.026 283.664C210.844 286.203 209.248 289.346 208.852 292.546C208.425 295.74 209.114 298.8 210.227 301.164C212.61 305.899 215.822 308.05 216.258 308.497C218.386 310.188 220.781 311.479 223.244 312.563C225.72 313.651 228.336 314.343 230.961 314.92C233.57 315.362 236.203 315.73 238.85 315.708C241.408 315.773 243.963 315.547 246.492 315.188C248.877 314.763 251.26 314.264 253.54 313.429C254.824 313.039 256.034 312.45 257.271 311.938C263.63 308.952 267.831 304.518 269.717 300.263C269.974 299.552 270.352 298.875 270.508 298.127V298.126Z" fill="black"/>
</g>
<g clip-path="url(#clip6_952_572)">
<path d="M223.575 388.674C240.305 388.674 253.867 379.429 253.867 368.025C253.867 356.621 240.305 347.376 223.575 347.376C206.846 347.376 193.284 356.621 193.284 368.025C193.284 379.429 206.846 388.674 223.575 388.674Z" fill="white"/>
<path d="M254.042 371.701C254.351 370.815 254.859 370.682 254.89 369.586C254.929 367.453 253.348 367.435 252.785 368.601C252.511 369.22 252.441 370.036 252.339 370.746C252.323 371.577 251.981 372.329 251.695 373.104C250.028 377.227 246.613 380.544 242.641 382.974C238.618 385.357 233.994 386.996 229.054 387.698C225.587 388.186 219.001 388.701 211.437 386.565C207.692 385.487 203.744 383.711 200.285 380.989C198.605 379.577 197.047 377.959 195.81 376.088C194.63 374.186 193.804 372.056 193.502 369.837C192.896 365.366 194.701 360.824 197.622 357.658C200.463 354.367 204.162 352.205 207.618 350.714C214.646 347.743 220.891 347.569 223.888 347.57C227.136 347.551 230.377 347.991 233.528 348.734C236.303 349.379 238.998 350.365 241.506 351.686C243.635 352.767 245.624 354.118 247.35 355.733C248.765 356.955 249.892 358.449 250.896 359.981C251.527 361.104 252.081 362.258 252.43 363.479C252.663 364.104 252.716 364.774 252.835 365.418C252.956 366.288 252.876 367.245 253.567 367.653C253.796 367.795 254.044 367.869 254.272 367.798C254.739 367.662 255.062 366.674 254.952 365.834C254.716 364.742 254.471 364 254.006 363.016C253.474 361.951 253.064 360.924 252.456 359.901C252.13 359.207 251.625 358.633 251.203 358.002C250.164 356.586 248.91 355.353 247.589 354.217C246.02 352.943 244.335 351.82 242.55 350.895C240.562 349.86 238.485 348.999 236.341 348.371C234.032 347.644 231.651 347.193 229.26 346.874C226.723 346.613 224.168 346.451 221.622 346.618C220.971 346.644 217.285 346.735 212.292 348.026C207.354 349.286 200.988 352.106 196.559 357.239C194.378 359.778 192.781 362.921 192.386 366.121C191.958 369.315 192.648 372.374 193.761 374.739C196.144 379.474 199.356 381.624 199.791 382.072C201.919 383.763 204.315 385.054 206.778 386.138C209.253 387.226 211.869 387.918 214.495 388.495C217.103 388.937 219.736 389.305 222.383 389.283C224.941 389.348 227.497 389.122 230.025 388.763C232.411 388.337 234.793 387.839 237.074 387.004C238.358 386.614 239.567 386.025 240.804 385.513C247.164 382.527 251.365 378.093 253.25 373.838C253.508 373.127 253.886 372.449 254.042 371.702V371.701Z" fill="black"/>
</g>
<g clip-path="url(#clip7_952_572)">
<path d="M74.3234 330.164C91.0528 330.164 104.615 320.919 104.615 309.515C104.615 298.111 91.0528 288.866 74.3234 288.866C57.5941 288.866 44.0322 298.111 44.0322 309.515C44.0322 320.919 57.5941 330.164 74.3234 330.164Z" fill="white"/>
<path d="M104.789 313.191C105.099 312.305 105.606 312.173 105.638 311.077C105.676 308.943 104.096 308.925 103.533 310.092C103.258 310.711 103.189 311.526 103.086 312.237C103.07 313.067 102.729 313.819 102.442 314.594C100.775 318.717 97.3609 322.034 93.3886 324.465C89.366 326.847 84.7411 328.486 79.8019 329.188C76.3348 329.676 69.7489 330.191 62.185 328.056C58.4393 326.977 54.4917 325.202 51.0322 322.479C49.3523 321.068 47.795 319.45 46.5572 317.578C45.3774 315.677 44.5511 313.546 44.2495 311.327C43.6438 306.857 45.4481 302.315 48.3692 299.149C51.2102 295.857 54.9091 293.695 58.366 292.204C65.3932 289.234 71.6383 289.06 74.6352 289.061C77.8835 289.041 81.1249 289.481 84.2751 290.224C87.0506 290.869 89.7459 291.856 92.2539 293.176C94.3827 294.257 96.3718 295.608 98.0978 297.223C99.5127 298.446 100.64 299.94 101.643 301.472C102.275 302.595 102.828 303.748 103.178 304.969C103.411 305.595 103.464 306.264 103.583 306.908C103.703 307.778 103.624 308.735 104.315 309.143C104.543 309.286 104.792 309.359 105.019 309.288C105.487 309.153 105.81 308.164 105.699 307.325C105.463 306.233 105.219 305.49 104.754 304.506C104.221 303.441 103.811 302.414 103.204 301.392C102.878 300.698 102.372 300.123 101.951 299.493C100.912 298.076 99.6576 296.844 98.3363 295.707C96.768 294.433 95.0829 293.31 93.2974 292.385C91.31 291.351 89.2322 290.49 87.0889 289.862C84.7794 289.134 82.3984 288.683 80.0072 288.364C77.4703 288.104 74.9155 287.941 72.3692 288.108C71.7184 288.134 68.0323 288.225 63.0394 289.517C58.1019 290.776 51.7358 293.596 47.3069 298.73C45.1252 301.268 43.5288 304.412 43.1335 307.611C42.7059 310.805 43.3951 313.865 44.5085 316.23C46.8912 320.964 50.1036 323.115 50.5389 323.563C52.6669 325.253 55.0624 326.545 57.5252 327.628C60.0008 328.717 62.6169 329.409 65.2424 329.986C67.8509 330.427 70.484 330.796 73.1308 330.773C75.689 330.838 78.2447 330.612 80.7731 330.254C83.1583 329.828 85.541 329.33 87.8215 328.494C89.1053 328.104 90.315 327.515 91.5519 327.003C97.9112 324.017 102.113 319.584 103.998 315.328C104.255 314.618 104.633 313.94 104.789 313.192V313.191Z" fill="black"/>
</g>
<g clip-path="url(#clip8_952_572)">
<path d="M60.3097 438.775C77.0391 438.775 90.6009 429.53 90.6009 418.126C90.6009 406.722 77.0391 397.477 60.3097 397.477C43.5804 397.477 30.0186 406.722 30.0186 418.126C30.0186 429.53 43.5804 438.775 60.3097 438.775Z" fill="white"/>
<path d="M90.7756 421.802C91.0848 420.916 91.5926 420.783 91.6241 419.687C91.6624 417.554 90.0822 417.535 89.5191 418.702C89.2448 419.321 89.1749 420.137 89.0727 420.847C89.0565 421.678 88.7149 422.43 88.4287 423.205C86.7615 427.328 83.3472 430.645 79.3749 433.075C75.3523 435.458 70.7274 437.097 65.7882 437.799C62.3211 438.287 55.7352 438.802 48.1713 436.666C44.4256 435.588 40.478 433.812 37.0185 431.09C35.3386 429.678 33.7814 428.06 32.5436 426.189C31.3637 424.287 30.5374 422.157 30.2358 419.938C29.6301 415.467 31.4344 410.925 34.3555 407.759C37.1965 404.468 40.8954 402.306 44.3524 400.814C51.3795 397.844 57.6247 397.67 60.6216 397.671C63.8698 397.652 67.1112 398.092 70.2615 398.835C73.0369 399.48 75.7322 400.466 78.2402 401.787C80.369 402.868 82.3582 404.219 84.0841 405.834C85.4991 407.056 86.6261 408.55 87.6296 410.082C88.2609 411.205 88.8146 412.359 89.1639 413.58C89.3973 414.205 89.4501 414.875 89.5693 415.519C89.6895 416.389 89.6102 417.346 90.3011 417.754C90.5294 417.896 90.7782 417.97 91.0056 417.899C91.4733 417.763 91.7962 416.775 91.6854 415.935C91.4494 414.843 91.205 414.101 90.7398 413.117C90.2074 412.052 89.7977 411.025 89.1903 410.002C88.864 409.308 88.3588 408.734 87.9371 408.103C86.8978 406.687 85.6439 405.454 84.3226 404.318C82.7543 403.044 81.0693 401.921 79.2837 400.996C77.2963 399.961 75.2186 399.1 73.0752 398.472C70.7658 397.745 68.3848 397.294 65.9935 396.975C63.4566 396.714 60.9018 396.552 58.3556 396.719C57.7047 396.745 54.0186 396.836 49.0258 398.127C44.0883 399.387 37.7222 402.206 33.2932 407.34C31.1116 409.879 29.5151 413.022 29.1199 416.222C28.6922 419.416 29.3814 422.475 30.4948 424.84C32.8775 429.575 36.09 431.725 36.5253 432.173C38.6533 433.864 41.0488 435.155 43.5115 436.239C45.9871 437.327 48.6032 438.019 51.2287 438.596C53.8372 439.038 56.4704 439.406 59.1172 439.384C61.6754 439.449 64.231 439.223 66.7594 438.864C69.1446 438.438 71.5274 437.94 73.8078 437.105C75.0916 436.715 76.3013 436.126 77.5382 435.614C83.8975 432.628 88.099 428.194 89.9842 423.939C90.2415 423.228 90.6197 422.55 90.7756 421.803V421.802Z" fill="black"/>
</g>
<g clip-path="url(#clip9_952_572)">
<path d="M90.4401 511.649C107.169 511.649 120.731 502.404 120.731 491C120.731 479.595 107.169 470.35 90.4401 470.35C73.7108 470.35 60.1489 479.595 60.1489 491C60.1489 502.404 73.7108 511.649 90.4401 511.649Z" fill="white"/>
<path d="M120.906 494.675C121.215 493.789 121.723 493.657 121.754 492.561C121.793 490.428 120.213 490.409 119.649 491.576C119.375 492.195 119.305 493.01 119.203 493.721C119.187 494.551 118.845 495.304 118.559 496.078C116.892 500.201 113.478 503.518 109.505 505.949C105.483 508.332 100.858 509.971 95.9186 510.672C92.4514 511.16 85.8656 511.675 78.3017 509.54C74.556 508.461 70.6084 506.686 67.1489 503.963C65.469 502.552 63.9117 500.934 62.6739 499.062C61.4941 497.161 60.6678 495.03 60.3662 492.811C59.7605 488.341 61.5648 483.799 64.4859 480.633C67.3269 477.341 71.0258 475.18 74.4827 473.688C81.5099 470.718 87.755 470.544 90.7519 470.545C94.0002 470.526 97.2416 470.966 100.392 471.708C103.167 472.353 105.863 473.34 108.371 474.66C110.499 475.741 112.489 477.093 114.214 478.707C115.629 479.93 116.756 481.424 117.76 482.956C118.391 484.079 118.945 485.232 119.294 486.453C119.528 487.079 119.58 487.748 119.7 488.392C119.82 489.262 119.741 490.219 120.431 490.628C120.66 490.77 120.909 490.843 121.136 490.773C121.604 490.637 121.927 489.649 121.816 488.809C121.58 487.717 121.335 486.974 120.87 485.99C120.338 484.925 119.928 483.898 119.321 482.876C118.994 482.182 118.489 481.608 118.068 480.977C117.028 479.561 115.774 478.328 114.453 477.191C112.885 475.917 111.2 474.794 109.414 473.869C107.427 472.835 105.349 471.974 103.206 471.346C100.896 470.618 98.5151 470.167 96.1239 469.849C93.587 469.588 91.0322 469.425 88.4859 469.592C87.8351 469.618 84.149 469.709 79.1561 471.001C74.2186 472.261 67.8525 475.08 63.4236 480.214C61.2419 482.753 59.6455 485.896 59.2502 489.096C58.8226 492.289 59.5118 495.349 60.6252 497.714C63.0079 502.448 66.2203 504.599 66.6556 505.047C68.7836 506.737 71.1791 508.029 73.6419 509.112C76.1175 510.201 78.7336 510.893 81.3591 511.47C83.9676 511.912 86.6007 512.28 89.2475 512.257C91.8057 512.322 94.3614 512.096 96.8897 511.738C99.275 511.312 101.658 510.814 103.938 509.978C105.222 509.589 106.432 508.999 107.669 508.488C114.028 505.501 118.229 501.068 120.115 496.813C120.372 496.102 120.75 495.424 120.906 494.676V494.675Z" fill="black"/>
</g>
<path d="M190.253 74.61L190.253 72.094L196.8 72.094L196.8 64.9884L190.253 64.9884L190.253 62.483L205.348 62.483L205.348 64.9884L199 64.9884L199 72.094L205.348 72.094L205.348 74.61L190.253 74.61Z" fill="#D0D0D0"/>
<path d="M203.222 59.1946L203.222 54.8576L190.253 54.8576L190.253 52.3522L203.222 52.3522L203.222 48.0256L205.348 48.0256L205.348 59.1946L203.222 59.1946Z" fill="#D0D0D0"/>
<path d="M190.253 46.6634L190.253 43.7369L194.295 41.3263C194.667 41.1087 194.983 40.8947 195.242 40.6841C195.509 40.4806 195.727 40.2701 195.895 40.0525C196.063 39.842 196.186 39.6104 196.263 39.3577C196.341 39.1051 196.379 38.8209 196.379 38.5051L196.379 37.4945L190.253 37.4945L190.253 34.9996L205.348 34.9996L205.348 39.9683C205.348 40.6771 205.264 41.3298 205.096 41.9263C204.927 42.5228 204.671 43.0421 204.327 43.4843C203.99 43.9264 203.566 44.2703 203.053 44.5159C202.548 44.7685 201.955 44.8949 201.274 44.8949C200.741 44.8949 200.25 44.8142 199.8 44.6527C199.358 44.4984 198.962 44.2738 198.611 43.979C198.267 43.6913 197.972 43.3404 197.727 42.9263C197.481 42.5193 197.292 42.0596 197.158 41.5473L197.116 41.5473C196.962 41.821 196.79 42.0596 196.6 42.2632C196.418 42.4667 196.228 42.6597 196.032 42.8421C195.835 43.0246 195.611 43.2036 195.358 43.379C195.113 43.5615 194.825 43.7615 194.495 43.979L190.253 46.6634ZM203.316 37.4945L198.411 37.4945L198.411 39.5788C198.411 39.9648 198.471 40.3192 198.59 40.642C198.709 40.9719 198.881 41.2561 199.106 41.4947C199.33 41.7333 199.604 41.9193 199.927 42.0526C200.25 42.186 200.611 42.2526 201.011 42.2526C201.734 42.2526 202.299 42.0245 202.706 41.5684C203.113 41.1122 203.316 40.456 203.316 39.5999L203.316 37.4945Z" fill="#D0D0D0"/>
<path d="M190 23.8475C190 21.672 190.705 19.9281 192.116 18.6157C193.526 17.3104 195.361 16.6577 197.621 16.6577C200.049 16.6577 201.986 17.3244 203.432 18.6578C204.878 19.9912 205.601 21.8018 205.601 24.0897C205.601 26.2091 204.899 27.9144 203.495 29.2057C202.092 30.504 200.256 31.1532 197.99 31.1532C195.526 31.1532 193.579 30.49 192.147 29.1636C190.716 27.8372 190 26.0652 190 23.8475ZM203.4 23.9633C203.4 22.5808 202.885 21.4544 201.853 20.5842C200.821 19.721 199.463 19.2894 197.779 19.2894C196.102 19.2894 194.751 19.7105 193.726 20.5526C192.702 21.3948 192.189 22.4966 192.189 23.8581C192.189 25.3038 192.677 26.4442 193.653 27.2793C194.628 28.1144 195.993 28.532 197.748 28.532C199.551 28.532 200.944 28.125 201.927 27.3109C202.909 26.5038 203.4 25.388 203.4 23.9633Z" fill="#D0D0D0"/>
<path d="M190.253 12.8006L190.253 10.0637L201.348 2.85277C201.629 2.67031 201.92 2.51942 202.222 2.40012L202.222 2.33696C201.899 2.3931 201.208 2.42117 200.148 2.42117L190.253 2.42117L190.253 -6.59845e-07L205.348 0L205.348 2.91593L194.516 9.8847C194.067 10.1795 193.758 10.3689 193.59 10.4532L193.59 10.4953C193.99 10.4251 194.667 10.39 195.621 10.39L205.348 10.39L205.348 12.8006L190.253 12.8006Z" fill="#D0D0D0"/>
<path d="M13.2217 268.068L13.2217 263.731L0.252655 263.731L0.252655 261.226L13.2217 261.226L13.2217 256.899L15.3481 256.899L15.3481 268.068L13.2217 268.068Z" fill="#D0D0D0"/>
<path d="M0.852481 245.073L3.43156 245.073C3.22102 245.305 3.03154 245.579 2.86311 245.894C2.69468 246.217 2.55081 246.558 2.43151 246.915C2.31922 247.273 2.2315 247.631 2.16834 247.989C2.10517 248.347 2.07359 248.677 2.07359 248.979C2.07359 250.031 2.24904 250.814 2.59994 251.326C2.95083 251.846 3.45963 252.105 4.12633 252.105C4.48424 252.105 4.79303 252.017 5.05269 251.842C5.31937 251.674 5.56149 251.435 5.77904 251.126C5.9966 250.817 6.20363 250.452 6.40013 250.031C6.60365 249.617 6.81418 249.172 7.03174 248.695C7.30543 248.182 7.58264 247.705 7.86336 247.263C8.14407 246.821 8.45286 246.435 8.78972 246.105C9.1336 245.782 9.51958 245.526 9.94767 245.336C10.3758 245.154 10.8775 245.063 11.453 245.063C12.1618 245.063 12.7759 245.221 13.2952 245.536C13.8215 245.859 14.2532 246.28 14.59 246.8C14.9339 247.326 15.1865 247.923 15.3479 248.589C15.5164 249.256 15.6006 249.937 15.6006 250.631C15.6006 252.21 15.4216 253.361 15.0637 254.084L12.5899 254.084C13.2075 253.228 13.5163 252.126 13.5163 250.779C13.5163 250.407 13.4812 250.035 13.411 249.663C13.3408 249.298 13.225 248.968 13.0636 248.673C12.9022 248.386 12.6952 248.151 12.4425 247.968C12.1899 247.786 11.8846 247.694 11.5267 247.694C11.1898 247.694 10.8986 247.765 10.653 247.905C10.4073 248.045 10.1828 248.249 9.97925 248.516C9.77573 248.789 9.57572 249.119 9.37922 249.505C9.18974 249.898 8.98271 250.351 8.75814 250.863C8.48444 251.389 8.19671 251.884 7.89494 252.347C7.59317 252.818 7.25982 253.228 6.89489 253.579C6.52996 253.937 6.12292 254.218 5.67377 254.421C5.23165 254.632 4.72636 254.737 4.15791 254.737C3.39296 254.737 2.74731 254.583 2.22097 254.274C1.69463 253.965 1.26654 253.547 0.936695 253.021C0.606854 252.502 0.368246 251.902 0.22087 251.221C0.0734945 250.54 -0.000193383 249.821 -0.00019335 249.063C-0.000193339 248.81 0.0208604 248.498 0.0629677 248.126C0.0980572 247.761 0.1542 247.386 0.231397 247C0.301576 246.614 0.3893 246.249 0.494568 245.905C0.599837 245.561 0.719141 245.284 0.852481 245.073Z" fill="#D0D0D0"/>
<path d="M0.252655 242.006L0.252655 233.532L15.3481 233.532L15.3481 241.669L13.2217 241.669L13.2217 236.037L8.94783 236.037L8.94783 241.227L6.83193 241.227L6.83193 236.037L2.36855 236.037L2.36855 242.006L0.252655 242.006Z" fill="#D0D0D0"/>
<path d="M15.3481 230.359L0.252655 226.222L0.252655 223.39L10.8111 220.516C11.2602 220.397 11.7515 220.323 12.2848 220.295L12.2848 220.253C11.7866 220.218 11.3023 220.134 10.8321 220L0.252655 217.116L0.252655 214.221L15.3481 210L15.3481 212.748L4.29496 215.484C3.83178 215.597 3.34755 215.667 2.84226 215.695L2.84226 215.748C3.20017 215.776 3.68441 215.874 4.29496 216.042L15.3481 219.137L15.3481 221.716L4.21075 224.58C3.83178 224.678 3.38264 224.752 2.86331 224.801L2.86331 224.843C3.21421 224.864 3.67739 224.945 4.25285 225.085L15.3481 227.769L15.3481 230.359Z" fill="#D0D0D0"/>
<path d="M300.222 378.099L300.222 373.762L287.253 373.762L287.253 371.257L300.222 371.257L300.222 366.93L302.348 366.93L302.348 378.099L300.222 378.099Z" fill="#D0D0D0"/>
<path d="M287.853 355.105L290.432 355.105C290.222 355.336 290.032 355.61 289.864 355.926C289.695 356.248 289.551 356.589 289.432 356.947C289.32 357.305 289.232 357.663 289.169 358.02C289.106 358.378 289.074 358.708 289.074 359.01C289.074 360.063 289.25 360.845 289.6 361.357C289.951 361.877 290.46 362.136 291.127 362.136C291.485 362.136 291.794 362.049 292.053 361.873C292.32 361.705 292.562 361.466 292.78 361.157C292.997 360.849 293.204 360.484 293.401 360.063C293.604 359.649 293.815 359.203 294.032 358.726C294.306 358.213 294.583 357.736 294.864 357.294C295.145 356.852 295.453 356.466 295.79 356.136C296.134 355.813 296.52 355.557 296.948 355.368C297.376 355.185 297.878 355.094 298.453 355.094C299.162 355.094 299.776 355.252 300.296 355.568C300.822 355.891 301.254 356.312 301.59 356.831C301.934 357.357 302.187 357.954 302.348 358.62C302.517 359.287 302.601 359.968 302.601 360.663C302.601 362.242 302.422 363.393 302.064 364.115L299.59 364.115C300.208 363.259 300.517 362.158 300.517 360.81C300.517 360.438 300.482 360.066 300.411 359.694C300.341 359.329 300.226 358.999 300.064 358.705C299.903 358.417 299.696 358.182 299.443 357.999C299.19 357.817 298.885 357.726 298.527 357.726C298.19 357.726 297.899 357.796 297.653 357.936C297.408 358.077 297.183 358.28 296.98 358.547C296.776 358.82 296.576 359.15 296.38 359.536C296.19 359.929 295.983 360.382 295.759 360.894C295.485 361.421 295.197 361.915 294.895 362.379C294.594 362.849 294.26 363.259 293.895 363.61C293.53 363.968 293.123 364.249 292.674 364.452C292.232 364.663 291.727 364.768 291.158 364.768C290.393 364.768 289.748 364.614 289.221 364.305C288.695 363.996 288.267 363.579 287.937 363.052C287.607 362.533 287.369 361.933 287.221 361.252C287.074 360.571 287 359.852 287 359.094C287 358.842 287.021 358.529 287.063 358.157C287.099 357.792 287.155 357.417 287.232 357.031C287.302 356.645 287.39 356.28 287.495 355.936C287.6 355.592 287.72 355.315 287.853 355.105Z" fill="#D0D0D0"/>
<path d="M287.253 352.637L287.253 349.89L291.095 348.532L291.095 342.594L287.253 341.289L287.253 338.552L302.348 344.205L302.348 347.026L287.253 352.637ZM293.137 347.868L299.159 345.774C299.355 345.71 299.671 345.644 300.106 345.574L300.106 345.531C299.706 345.468 299.39 345.398 299.159 345.321L293.137 343.247L293.137 347.868Z" fill="#D0D0D0"/>
<path d="M287.253 336.474L287.253 328L302.348 328L302.348 336.137L300.222 336.137L300.222 330.505L295.948 330.505L295.948 335.695L293.832 335.695L293.832 330.505L289.369 330.505L289.369 336.474L287.253 336.474Z" fill="#D0D0D0"/>
<path d="M146.253 573.241L146.253 570.726L152.8 570.726L152.8 563.62L146.253 563.62L146.253 561.115L161.348 561.115L161.348 563.62L155 563.62L155 570.726L161.348 570.726L161.348 573.241L146.253 573.241Z" fill="#D0D0D0"/>
<path d="M159.222 557.826L159.222 553.489L146.253 553.489L146.253 550.983L159.222 550.983L159.222 546.657L161.348 546.657L161.348 557.826L159.222 557.826Z" fill="#D0D0D0"/>
<path d="M152.358 543.516C148.119 543.516 146 541.509 146 537.494C146 533.649 148.039 531.726 152.116 531.726L161.348 531.726L161.348 534.231L152.632 534.231C149.67 534.231 148.19 535.382 148.19 537.684C148.19 539.902 149.618 541.01 152.474 541.01L161.348 541.01L161.348 543.516L152.358 543.516Z" fill="#D0D0D0"/>
<path d="M146 520.753C146 518.577 146.705 516.833 148.116 515.521C149.526 514.215 151.361 513.563 153.621 513.563C156.049 513.563 157.986 514.229 159.432 515.563C160.878 516.896 161.601 518.707 161.601 520.995C161.601 523.114 160.899 524.819 159.495 526.111C158.092 527.409 156.256 528.058 153.99 528.058C151.526 528.058 149.579 527.395 148.147 526.069C146.716 524.742 146 522.97 146 520.753ZM159.4 520.868C159.4 519.486 158.885 518.359 157.853 517.489C156.821 516.626 155.463 516.194 153.779 516.194C152.102 516.194 150.751 516.615 149.726 517.458C148.702 518.3 148.189 519.402 148.189 520.763C148.189 522.209 148.677 523.349 149.653 524.184C150.628 525.019 151.993 525.437 153.748 525.437C155.551 525.437 156.944 525.03 157.927 524.216C158.909 523.409 159.4 522.293 159.4 520.868Z" fill="#D0D0D0"/>
<path d="M146.852 501.011L149.432 501.011C149.221 501.242 149.032 501.516 148.863 501.832C148.695 502.154 148.551 502.495 148.432 502.853C148.319 503.211 148.231 503.569 148.168 503.926C148.105 504.284 148.074 504.614 148.074 504.916C148.074 505.969 148.249 506.751 148.6 507.263C148.951 507.783 149.46 508.042 150.126 508.042C150.484 508.042 150.793 507.955 151.053 507.779C151.319 507.611 151.561 507.372 151.779 507.063C151.997 506.755 152.204 506.39 152.4 505.969C152.604 505.555 152.814 505.109 153.032 504.632C153.305 504.119 153.583 503.642 153.863 503.2C154.144 502.758 154.453 502.372 154.79 502.042C155.134 501.719 155.52 501.463 155.948 501.274C156.376 501.091 156.878 501 157.453 501C158.162 501 158.776 501.158 159.295 501.474C159.822 501.797 160.253 502.218 160.59 502.737C160.934 503.263 161.187 503.86 161.348 504.526C161.516 505.193 161.601 505.874 161.601 506.569C161.601 508.148 161.422 509.299 161.064 510.022L158.59 510.022C159.207 509.165 159.516 508.064 159.516 506.716C159.516 506.344 159.481 505.972 159.411 505.6C159.341 505.235 159.225 504.905 159.064 504.611C158.902 504.323 158.695 504.088 158.443 503.905C158.19 503.723 157.885 503.632 157.527 503.632C157.19 503.632 156.899 503.702 156.653 503.842C156.407 503.983 156.183 504.186 155.979 504.453C155.776 504.727 155.576 505.056 155.379 505.442C155.19 505.835 154.983 506.288 154.758 506.8C154.484 507.327 154.197 507.821 153.895 508.285C153.593 508.755 153.26 509.165 152.895 509.516C152.53 509.874 152.123 510.155 151.674 510.358C151.232 510.569 150.726 510.674 150.158 510.674C149.393 510.674 148.747 510.52 148.221 510.211C147.695 509.902 147.267 509.485 146.937 508.958C146.607 508.439 146.368 507.839 146.221 507.158C146.073 506.477 146 505.758 146 505C146 504.748 146.021 504.435 146.063 504.063C146.098 503.698 146.154 503.323 146.231 502.937C146.302 502.551 146.389 502.186 146.495 501.842C146.6 501.498 146.719 501.221 146.852 501.011Z" fill="#D0D0D0"/>
<path d="M221.738 108.865H224.607L233.665 123.391V108.865H235.972V126.797H233.25L224.058 112.283V126.797H221.738V108.865ZM240.793 114.419V112.735C242.38 112.58 243.487 112.324 244.113 111.966C244.74 111.599 245.208 110.741 245.517 109.39H247.25V126.797H244.907V114.419H240.793Z" fill="black"/>
<path d="M159.024 117.624H161.893L170.951 132.15V117.624H173.258V135.556H170.536L161.344 121.042V135.556H159.024V117.624ZM176.468 135.556C176.549 134.051 176.858 132.74 177.396 131.625C177.941 130.511 178.999 129.497 180.569 128.586L182.913 127.231C183.963 126.621 184.699 126.1 185.123 125.668C185.79 124.993 186.124 124.22 186.124 123.349C186.124 122.332 185.818 121.526 185.208 120.932C184.598 120.33 183.784 120.029 182.767 120.029C181.261 120.029 180.219 120.598 179.642 121.738C179.332 122.348 179.161 123.194 179.129 124.277H176.895C176.919 122.755 177.2 121.514 177.737 120.554C178.689 118.861 180.37 118.015 182.779 118.015C184.781 118.015 186.242 118.556 187.161 119.638C188.089 120.721 188.553 121.925 188.553 123.251C188.553 124.651 188.06 125.847 187.076 126.84C186.506 127.418 185.485 128.118 184.012 128.94L182.339 129.868C181.542 130.307 180.915 130.726 180.459 131.125C179.646 131.833 179.133 132.618 178.921 133.481H188.467V135.556H176.468Z" fill="black"/>
<path d="M145.36 161.418H148.229L157.287 175.945V161.418H159.594V179.351H156.872L147.68 164.836V179.351H145.36V161.418ZM168.517 179.827C166.45 179.827 164.948 179.261 164.012 178.13C163.084 176.991 162.621 175.607 162.621 173.979H164.916C165.013 175.111 165.225 175.933 165.55 176.445C166.12 177.365 167.149 177.825 168.639 177.825C169.794 177.825 170.722 177.515 171.422 176.897C172.122 176.278 172.472 175.481 172.472 174.504C172.472 173.3 172.101 172.458 171.361 171.978C170.628 171.497 169.607 171.257 168.297 171.257C168.15 171.257 168 171.261 167.845 171.27C167.699 171.27 167.548 171.274 167.394 171.282V169.341C167.621 169.365 167.813 169.382 167.967 169.39C168.122 169.398 168.289 169.402 168.468 169.402C169.29 169.402 169.965 169.272 170.494 169.011C171.422 168.556 171.886 167.742 171.886 166.57C171.886 165.699 171.576 165.028 170.958 164.556C170.34 164.084 169.619 163.848 168.797 163.848C167.333 163.848 166.319 164.336 165.758 165.312C165.449 165.85 165.274 166.615 165.233 167.607H163.06C163.06 166.305 163.32 165.199 163.841 164.287C164.736 162.66 166.311 161.846 168.565 161.846C170.348 161.846 171.727 162.244 172.704 163.042C173.68 163.831 174.168 164.979 174.168 166.484C174.168 167.559 173.88 168.429 173.302 169.097C172.944 169.512 172.48 169.837 171.91 170.073C172.83 170.326 173.546 170.814 174.059 171.538C174.579 172.254 174.84 173.133 174.84 174.175C174.84 175.843 174.291 177.202 173.192 178.252C172.093 179.302 170.535 179.827 168.517 179.827Z" fill="black"/>
<path d="M77.8745 255.314L81.2559 269.901L85.3086 255.314H87.9453L91.998 269.901L95.3794 255.314H98.0405L93.3286 273.246H90.7773L86.6392 258.378L82.4766 273.246H79.9253L75.2378 255.314H77.8745ZM107.159 267.057V259.135L101.556 267.057H107.159ZM107.195 273.246V268.974H99.5293V266.825L107.537 255.717H109.393V267.057H111.968V268.974H109.393V273.246H107.195Z" fill="black"/>
<path d="M225.824 285.094H238.897V287.292H228.192V292.736H238.092V294.811H228.192V300.89H239.081V303.026H225.824V285.094ZM244.183 298.803C244.248 300.015 244.716 300.854 245.586 301.317C246.034 301.562 246.539 301.684 247.1 301.684C248.15 301.684 249.045 301.248 249.786 300.377C250.526 299.499 251.051 297.72 251.36 295.043C250.872 295.816 250.266 296.361 249.542 296.679C248.825 296.988 248.052 297.143 247.222 297.143C245.538 297.143 244.203 296.618 243.218 295.568C242.242 294.518 241.753 293.167 241.753 291.515C241.753 289.928 242.238 288.533 243.206 287.328C244.174 286.124 245.603 285.521 247.491 285.521C250.038 285.521 251.796 286.669 252.764 288.964C253.301 290.225 253.57 291.804 253.57 293.7C253.57 295.84 253.248 297.737 252.605 299.389C251.539 302.139 249.733 303.515 247.186 303.515C245.477 303.515 244.179 303.067 243.292 302.172C242.404 301.277 241.961 300.154 241.961 298.803H244.183ZM247.515 295.214C248.386 295.214 249.179 294.929 249.896 294.359C250.62 293.782 250.982 292.777 250.982 291.344C250.982 290.058 250.656 289.102 250.005 288.476C249.362 287.841 248.541 287.523 247.54 287.523C246.465 287.523 245.611 287.886 244.976 288.61C244.349 289.326 244.036 290.286 244.036 291.491C244.036 292.63 244.313 293.537 244.866 294.213C245.42 294.88 246.303 295.214 247.515 295.214Z" fill="white"/>
<path d="M209.357 358.669H222.431V360.866H211.725V366.311H221.625V368.386H211.725V374.465H222.614V376.601H209.357V358.669ZM231.195 366.445C232.163 366.445 232.92 366.176 233.465 365.639C234.011 365.094 234.283 364.447 234.283 363.698C234.283 363.047 234.023 362.449 233.502 361.904C232.981 361.359 232.188 361.086 231.122 361.086C230.064 361.086 229.299 361.359 228.827 361.904C228.355 362.449 228.119 363.088 228.119 363.82C228.119 364.642 228.424 365.285 229.034 365.749C229.645 366.213 230.365 366.445 231.195 366.445ZM231.329 375.1C232.346 375.1 233.189 374.827 233.856 374.282C234.531 373.728 234.869 372.907 234.869 371.816C234.869 370.685 234.523 369.826 233.832 369.24C233.14 368.654 232.253 368.361 231.17 368.361C230.121 368.361 229.262 368.663 228.595 369.265C227.936 369.859 227.606 370.685 227.606 371.743C227.606 372.654 227.907 373.444 228.509 374.111C229.12 374.77 230.06 375.1 231.329 375.1ZM228.204 367.287C227.594 367.027 227.118 366.722 226.776 366.372C226.133 365.721 225.812 364.874 225.812 363.833C225.812 362.531 226.284 361.412 227.228 360.476C228.172 359.54 229.51 359.072 231.244 359.072C232.92 359.072 234.234 359.515 235.187 360.402C236.139 361.281 236.615 362.311 236.615 363.491C236.615 364.581 236.338 365.464 235.785 366.14C235.475 366.522 234.995 366.897 234.344 367.263C235.069 367.596 235.638 367.979 236.053 368.41C236.826 369.224 237.213 370.282 237.213 371.584C237.213 373.122 236.696 374.428 235.663 375.503C234.629 376.569 233.168 377.102 231.28 377.102C229.579 377.102 228.139 376.642 226.959 375.722C225.787 374.795 225.201 373.452 225.201 371.694C225.201 370.66 225.453 369.769 225.958 369.021C226.463 368.264 227.211 367.686 228.204 367.287Z" fill="black"/>
<path d="M57.9043 300.16L61.2856 314.747L65.3384 300.16H67.9751L72.0278 314.747L75.4092 300.16H78.0703L73.3584 318.092H70.8071L66.6689 303.224L62.5063 318.092H59.9551L55.2676 300.16H57.9043ZM82.0127 313.636C82.1592 314.889 82.741 315.756 83.7583 316.236C84.2791 316.48 84.8813 316.603 85.5649 316.603C86.867 316.603 87.8314 316.188 88.458 315.357C89.0846 314.527 89.3979 313.608 89.3979 312.599C89.3979 311.378 89.0236 310.434 88.2749 309.767C87.5343 309.099 86.6432 308.766 85.6016 308.766C84.8447 308.766 84.1937 308.912 83.6484 309.205C83.1113 309.498 82.6515 309.905 82.269 310.426L80.3647 310.316L81.6953 300.904H90.7773V303.028H83.3433L82.5986 307.887C83.0055 307.577 83.3921 307.346 83.7583 307.191C84.4093 306.922 85.1621 306.788 86.0166 306.788C87.6198 306.788 88.9788 307.305 90.0938 308.338C91.2087 309.372 91.7661 310.682 91.7661 312.269C91.7661 313.921 91.2534 315.378 90.228 316.639C89.2108 317.901 87.5832 318.531 85.3452 318.531C83.9211 318.531 82.6597 318.132 81.561 317.335C80.4705 316.529 79.8602 315.296 79.73 313.636H82.0127Z" fill="black"/>
<path d="M47.4463 420.916C47.5033 421.933 47.7433 422.759 48.1665 423.394C48.9722 424.582 50.3923 425.176 52.4268 425.176C53.3382 425.176 54.1683 425.046 54.917 424.786C56.3656 424.281 57.0898 423.378 57.0898 422.076C57.0898 421.099 56.7847 420.403 56.1743 419.988C55.5558 419.581 54.5874 419.227 53.269 418.926L50.8398 418.377C49.2529 418.019 48.1299 417.624 47.4707 417.193C46.3314 416.444 45.7617 415.325 45.7617 413.836C45.7617 412.225 46.3192 410.902 47.4341 409.869C48.549 408.835 50.1278 408.318 52.1704 408.318C54.0503 408.318 55.6453 408.774 56.9556 409.686C58.2739 410.589 58.9331 412.037 58.9331 414.031H56.6504C56.5283 413.071 56.2679 412.334 55.8691 411.822C55.1286 410.886 53.8713 410.418 52.0972 410.418C50.6649 410.418 49.6354 410.719 49.0088 411.321C48.3822 411.924 48.0688 412.623 48.0688 413.421C48.0688 414.3 48.4351 414.943 49.1675 415.35C49.6476 415.61 50.734 415.936 52.4268 416.326L54.9414 416.9C56.154 417.177 57.0898 417.555 57.749 418.035C58.8883 418.873 59.458 420.09 59.458 421.685C59.458 423.671 58.7337 425.091 57.2852 425.945C55.8447 426.8 54.1683 427.227 52.2559 427.227C50.026 427.227 48.2804 426.657 47.019 425.518C45.7576 424.387 45.1392 422.853 45.1636 420.916H47.4463ZM68.4419 409.148C70.395 409.148 71.7541 409.657 72.519 410.674C73.2922 411.683 73.6787 412.725 73.6787 413.799H71.5059C71.3757 413.108 71.1681 412.566 70.8833 412.176C70.3543 411.443 69.5527 411.077 68.4785 411.077C67.2497 411.077 66.2731 411.647 65.5488 412.786C64.8245 413.917 64.4217 415.541 64.3403 417.657C64.8449 416.916 65.4797 416.363 66.2446 415.997C66.9445 415.671 67.7257 415.508 68.5884 415.508C70.0532 415.508 71.3309 415.976 72.4214 416.912C73.5119 417.848 74.0571 419.244 74.0571 421.099C74.0571 422.686 73.5404 424.094 72.5068 425.323C71.4733 426.543 70.0003 427.154 68.0879 427.154C66.4521 427.154 65.0402 426.535 63.8521 425.298C62.6639 424.053 62.0698 421.962 62.0698 419.024C62.0698 416.851 62.3343 415.008 62.8633 413.494C63.8805 410.597 65.7401 409.148 68.4419 409.148ZM68.2832 425.201C69.4388 425.201 70.3014 424.814 70.8711 424.041C71.4489 423.26 71.7378 422.34 71.7378 421.282C71.7378 420.387 71.4814 419.537 70.9688 418.731C70.4561 417.917 69.5243 417.51 68.1733 417.51C67.2293 417.51 66.3993 417.824 65.6831 418.45C64.9751 419.077 64.6211 420.021 64.6211 421.282C64.6211 422.389 64.9425 423.321 65.5854 424.078C66.2365 424.826 67.1357 425.201 68.2832 425.201Z" fill="black"/>
<path d="M77.5771 493.79C77.6341 494.807 77.8742 495.633 78.2974 496.268C79.103 497.456 80.5231 498.05 82.5576 498.05C83.4691 498.05 84.2992 497.92 85.0479 497.659C86.4964 497.155 87.2207 496.252 87.2207 494.949C87.2207 493.973 86.9155 493.277 86.3052 492.862C85.6867 492.455 84.7183 492.101 83.3999 491.8L80.9707 491.251C79.3838 490.893 78.2607 490.498 77.6016 490.067C76.4622 489.318 75.8926 488.199 75.8926 486.71C75.8926 485.098 76.45 483.776 77.5649 482.742C78.6799 481.709 80.2586 481.192 82.3013 481.192C84.1812 481.192 85.7762 481.648 87.0864 482.559C88.4048 483.463 89.064 484.911 89.064 486.905H86.7812C86.6592 485.945 86.3988 485.208 86 484.696C85.2594 483.76 84.0021 483.292 82.228 483.292C80.7957 483.292 79.7663 483.593 79.1396 484.195C78.513 484.797 78.1997 485.497 78.1997 486.295C78.1997 487.174 78.5659 487.816 79.2983 488.223C79.7785 488.484 80.8649 488.809 82.5576 489.2L85.0723 489.774C86.2848 490.05 87.2207 490.429 87.8799 490.909C89.0192 491.747 89.5889 492.964 89.5889 494.559C89.5889 496.545 88.8646 497.965 87.416 498.819C85.9756 499.674 84.2992 500.101 82.3867 500.101C80.1569 500.101 78.4113 499.531 77.1499 498.392C75.8885 497.261 75.27 495.727 75.2944 493.79H77.5771ZM104.334 482.388V484.305C103.773 484.85 103.024 485.798 102.088 487.149C101.161 488.5 100.339 489.957 99.6226 491.519C98.9146 493.041 98.3774 494.429 98.0112 495.682C97.7752 496.488 97.4701 497.786 97.0957 499.576H94.6665C95.2199 496.239 96.4406 492.919 98.3286 489.615C99.4435 487.678 100.615 486.006 101.844 484.598H92.1763V482.388H104.334Z" fill="black"/>
<g clip-path="url(#clip10_952_572)">
<path d="M276.34 209.357C276.373 210.15 276.13 210.857 275.766 211.503C275.445 212.069 275.033 212.587 274.638 213.075C273.731 214.185 272.584 215.154 271.262 216.005C270.27 216.643 269.484 217.142 267.405 216.816C265.614 216.537 263.569 215.805 261.652 214.909C259.212 213.769 259.159 212.121 259.179 211.092C259.191 210.219 259.507 209.415 259.812 208.64C259.923 208.365 260.03 208.09 260.123 207.815C260.93 205.441 262.122 203.142 264.25 201.495C265.19 200.765 266.165 200.012 267.512 199.8C269.886 199.435 272.884 201.178 273.978 202.979C275.335 205.216 276.263 207.465 276.341 209.357H276.34Z" fill="black"/>
</g>
<g clip-path="url(#clip11_952_572)">
<path d="M258.474 246.232C258.493 246.684 258.354 247.089 258.145 247.458C257.962 247.781 257.727 248.078 257.501 248.356C256.983 248.991 256.327 249.544 255.571 250.031C255.005 250.395 254.555 250.68 253.367 250.494C252.344 250.334 251.175 249.916 250.079 249.404C248.686 248.753 248.655 247.811 248.666 247.224C248.673 246.725 248.853 246.265 249.028 245.822C249.091 245.666 249.153 245.508 249.206 245.352C249.667 243.995 250.349 242.681 251.565 241.739C252.102 241.322 252.659 240.891 253.428 240.771C254.785 240.563 256.498 241.558 257.123 242.588C257.899 243.866 258.429 245.151 258.473 246.232L258.474 246.232Z" fill="black"/>
</g>
<g clip-path="url(#clip12_952_572)">
<path d="M208.722 429.452C208.753 430.163 208.525 430.799 208.183 431.379C207.883 431.887 207.495 432.353 207.124 432.79C206.273 433.787 205.195 434.656 203.955 435.421C203.024 435.994 202.286 436.442 200.334 436.148C198.653 435.898 196.733 435.24 194.933 434.436C192.643 433.413 192.592 431.934 192.61 431.009C192.622 430.225 192.918 429.503 193.206 428.806C193.309 428.559 193.41 428.313 193.498 428.066C194.256 425.933 195.375 423.869 197.372 422.39C198.256 421.736 199.17 421.059 200.434 420.869C202.664 420.542 205.477 422.107 206.506 423.724C207.779 425.732 208.651 427.752 208.723 429.451L208.722 429.452Z" fill="black"/>
</g>
<g clip-path="url(#clip13_952_572)">
<path d="M191.206 460.103C191.224 460.54 191.09 460.93 190.889 461.286C190.713 461.598 190.486 461.884 190.268 462.152C189.769 462.764 189.136 463.297 188.407 463.767C187.861 464.118 187.427 464.393 186.282 464.213C185.295 464.059 184.168 463.656 183.111 463.162C181.767 462.534 181.738 461.626 181.748 461.06C181.755 460.579 181.929 460.135 182.098 459.708C182.158 459.557 182.218 459.406 182.269 459.255C182.714 457.946 183.371 456.679 184.544 455.771C185.062 455.369 185.599 454.953 186.34 454.837C187.649 454.636 189.3 455.597 189.904 456.589C190.651 457.822 191.163 459.061 191.205 460.104L191.206 460.103Z" fill="black"/>
</g>
<defs>
<clipPath id="clip0_952_572">
<rect width="62.7138" height="42.7435" fill="white" transform="translate(204.871 96.7461)"/>
</clipPath>
<clipPath id="clip1_952_572">
<rect width="9.45962" height="9.45962" fill="white" transform="translate(254.271 160.861)"/>
</clipPath>
<clipPath id="clip2_952_572">
<rect width="62.7138" height="42.7435" fill="white" transform="translate(142.157 105.505)"/>
</clipPath>
<clipPath id="clip3_952_572">
<rect width="62.7138" height="42.7435" fill="white" transform="translate(128.493 149.3)"/>
</clipPath>
<clipPath id="clip4_952_572">
<rect width="62.7138" height="42.7435" fill="white" transform="translate(62.626 243.195)"/>
</clipPath>
<clipPath id="clip5_952_572">
<rect width="62.7138" height="42.7435" fill="white" transform="translate(208.725 272.975)"/>
</clipPath>
<clipPath id="clip6_952_572">
<rect width="62.7138" height="42.7435" fill="white" transform="translate(192.258 346.55)"/>
</clipPath>
<clipPath id="clip7_952_572">
<rect width="62.7138" height="42.7435" fill="white" transform="translate(43.0059 288.041)"/>
</clipPath>
<clipPath id="clip8_952_572">
<rect width="62.7138" height="42.7435" fill="white" transform="translate(28.9922 396.651)"/>
</clipPath>
<clipPath id="clip9_952_572">
<rect width="62.7138" height="42.7435" fill="white" transform="translate(59.1226 469.525)"/>
</clipPath>
<clipPath id="clip10_952_572">
<rect width="17.1675" height="17.1675" fill="white" transform="translate(259.176 199.751)"/>
</clipPath>
<clipPath id="clip11_952_572">
<rect width="9.80998" height="9.80998" fill="white" transform="translate(248.665 240.742)"/>
</clipPath>
<clipPath id="clip12_952_572">
<rect width="16.1164" height="15.4157" fill="white" transform="translate(192.608 420.825)"/>
</clipPath>
<clipPath id="clip13_952_572">
<rect width="9.45962" height="9.45962" fill="white" transform="translate(181.747 454.81)"/>
</clipPath>
</defs>
</svg>
