<?xml version="1.0" encoding="UTF-8"?>
<svg id="_圖層_2" data-name="圖層 2" xmlns="http://www.w3.org/2000/svg" viewBox="0 0 391.43 146.04">
  <defs>
    <style>
      .cls-1 {
        fill: #231815;
      }
    </style>
  </defs>
  <g id="_中文" data-name="中文">
    <g>
      <g>
        <path class="cls-1" d="M44.97,2.91c-3.35,9.11-8.21,18.7-12.71,25.16-.84,1.21.44,2.64,1.44,2.09,8.63-4.96,16.84-15.27,18.98-23.9,1.57-6.24-5.78-8.63-7.71-3.35Z"/>
        <path class="cls-1" d="M85.73,26.23c-1.1,0-2.11.43-2.88,1.21-.41.41-.75.9-1.02,1.42-.4.75-.56,1.55-1.12,2.21-.4.47-.87.89-1.36,1.26-1.48,1.09-3.28,1.65-5.12,1.65H15.29c-2.58,0-4.85-1.18-6.54-3.07-.47-.53-.63-1.15-.93-1.78-.27-.56-.6-1.09-1.01-1.54-.79-.86-1.85-1.35-3.02-1.35-2.22,0-3.79,1.68-3.79,4.23v110.22c0,2.47,1.57,4.23,3.79,4.23,2.85,0,4-2.49,4.13-4.8.14-2.18.29-3.91.49-5.32.16-1.16.64-2.24,1.43-3.11,1.04-1.15,2.78-2.42,5.38-2.42.19,0,.34,0,.52-.02h58.07c.17.02.33.02.52.02,1.93,0,3.74.77,5.1,2.13.32.32.61.66.87,1.02.33.46.68,1.29.76,1.85.06.42.12.85.16,1.27.14,1.23.24,2.47.33,3.71.01.19.03.38.04.57.13,2.32,1.28,4.71,4.13,4.71,2.22,0,3.79-1.68,3.79-4.15V30.46c0-2.55-1.57-4.23-3.79-4.23ZM81.8,119.57c0,3.12-1.86,5.19-4.65,5.19H12.36c-2.79,0-4.65-2.07-4.65-5.19v-32.45c0-3.1,1.86-5.19,4.65-5.19h64.79c2.79,0,4.65,2.09,4.65,5.19v32.45ZM81.8,72.27c0,3.12-1.86,5.19-4.65,5.19H12.36c-2.79,0-4.65-2.07-4.65-5.19v-28.61c0-3.12,1.86-5.2,4.65-5.2h64.79c2.79,0,4.65,2.09,4.65,5.2v28.61Z"/>
        <path class="cls-1" d="M199.5,4.49c-3.79,19.58-8.29,35.48-18.77,52.66-.86,1.44.86,2.97,1.93,1.84,14.27-15.02,20.76-30.12,24.11-52.18.94-5.99-6.2-7.1-7.27-2.32ZM184.73,125.56c-1.86-7.19-8.15-15.98-14.14-19.5-.86-.48-1.93.55-1.28,1.53,3.85,5.91,6.28,12.53,8.71,20.53,1.44,5.28,8.29,3.67,6.72-2.56ZM171.66,130.52c-1-7.98-5.99-17.59-12.28-22.69-.84-.63-2.07.33-1.49,1.44,3.14,6.56,5.36,15.35,6.64,22.54,1,5.76,7.85,4.63,7.14-1.28ZM171.95,14.33c-1.78,0-3.06,1.19-4.42,2.87-1.07,1.28-1.93,1.61-3.43,1.61h-7.5c-1.07,0-1.86.88-1.86,2.07s.78,2.09,1.86,2.09h5.65c2.43,0,3.35,1.59,2.2,4.08-2.07,4.4-4.63,8.63-7.48,12.3-.78.96.13,2.47,1.28,1.91,8.29-4,15.19-13.18,17.2-21.66.78-3.35-1.36-5.26-3.5-5.26ZM148.6,108.95c-.71-.98-2.14-.25-1.78,1.03,2.14,8,2.64,16.46,3.06,24.78.44,5.91,7.42,5.59,7.14-.17-.27-9.91-3.27-18.94-8.42-25.64ZM140.47,109.91c-.13-1.44-1.99-1.61-2.28-.17-1.86,9.11-6.01,20.15-12,27.17-3.71,4.48,1.28,9.59,5.15,5.91,7.42-7.83,10.12-22.37,9.13-32.91Z"/>
        <path class="cls-1" d="M248.24,108.63c-.13-1.44-2.14-1.44-2.28,0-1.86,17.89-6.85,23.65-18.64,24.21-4.34.25-10.62.25-15.77.08-9.28-.31-13.99-5.11-13.99-17.34v-20.93c0-2.72,1.65-4.55,4.08-4.55h9.49c3.69.17,5.36,2.93,5.55,3.27l.02.04c1.09,2.35,2.39,3.41,4.13,3.41,2.14,0,3.58-1.68,3.58-4.08v-39.72c0-2.39-1.51-4.15-3.58-4.15-1.44,0-2.49.69-3.31,1.76-.09.11-.36.52-.44.61-.86,1.19-3.1,3.54-7.12,3.54h-5.24c-4.02,0-6.26-2.35-7.12-3.54-.08-.1-.38-.55-.44-.61-.82-1.07-1.88-1.76-3.31-1.76-2.07,0-3.56,1.76-3.56,4.15v63.78c0,16.3,8.71,23.33,20.26,23.98,6.14.15,12.42.15,17.83,0,16.28-.48,22.27-11.67,19.84-32.13ZM197.57,63.64c0-2.72,1.65-4.55,4.08-4.55h11.4c2.43,0,4.08,1.84,4.08,4.55v17.57c0,2.72-1.65,4.55-4.08,4.55h-11.4c-2.43,0-4.08-1.84-4.08-4.55v-17.57Z"/>
        <path class="cls-1" d="M242.25,29.03v2.01l-.86,52.33c-.29,16.3-7.98,27.65-25.12,23.65-1.13-.15-1.13-2.24,0-2.39,13.28-1.91,17.57-7.35,17.85-23.98l.71-40.99c.08-2.72-1.57-4.55-4-4.55h-26.54c-1.07,0-1.86-.96-1.86-2.24,0-1.21.78-2.09,1.86-2.09h23.54c3.67,0,5.86-1.99,6.87-3.21.23-.29.51-.71.69-.94.88-1.01,1.97-1.68,3.37-1.68,2.07.08,3.58,1.84,3.5,4.08Z"/>
        <path class="cls-1" d="M176.29,38.61c-1.3,0-2.32.65-3.12,1.63-.08.08-.44.61-.61.82-.94,1.19-2.98,3.16-6.47,3.31h-22.2c-.71,0-1.42-.33-1.7-1.11-.52-1.21-1.15-2.09-1.57-2.97-.36-.8-.29-1.68.21-2.32,7.98-9.18,13.34-20.63,16.05-31.48,1.28-5.43-5.7-7.85-7.29-2.24-4.42,15.65-11.19,30.44-25.33,44.34-1.13,1.13-.06,2.89,1.07,2.24,2.01-1.11,3.87-2.32,5.64-3.67,2.07-1.59,3.35-.78,3.35,1.93v51.86c0,2.39,1.44,4,3.43,4s3.43-1.53,4.08-3.85c.02-.08.06-.19.08-.23.12-.3,1.97-3.27,5.93-3.27h18.62c3.69,0,5.49,2.53,5.89,3.18.05.08.08.13.08.13,1.05,2.09,2.26,3.08,3.87,3.08,2.01,0,3.44-1.61,3.44-3.92v-57.46c0-2.24-1.51-4-3.44-4ZM153.6,89.61c0,2.32-1.34,3.83-3.43,3.83h-5.42c-2.07,0-3.43-1.51-3.43-3.83v-12.95c0-2.32,1.36-3.83,3.43-3.83h5.42c2.09,0,3.43,1.51,3.43,3.83v12.95ZM153.6,64.83c0,2.32-1.34,3.85-3.43,3.85h-5.42c-2.07,0-3.43-1.53-3.43-3.85v-12.46c0-2.32,1.36-3.85,3.43-3.85h5.42c2.09,0,3.43,1.53,3.43,3.85v12.46ZM172.73,89.61c0,2.32-1.36,3.83-3.43,3.83h-5.57c-2.07,0-3.42-1.51-3.42-3.83v-12.95c0-2.32,1.36-3.83,3.42-3.83h5.57c2.07,0,3.43,1.51,3.43,3.83v12.95ZM172.73,64.83c0,2.32-1.36,3.85-3.43,3.85h-5.57c-2.07,0-3.42-1.53-3.42-3.85v-12.46c0-2.32,1.36-3.85,3.42-3.85h5.57c2.07,0,3.43,1.53,3.43,3.85v12.46Z"/>
      </g>
      <g>
        <path class="cls-1" d="M352.44,37.19c-2.43-7.19-9.85-12.32-15.4-14.54-.94-.4-1.72.78-1.15,1.74,4.57,6.24,7.14,11.35,9.28,15.82,2.85,5.91,8.99,1.91,7.27-3.02Z"/>
        <path class="cls-1" d="M310.62,94.56c3.21-1.19,6.35-2.47,9.51-3.83,1.99-.88,4.77-1.68,6.98-1.84,9.28-.88,25.12-2.01,43.32-2.01,2.56,0,2.72-4.15-.13-4.15-12,0-22.92.48-31.63,1.03-3.35.25-3.64-.71-.63-2.47,12.92-7.92,23.77-16.93,30.12-25.26,2.72-4-2.14-8.96-5.28-5.11-12,14.06-29.7,27.32-54.38,36.43-4.15,1.45-2.14,8.8,2.12,7.19Z"/>
        <path class="cls-1" d="M359.24,46.86c9.7-4.8,16.92-11.6,19.9-22.29,1.44-5.61-4.99-7.85-7.14-2.89-4.42,11.04-6.7,14.87-13.83,23.19-.94,1.03.06,2.47,1.07,1.99Z"/>
        <path class="cls-1" d="M315.9,69c1.07-.57,2.22-1.21,3.29-1.76,1.57-.96,3.79-1.61,5.64-1.76l19.61-1.44c2.43-.15,2.14-4.32-.29-4.15l-10.56.78c-2.77.17-3.14-.78-.78-2.55,4.73-3.67,8.15-6.96,9.51-8.63,3.14-3.67-1.72-8.96-4.86-5.61-4.71,5.13-14.43,12.48-24.42,18.06-4.29,2.41-1,8.96,2.85,7.04Z"/>
        <path class="cls-1" d="M328.05,39.91c-2.14-6.72-9.43-12.48-15.14-14.72-.86-.33-1.86.8-1.15,1.91,4.57,6.09,6.43,10.39,9.28,16.3,2.72,5.43,8.84,2.24,7-3.5Z"/>
        <path class="cls-1" d="M369.51,70.28c-1.15-.57-1.86,1.03-1.22,1.91,4.29,5.91,7.29,11.98,10.28,19.98,2.01,5.28,8.44,2.72,7-2.87-2.43-9.43-9.36-15.82-16.05-19.02Z"/>
        <path class="cls-1" d="M374.18,109.76c3.67.13,7.21.5,10.81,1.05,0,0,1.36.21,1.44.21,0,0,.36.06.54.06,1.32,0,2.35-1.11,2.55-2.81.04-.25.06-.48.06-.75,0-.23-.02-.46-.06-.67-.02-.13-.04-.27-.08-.38-.02-.13-.06-.27-.1-.38-.31-.92-.88-1.57-1.61-1.82-.1-.04-.19-.08-.29-.1-.15-.04-.31-.06-.48-.06s-.54.04-.54.04c-.75.11-1.47.23-2.2.33-3.48.54-6.91.86-10.47.96h-23.88c-2.22,0-3.29-1.59-2.64-4,.36-1.84.71-3.67.92-5.59.73-6.39-6.56-7.52-7.56-1.91-.42,2.47-1,4.88-1.65,7.19-.78,2.62-2.98,4.31-5.41,4.31h-32.05c-1.07,0-1.86.88-1.86,2.09,0,1.28.78,2.24,1.86,2.24h30.33c2.43,0,3.29,1.59,2.14,3.98-8.06,15.12-21.34,24.55-37.18,29.74-1.57.48-1.15,2.72.29,2.56,18.91-2.41,37.05-13.59,45.89-32.13,1.36-2.64,3.64-4.15,5.86-4.15h25.37Z"/>
        <path class="cls-1" d="M306.9,21.04c25.12.63,55.4-2.24,74.38-10.54,4.99-2.09,2.43-9.91-2.72-7.85-17.26,7.19-48.24,13.03-71.8,15.67-1.57.15-1.28,2.72.13,2.72Z"/>
        <path class="cls-1" d="M285.93,68.67c3.27,4.63,9.57.15,6.43-5.76-4.44-8.63-14.14-15.17-24.42-18.22-1.28-.4-1.78,1.36-1,2.09,6.7,5.74,13.7,13.74,18.98,21.89Z"/>
        <path class="cls-1" d="M297.07,80.02c-5.28,20.15-15,37.89-27.27,50.82-4.29,4.15.42,11.19,4.57,7.83,13.13-11.83,23.61-33.39,25.05-58.02.08-1.74-2.01-2.07-2.35-.63Z"/>
        <path class="cls-1" d="M388,135.17c-13.15-3.2-28.13-9.11-39.69-21.26-1.15-1.13-2.35.33-1.72,1.59,8.42,16.95,24.7,25.74,39.55,28.93,5.99,1.28,7.27-7.98,1.86-9.26Z"/>
        <path class="cls-1" d="M293.78,28.87c3.29,4.96,9.57.48,6.56-5.59-4.55-8.63-14.41-15.5-24.68-18.39-1.28-.31-1.8,1.53-.86,2.24,6.85,5.61,13.7,13.76,18.98,21.74Z"/>
      </g>
    </g>
  </g>
</svg>