<?xml version="1.0" encoding="UTF-8"?>
<svg id="_圖層_1" data-name="圖層 1" xmlns="http://www.w3.org/2000/svg" viewBox="0 0 174.98 57.67">
  <defs>
    <style>
      .cls-1 {
        fill: #231815;
      }
    </style>
  </defs>
  <path class="cls-1" d="M12.97,12.47c.16,0,.32-.04.48-.13,3.36-1.93,6.52-5.92,7.35-9.27.39-1.55-.43-2.67-1.45-2.98-.89-.28-2.08.04-2.57,1.38-1.22,3.31-3,6.85-4.66,9.23-.31.44-.27,1.02.08,1.41.21.23.48.35.76.35Z"/>
  <path class="cls-1" d="M32.52,9.77c-.56,0-1.1.22-1.5.63-.18.18-.35.41-.48.67-.06.12-.11.24-.16.36-.06.15-.11.27-.18.36-.11.13-.25.26-.4.37-.44.32-.99.5-1.55.5H6.29c-.95,0-1.6-.51-1.99-.94-.06-.07-.1-.17-.15-.29-.03-.08-.06-.15-.1-.23-.13-.28-.29-.52-.48-.72-.41-.45-.97-.7-1.57-.7-1.17,0-2.01.91-2.01,2.17v41.04c0,1.26.85,2.17,2.01,2.17s2.06-.92,2.14-2.35c.06-.85.11-1.46.18-1.94.04-.32.18-.61.38-.83.43-.47.95-.71,1.56-.71.09,0,.17,0,.19,0h21.56c.09,0,.16,0,.26,0,.55,0,1.08.22,1.47.62.1.1.18.2.26.31.07.1.16.31.18.42.02.15.04.3.06.46.05.45.09.9.12,1.36v.2c.1,1.41.94,2.32,2.15,2.32s2.01-.9,2.01-2.15V11.94c0-1.26-.85-2.17-2.01-2.17ZM30.46,45.12c0,.83-.42,1.33-1.13,1.33H5.2c-.71,0-1.13-.5-1.13-1.33v-12.08c0-.64.3-1.33,1.13-1.33h24.12c.83,0,1.13.69,1.13,1.33v12.08ZM30.46,27.51c0,.83-.42,1.33-1.13,1.33H5.2c-.71,0-1.13-.5-1.13-1.33v-10.65c0-.65.3-1.34,1.13-1.34h24.12c.83,0,1.13.69,1.13,1.34v10.65Z"/>
  <path class="cls-1" d="M83.81,47.2c-.75-2.89-3.18-6.24-5.55-7.63-.39-.22-.88-.13-1.18.2-.31.34-.35.83-.09,1.22,1.39,2.14,2.27,4.54,3.17,7.47.3,1.12,1.12,1.63,1.9,1.63.15,0,.31-.02.45-.06.94-.25,1.69-1.3,1.31-2.83,0,0,0,0,0,0Z"/>
  <path class="cls-1" d="M66.37,40.49c-.53-.02-.95.32-1.05.85-.62,3.03-2.08,7.2-4.34,9.85-.95,1.15-.71,2.45.03,3.13.33.31.79.51,1.3.51s1-.19,1.49-.65c2.97-3.14,3.93-8.79,3.56-12.72-.05-.54-.46-.95-.98-.98Z"/>
  <path class="cls-1" d="M69.06,40.49c-.44.22-.66.72-.52,1.21.81,3.04.98,6.4,1.12,9.12.11,1.43,1.06,2.15,1.99,2.15.04,0,.07,0,.11,0,.93-.06,1.83-.86,1.76-2.28-.1-3.78-1.26-7.29-3.25-9.89-.29-.39-.78-.52-1.21-.31Z"/>
  <path class="cls-1" d="M78.96,49.12c-.4-3.19-2.41-6.91-4.81-8.85-.36-.28-.87-.26-1.22.04-.37.31-.46.81-.24,1.23.97,2.02,1.85,5.03,2.42,8.24.22,1.29,1.12,1.91,1.96,1.91.08,0,.17,0,.25-.02.94-.14,1.81-1.05,1.63-2.54,0,0,0,0,0,0Z"/>
  <path class="cls-1" d="M88.33,19.07s0,0,0,0c0,0,0,0,0,0,0,0,0,0,0,0Z"/>
  <path class="cls-1" d="M106.46,40.04c-.54,0-.97.4-1.02.94-.72,6.94-2.71,8.3-6.38,8.48-1.49.08-3.77.1-5.82.03-3.29-.11-4.63-1.81-4.63-5.86v-7.79c0-.53.24-1.1.92-1.1h3.51c1.08.05,1.55.88,1.56.88.5,1.09,1.19,1.62,2.08,1.62,1.12,0,1.93-.89,1.93-2.12v-14.79c0-1.22-.83-2.15-1.93-2.15-.68,0-1.26.3-1.7.88-.02.03-.07.1-.12.16l-.07.09c-.23.32-.91,1.07-2.17,1.07h-1.95c-1.25,0-1.93-.75-2.17-1.07,0,0-.06-.08-.07-.09-.05-.07-.1-.14-.11-.15-.43-.56-.97-.84-1.59-.88,1.01-1.52,1.86-3.09,2.58-4.79.19.52.64.86,1.19.86h9.88c.25,0,.47.08.62.24.18.19.28.49.27.85l-.26,15.26c-.1,5.87-1.42,7.67-6.13,8.34-.49.07-.83.5-.83,1.04,0,.54.34.97.78,1.03.91.21,1.77.32,2.57.32,1.67,0,3.11-.46,4.29-1.38,2.04-1.59,3.16-4.47,3.23-8.32l.32-19.49v-.74c.03-1.15-.79-2.09-1.9-2.13-.65,0-1.23.28-1.73.87l-.1.13c-.05.07-.1.14-.14.19-.37.45-1.03.98-2.1.98h-8.76c-.17,0-.33.04-.47.1.87-2.47,1.51-5.19,1.99-8.33.24-1.55-.67-2.45-1.62-2.63-.91-.18-1.99.3-2.27,1.54,0,0,0,.01,0,.02-1.32,6.8-2.86,12.3-6.17,18.11v-3.81c0-1.17-.83-2.09-1.88-2.09-.43,0-1.06.14-1.59.78-.02.02-.09.11-.16.21-.04.05-.08.11-.11.15-.34.43-.96.96-1.94,1l-2.68-.02s.02,0,.02,0c3.14-1.51,5.91-5,6.73-8.47.18-.75.05-1.45-.36-1.96-.37-.46-.94-.74-1.53-.74-.94,0-1.57.62-2.11,1.28-.28.34-.43.38-.81.38h-2.79c-.24,0-.45.08-.64.19.53-1.31.99-2.66,1.33-4.04.33-1.42-.51-2.45-1.47-2.7-.88-.23-2.01.16-2.41,1.57-1.93,6.82-4.79,11.83-9.28,16.25-.48.48-.43,1.13-.12,1.52.31.4.82.5,1.24.26.78-.43,1.49-.89,2.18-1.42.11-.08.19-.13.24-.15.02.08.04.2.04.39v19.31c0,1.21.79,2.09,1.88,2.09.98,0,1.77-.7,2.09-1.86,0,0,.51-.88,1.67-.88h6.93c1.05,0,1.55.69,1.69.9.18.37.75,1.48,1.97,1.48,1.09,0,1.88-.87,1.88-2.06v-14.58c.06.01.11.03.17.03.27,0,.54-.11.75-.33.64-.68,1.24-1.35,1.81-2.03v23.14c0,5.76,2.96,9.24,8.13,9.53,1.14.03,2.31.04,3.44.04s2.23-.01,3.24-.04c2.68-.08,4.74-.92,6.1-2.51,1.81-2.1,2.42-5.41,1.86-10.12-.06-.54-.48-.94-1.02-.94ZM88.61,24.29c0-.53.24-1.1.92-1.1h4.25c.68,0,.92.57.92,1.1v6.54c0,.53-.24,1.1-.92,1.1h-4.25c-.68,0-.92-.57-.92-1.1v-6.54ZM71.04,33.96c0,.31-.09.83-.68.83h-2.02c-.59,0-.68-.52-.68-.83v-4.82c0-.31.09-.83.68-.83h2.02c.59,0,.68.52.68.83v4.82ZM71.04,24.74c0,.31-.09.83-.68.83h-2.02c-.61,0-.68-.58-.68-.83v-4.64c0-.25.07-.83.68-.83h2.02c.59,0,.68.52.68.83v4.64ZM67.95,16.47c-.12-.29-.26-.53-.39-.75-.07-.13-.15-.25-.2-.36-.04-.09-.04-.19-.02-.22,1.64-1.89,3.05-4.12,4.17-6.53.1.66.59,1.14,1.25,1.14h2.1c.25,0,.36.06.38.1.03.05.05.23-.1.57-.75,1.6-1.69,3.15-2.71,4.46-.32.39-.32.96-.01,1.36.1.12.21.21.34.28l-4.81-.03ZM78.17,33.96c0,.31-.09.83-.67.83h-2.07c-.59,0-.68-.52-.68-.83v-4.82c0-.31.09-.83.68-.83h2.07c.59,0,.67.52.67.83v4.82ZM78.17,24.74c0,.25-.07.83-.67.83h-2.07c-.61,0-.68-.58-.68-.83v-4.64c0-.25.07-.83.68-.83h2.07c.61,0,.67.58.67.83v4.64Z"/>
  <path class="cls-1" d="M165.8,8.45c-1.63,4.07-2.43,5.41-5.04,8.45-.36.4-.39.96-.09,1.38.19.26.48.4.78.4.14,0,.27-.03.41-.09,0,0,0,0,.01,0,4.14-2.05,6.66-4.89,7.72-8.69.37-1.46-.39-2.45-1.26-2.74-.83-.28-1.98,0-2.54,1.3Z"/>
  <path class="cls-1" d="M144.57,9.42c-.38-.14-.82-.02-1.09.32-.3.36-.32.87-.03,1.32,1.48,1.97,2.18,3.43,3.06,5.27l.34.71c.49.98,1.24,1.37,1.92,1.37.24,0,.47-.05.68-.13.91-.37,1.58-1.52,1.11-2.99-.84-2.63-3.65-4.94-6-5.86Z"/>
  <path class="cls-1" d="M142.11,9.03c.9.02,1.79.03,2.67.03,2.63,0,5.21-.1,7.69-.29-.27.34-.3.82-.04,1.26,1.66,2.26,2.59,4.1,3.4,5.8.49,1.03,1.25,1.44,1.96,1.44.24,0,.48-.05.69-.14.93-.38,1.62-1.57,1.16-2.88-.91-2.69-3.55-4.65-5.69-5.6,6.44-.6,12.09-1.84,16.09-3.59,1.33-.56,1.61-1.92,1.19-2.92-.37-.9-1.36-1.63-2.67-1.1-6.38,2.66-17.94,4.83-26.56,5.79-.57.06-.96.53-.93,1.13.03.61.47,1.07,1.03,1.08Z"/>
  <path class="cls-1" d="M133.81,26.49s0,.01.01.02c.45.63,1.08.97,1.73.97.34,0,.69-.1,1.02-.3.94-.58,1.47-1.94.67-3.44-1.63-3.17-5.16-5.81-9.44-7.08-.45-.14-.9.03-1.14.43-.26.44-.18,1.02.2,1.37,2.51,2.15,5.05,5.07,6.95,8.02Z"/>
  <path class="cls-1" d="M139.01,29.47c-.52-.07-1,.25-1.13.78-1.89,7.22-5.45,13.85-9.99,18.64-1.13,1.09-.97,2.68-.17,3.58.4.46.91.69,1.43.69.43,0,.87-.16,1.27-.48,5.36-4.83,9.01-13.27,9.52-22.02.03-.69-.44-1.12-.93-1.19Z"/>
  <path class="cls-1" d="M172.46,50.34c-6.23-1.52-10.97-4.05-14.5-7.76-.28-.27-.63-.37-.96-.29.23-.13.48-.22.72-.22h9.44c1.29.05,2.58.17,3.94.38,0,0,.58.08.53.08,0,0,.2.03.29.03.8,0,1.44-.65,1.54-1.56.02-.12.03-.24.03-.37,0-.12-.01-.24-.03-.34,0-.06-.02-.13-.04-.19-.01-.07-.03-.14-.05-.2-.17-.52-.53-.9-.94-1.04-.07-.03-.14-.05-.2-.07-.11-.03-.21-.04-.32-.04-.09,0-.26.02-.29.02l-.1.02c-.24.04-.47.07-.71.11-1.31.2-2.56.31-3.81.35h-8.89c-.11,0-.3-.02-.38-.13-.09-.11-.09-.34-.01-.65.13-.63.27-1.37.35-2.13.15-1.33-.48-2.23-1.28-2.57,2.62-.13,5.67-.24,8.98-.24.71,0,1.24-.53,1.31-1.23.39.86.78,1.78,1.16,2.82.4,1.04,1.17,1.46,1.89,1.46.19,0,.37-.03.55-.08.94-.3,1.69-1.36,1.31-2.81-1.18-4.59-4.79-6.75-6.3-7.47-.41-.2-.85-.11-1.14.23-.33.38-.35.97-.06,1.38.72.99,1.35,2.02,1.94,3.16-.2-.11-.43-.18-.71-.18-3.68,0-7.49.12-11.34.36,4.79-2.98,8.7-6.29,11.04-9.36.75-1.1.36-2.39-.46-3-.67-.5-1.69-.58-2.46.37-1.59,1.86-3.38,3.57-5.32,5.16.22-.47.18-1.06-.11-1.49-.26-.38-.67-.58-1.13-.55l-3.62.27c1.79-1.41,2.97-2.57,3.44-3.15.88-1.03.55-2.31-.21-2.99-.77-.69-1.8-.65-2.5.1-1.78,1.94-5.46,4.66-8.94,6.61-1.16.65-1.27,1.91-.79,2.81.36.68.98,1.06,1.63,1.06.26,0,.53-.06.79-.19,0,0,.01,0,.02,0l.39-.21c.28-.15.56-.3.87-.46.48-.29,1.2-.52,1.83-.57l7.3-.53c.09,0,.17-.03.25-.05-3.96,3.08-8.59,5.62-13.87,7.57-.65.23-1.09.75-1.21,1.45-.14.78.15,1.62.71,2.1.3.25.67.38,1.05.38.21,0,.43-.04.65-.12,1.1-.41,2.24-.86,3.57-1.44.75-.33,1.71-.59,2.41-.63,1.28-.12,3.14-.28,5.43-.42-.5.28-.92.8-1.06,1.59-.14.83-.34,1.69-.6,2.61-.21.7-.79,1.18-1.44,1.18h-11.93c-.74,0-1.29.59-1.29,1.38s.56,1.43,1.29,1.43h11.29c.23,0,.35.05.37.09s.05.2-.1.51c-2.73,5.12-7.27,8.74-13.49,10.78-.56.17-.89.71-.77,1.29.1.5.51.84,1.01.84.04,0,.08,0,.12,0,7.79-.99,14.35-5.59,17.54-12.28.08-.15.17-.28.27-.41-.13.31-.14.67.02.99,2.77,5.57,8.29,9.62,15.14,11.09.18.04.36.06.53.06,1.03,0,1.85-.67,2.1-1.77.26-1.16-.24-2.57-1.67-2.91Z"/>
  <path class="cls-1" d="M136.74,11.68s0,0,0,0c.5.76,1.17,1.05,1.78,1.05.34,0,.67-.09.95-.25.96-.55,1.52-1.92.74-3.49-1.7-3.23-5.37-5.96-9.58-7.15-.47-.11-.92.11-1.13.55-.23.48-.1,1.04.29,1.33,2.33,1.9,4.86,4.8,6.95,7.96Z"/>
</svg>