<?xml version="1.0" encoding="UTF-8"?>
<svg id="_圖層_1" data-name="圖層 1" xmlns="http://www.w3.org/2000/svg" viewBox="0 0 182.02 56.17">
  <defs>
    <style>
      .cls-1 {
        fill: #231815;
      }
    </style>
  </defs>
  <path class="cls-1" d="M172.9,8.06c-1.64,4.1-2.45,5.46-5.08,8.53-.36.4-.4.96-.09,1.38.19.26.48.4.78.4.14,0,.28-.03.41-.09,0,0,0,0,.01,0,4.17-2.07,6.72-4.93,7.79-8.76.38-1.47-.39-2.46-1.26-2.76-.84-.28-1.99,0-2.56,1.3Z"/>
  <path class="cls-1" d="M151.48,9.04c-.39-.15-.82-.02-1.1.31-.3.37-.32.87-.03,1.33,1.49,1.99,2.2,3.46,3.08,5.31l.34.71c.49.99,1.24,1.38,1.94,1.38.24,0,.47-.05.68-.13.92-.37,1.59-1.53,1.12-3.01-.85-2.65-3.68-4.98-6.04-5.9Z"/>
  <path class="cls-1" d="M149,8.64c.9.02,1.8.03,2.69.03,2.66,0,5.26-.1,7.76-.29-.28.35-.31.83-.04,1.27,1.67,2.28,2.61,4.14,3.43,5.85.5,1.03,1.26,1.44,1.97,1.44.24,0,.48-.05.7-.14.94-.39,1.63-1.58,1.17-2.9-.92-2.73-3.6-4.7-5.75-5.65,6.5-.61,12.21-1.86,16.24-3.62,1.34-.56,1.62-1.93,1.2-2.94-.37-.9-1.37-1.64-2.69-1.11-6.43,2.68-18.09,4.87-26.78,5.84-.57.06-.97.53-.94,1.14.03.61.47,1.08,1.04,1.08Z"/>
  <path class="cls-1" d="M140.63,26.25s0,.01.01.02c.45.64,1.09.98,1.74.98.35,0,.7-.1,1.02-.3.94-.58,1.48-1.96.68-3.46-1.64-3.19-5.2-5.86-9.52-7.14-.46-.14-.91.03-1.14.44-.26.44-.18,1.03.2,1.38,2.53,2.17,5.09,5.12,7.01,8.09Z"/>
  <path class="cls-1" d="M145.87,29.26c-.53-.08-1,.25-1.13.78-1.91,7.29-5.49,13.97-10.07,18.8-1.14,1.1-.98,2.7-.18,3.61.41.46.92.69,1.44.69.43,0,.87-.16,1.27-.49,5.41-4.87,9.09-13.38,9.6-22.2.03-.69-.45-1.12-.93-1.19Z"/>
  <path class="cls-1" d="M179.6,50.31c-6.28-1.53-11.06-4.08-14.62-7.83-.3-.29-.68-.38-1.02-.27.25-.16.52-.26.79-.26h9.52c1.29.05,2.59.17,3.98.39,0,0,.58.09.54.08,0,0,.2.03.29.03.81,0,1.45-.65,1.55-1.56.02-.12.03-.24.03-.37,0-.12-.01-.25-.03-.35,0-.06-.02-.12-.04-.18-.01-.07-.03-.14-.05-.2-.18-.53-.52-.9-.95-1.05-.07-.03-.14-.05-.19-.06-.11-.03-.21-.04-.32-.04-.08,0-.26.02-.26.02-.01,0-.09.01-.1.02-.25.04-.5.08-.75.11-1.32.2-2.58.32-3.84.35h-8.97c-.11,0-.3-.02-.39-.13-.09-.11-.09-.34-.01-.66.13-.67.27-1.39.35-2.15.15-1.35-.49-2.26-1.31-2.59,2.65-.14,5.74-.24,9.08-.24.72,0,1.25-.54,1.31-1.26.4.87.79,1.81,1.18,2.85.4,1.05,1.18,1.47,1.9,1.47.19,0,.38-.03.55-.08.94-.3,1.7-1.36,1.32-2.82-1.19-4.63-4.83-6.81-6.35-7.53-.41-.2-.86-.11-1.15.23-.33.38-.35.98-.06,1.38.73,1,1.37,2.04,1.97,3.2-.2-.12-.44-.19-.73-.19-3.7,0-7.55.12-11.46.36,4.84-3.01,8.78-6.35,11.15-9.45.75-1.11.36-2.4-.46-3.01-.67-.5-1.7-.58-2.48.37-1.61,1.88-3.42,3.62-5.38,5.22,0,0,0,0,0,0,.23-.47.19-1.08-.1-1.51-.26-.38-.66-.58-1.13-.55l-3.67.27c1.81-1.42,3.01-2.6,3.48-3.19.89-1.04.55-2.32-.21-3-.77-.69-1.81-.65-2.51.1-1.8,1.96-5.51,4.7-9.02,6.66-1.16.65-1.28,1.92-.8,2.83.36.68.98,1.06,1.64,1.06.26,0,.53-.06.79-.19,0,0,.01,0,.02,0l.4-.22c.28-.15.56-.3.86-.46.49-.3,1.22-.52,1.85-.57l7.36-.54c.09,0,.18-.03.27-.05-4,3.12-8.68,5.68-14.01,7.64-.65.23-1.1.76-1.22,1.46-.14.79.15,1.63.72,2.11.31.25.67.39,1.06.39.21,0,.43-.04.65-.12,1.1-.41,2.28-.88,3.6-1.45.76-.34,1.73-.59,2.44-.64,1.3-.12,3.19-.28,5.51-.42-.52.28-.95.81-1.09,1.61-.14.84-.34,1.71-.6,2.63-.21.71-.8,1.19-1.46,1.19h-12.03c-.74,0-1.3.59-1.3,1.38s.56,1.44,1.3,1.44h11.39c.23,0,.35.06.38.09s.05.21-.1.52c-2.75,5.16-7.33,8.82-13.6,10.87-.57.17-.89.72-.78,1.29.1.5.52.85,1.02.85.04,0,.08,0,.12,0,7.86-1,14.47-5.64,17.69-12.38.09-.17.19-.31.3-.45-.15.31-.17.7,0,1.04,2.79,5.62,8.35,9.7,15.26,11.18.18.04.36.06.53.06,1.03,0,1.87-.68,2.11-1.78.26-1.16-.24-2.58-1.68-2.93Z"/>
  <path class="cls-1" d="M143.58,11.31s0,0,0,0c.51.76,1.17,1.06,1.79,1.06.35,0,.68-.09.95-.25.96-.55,1.53-1.94.75-3.52-1.72-3.25-5.41-6.01-9.66-7.21-.47-.11-.93.11-1.13.55-.23.48-.09,1.05.29,1.34,2.35,1.92,4.9,4.85,7.01,8.03Z"/>
  <path class="cls-1" d="M47,50s0,0,0,0c-11.31-6.03-17.01-17.92-19.81-26.83-.16-.55-.72-.86-1.3-.72-.58.14-.93.66-.83,1.22,2.17,13.96,9.66,25.47,20.04,30.81.4.21.79.3,1.14.3.86,0,1.54-.53,1.89-1.18.6-1.14.35-2.79-1.13-3.6Z"/>
  <path class="cls-1" d="M26.48,20.7h13.44c1.5.05,3,.19,4.53.42.24.07.45.1.69.11h0c.07.01.17.02.23.02,1.01,0,1.72-.84,1.72-2.05,0-1.21-.71-2.05-1.72-2.05-.04,0-.1,0-.15,0-.25-.03-.47.03-.71.1-1.64.26-3.16.4-4.62.44h-13.31c-.31,0-.57-.1-.75-.29-.21-.23-.31-.59-.28-1.03.17-3.95.16-7.85.16-11.97v-1.59c0-1.45-1.08-2.24-2.1-2.24s-2.1.79-2.1,2.29l-.03,3.41c-.03,3.64-.06,7.08-.18,10.04-.04.85-.51,1.38-1.22,1.38H2.77c-.83,0-1.46.62-1.46,1.44,0,.9.61,1.56,1.46,1.56h17.18c.31,0,.55.09.71.26.2.22.29.58.25,1.01-1.68,13.67-8.52,24.19-20.35,31.29-.52.35-.7.99-.44,1.54.18.38.54.6.94.6.11,0,.23-.02.35-.05,13.13-4.68,22.01-17.1,23.77-33.26.06-.86.56-1.39,1.3-1.39Z"/>
  <path class="cls-1" d="M78.75,28.83c-.54-.07-1.01.25-1.14.78-2.14,8.06-5.34,14.52-9.51,19.2-1.08,1.21-.83,2.83.04,3.71.39.39.86.59,1.34.59.45,0,.9-.18,1.31-.53,5.05-4.96,8.38-13.39,8.92-22.54.03-.7-.45-1.13-.94-1.2Z"/>
  <path class="cls-1" d="M73.66,25.05s0,.01.01.02c.45.63,1.09.97,1.74.97.35,0,.7-.1,1.02-.3.94-.58,1.47-1.96.67-3.46-1.65-3.22-5.21-5.9-9.52-7.17-.47-.15-.95.04-1.18.48-.25.46-.15,1.03.24,1.36,2.53,2.17,5.08,5.12,7.01,8.1Z"/>
  <path class="cls-1" d="M113.49,50.37c-6.37-1.69-11.46-4.5-15.15-8.35-.11-.12-.25-.2-.39-.25h9.77c1.52.05,3.03.2,4.67.47,0,0,.2.03.29.03.82,0,1.46-.66,1.55-1.56.02-.11.03-.23.03-.34,0-.16-.01-.31-.04-.41-.14-.9-.76-1.51-1.54-1.51-.09,0-.29.03-.3.03-1.62.27-3.15.43-4.66.47h-10.09c-.16,0-.28-.04-.33-.1-.06-.08-.07-.25-.02-.46.17-.78.29-1.41.36-2,.04-.3.19-.8.8-.8h7.08c1.24.03,2.53.16,3.85.36.24.07.55.14.87.12.03,0,.05,0,.07,0,.6,0,1.13-.38,1.37-1,.03-.08.06-.16.07-.2.04-.11.06-.22.07-.29.02-.12.03-.24.03-.37s-.01-.26-.03-.35c-.12-.91-.72-1.51-1.51-1.51-.09,0-.27.02-.3.02-1.59.27-3.06.42-4.48.46h-6.93c-.19,0-.34-.05-.44-.15-.12-.12-.17-.32-.17-.56.03-.52.03-1.19.03-2.2,0-.34.11-.75.66-.75h5.08c1.14.05,1.77.71,2.07,1.13.03.04.08.12.12.18.47.65,1.06.97,1.76.97,1.11,0,1.94-.94,1.94-2.19v-10.32c0-1.18-.84-2.07-1.94-2.07-.65,0-1.2.26-1.62.76-.03.03-.12.15-.2.25l-.08.11c-.34.42-.96.93-1.93.98h-5.17c-.6,0-.69-.52-.69-.84v-2.43c0-.64.38-.64.5-.64h.47c.17,0,.34.02.5.06.14.03.28.08.4.14.11.05.22.12.32.2.08.06.17.13.24.21.06.06.11.12.16.19.04.06.08.11.11.18l.07.13c.07.13.16.26.25.38.12.16.26.31.41.43.19.16.4.28.61.36.21.08.43.12.65.12,1.14,0,1.94-.86,1.94-2.09v-5.64c0-.36.1-.96.79-.97h.5c1.46.04,2.92.19,4.64.47,0,0,.23.03.32.03.81,0,1.45-.66,1.54-1.55.02-.12.03-.23.03-.35,0-.16-.01-.31-.04-.41-.14-.9-.76-1.51-1.54-1.51-.1,0-.29.03-.3.03-1.62.27-3.15.43-4.64.47h-.51c-.5,0-.79-.36-.79-.96v-2.82c0-1.23-.84-2.16-1.94-2.16s-1.99.93-1.99,2.16v2.82c0,.36-.1.96-.79.96h-7.66c-.74,0-.79-.73-.79-.96v-2.82c0-1.23-.84-2.16-1.94-2.16s-1.99.93-1.99,2.16v2.82c0,.36-.1.96-.79.96h-5.95c-.74,0-1.3.59-1.3,1.38,0,.14.02.27.05.4-1.89-2.87-5.27-5.24-9.11-6.32-.46-.12-.92.09-1.13.52-.24.48-.11,1.05.28,1.36,2.35,1.92,4.9,4.84,7.01,8.03,0,0,0,0,0,0,.51.76,1.16,1.07,1.78,1.07.35,0,.68-.1.97-.26.96-.55,1.53-1.93.75-3.52-.02-.04-.05-.08-.07-.11.21.17.48.27.77.27h5.95c.66,0,.79.53.79.97v5.64c0,1.23.8,2.09,1.94,2.09.67,0,1.3-.37,1.77-1.04.07-.11.14-.22.2-.33.06-.11.12-.21.2-.31.1-.12.21-.22.33-.32.34-.26.78-.41,1.24-.41h.36c.12,0,.5,0,.5.64v2.43c0,.31-.09.84-.69.84h-4.97c-.97-.04-1.6-.55-1.94-.95-.05-.06-.12-.16-.17-.23-.07-.09-.12-.16-.12-.16-.45-.5-1-.75-1.63-.75-1.1,0-1.94.89-1.94,2.07v10.89c0,1.23.8,2.09,1.94,2.09.92,0,1.66-.56,2.05-1.51.12-.2.77-1.18,2.12-1.24h4.71c.54,0,.66.41.66.75,0,.75,0,1.4-.02,2.12-.02.3-.15.79-.74.79h-11.17c-.74,0-1.3.59-1.3,1.38s.56,1.38,1.3,1.38h11.06c.12,0,.28.02.37.12.09.1.12.29.08.53-.09.66-.22,1.32-.34,1.91-.12.49-.5.81-.97.81h-12.89c-.74,0-1.3.59-1.3,1.38s.56,1.44,1.3,1.44h12.06c.24,0,.36.06.4.11.04.06.07.26-.05.59-2.3,4.82-6.59,8-14.79,10.98-.55.18-.85.74-.71,1.32.11.49.5.81.97.81.04,0,.09,0,.13,0,9.41-1.4,15.43-5.51,18.41-12.56.29-.64.76-1.06,1.27-1.18-.04.02-.09.03-.12.06-.44.32-.57.94-.29,1.44,2.75,4.84,8.35,10.47,15.8,11.76.17.03.34.04.5.04,1.23,0,1.97-.85,2.16-1.78.25-1.19-.32-2.63-1.71-2.98ZM94.09,22.66v2.82c0,.35-.1.93-.76.93h-6c-.67,0-.77-.58-.77-.93v-2.82c0-.35.1-.93.77-.93h6c.67,0,.76.58.76.93ZM100.73,9.54v1.98c0,.36-.11.78-.63.78h-7.99c-.52,0-.63-.42-.63-.78v-1.98c0-.29.08-.79.63-.79h7.99c.55,0,.63.49.63.79ZM98.03,25.47v-2.82c0-.35.1-.93.77-.93h6.16c.67,0,.77.58.77.93v2.82c0,.35-.1.93-.77.93h-6.16c-.67,0-.77-.58-.77-.93Z"/>
</svg>