<?xml version="1.0" encoding="UTF-8"?>
<svg id="_圖層_2" data-name="圖層 2" xmlns="http://www.w3.org/2000/svg" viewBox="0 0 411.28 145.31">
  <defs>
    <style>
      .cls-1 {
        fill: #231815;
      }
    </style>
  </defs>
  <g id="_中文" data-name="中文">
    <g>
      <g>
        <path class="cls-1" d="M372.17,36.1c-2.44-7.22-9.89-12.36-15.46-14.59-.94-.4-1.73.79-1.15,1.75,4.59,6.26,7.16,11.39,9.31,15.88,2.86,5.93,9.02,1.92,7.3-3.03Z"/>
        <path class="cls-1" d="M330.2,93.66c3.23-1.19,6.37-2.48,9.54-3.84,2-.88,4.78-1.69,7.01-1.84,9.31-.88,25.21-2.02,43.47-2.02,2.57,0,2.73-4.17-.13-4.17-12.04,0-23,.48-31.74,1.04-3.36.25-3.65-.71-.63-2.48,12.96-7.95,23.85-16.99,30.22-25.34,2.73-4.01-2.15-8.99-5.3-5.13-12.04,14.11-29.8,27.42-54.57,36.56-4.17,1.46-2.15,8.83,2.13,7.22Z"/>
        <path class="cls-1" d="M378.99,45.79c9.73-4.82,16.97-11.64,19.97-22.37,1.44-5.63-5.01-7.87-7.16-2.9-4.43,11.08-6.72,14.92-13.88,23.27-.94,1.04.06,2.48,1.08,2Z"/>
        <path class="cls-1" d="M335.5,68.01c1.08-.58,2.23-1.21,3.3-1.77,1.57-.96,3.8-1.61,5.66-1.77l19.68-1.44c2.44-.15,2.15-4.34-.29-4.17l-10.6.79c-2.78.17-3.15-.79-.79-2.55,4.74-3.69,8.18-6.99,9.54-8.66,3.15-3.69-1.73-8.99-4.88-5.63-4.72,5.15-14.48,12.52-24.5,18.12-4.3,2.42-1,8.99,2.86,7.07Z"/>
        <path class="cls-1" d="M347.69,38.82c-2.15-6.74-9.47-12.52-15.19-14.77-.86-.33-1.86.81-1.15,1.92,4.59,6.11,6.45,10.43,9.31,16.36,2.73,5.45,8.87,2.25,7.03-3.51Z"/>
        <path class="cls-1" d="M389.3,69.29c-1.15-.58-1.86,1.04-1.23,1.92,4.3,5.93,7.32,12.02,10.31,20.04,2.02,5.3,8.47,2.73,7.03-2.88-2.44-9.47-9.39-15.88-16.11-19.08Z"/>
        <path class="cls-1" d="M393.98,108.9c3.69.13,7.24.5,10.85,1.06,0,0,1.36.21,1.44.21,0,0,.36.06.54.06,1.32,0,2.36-1.11,2.55-2.82.04-.25.06-.48.06-.75,0-.23-.02-.46-.06-.67-.02-.13-.04-.27-.08-.38-.02-.13-.06-.27-.1-.38-.31-.92-.88-1.57-1.61-1.82-.1-.04-.19-.08-.29-.1-.15-.04-.31-.06-.48-.06s-.54.04-.54.04c-.75.12-1.48.23-2.21.33-3.49.54-6.93.86-10.5.96h-23.96c-2.23,0-3.3-1.59-2.65-4.01.36-1.84.71-3.69.92-5.61.73-6.41-6.59-7.55-7.58-1.92-.42,2.48-1,4.9-1.65,7.22-.79,2.63-2.99,4.32-5.43,4.32h-32.16c-1.08,0-1.86.88-1.86,2.09,0,1.29.79,2.25,1.86,2.25h30.43c2.44,0,3.3,1.59,2.15,3.99-8.08,15.17-21.41,24.63-37.31,29.84-1.57.48-1.15,2.73.29,2.57,18.97-2.42,37.17-13.63,46.04-32.24,1.36-2.65,3.65-4.17,5.88-4.17h25.46Z"/>
        <path class="cls-1" d="M326.47,19.89c25.21.63,55.58-2.25,74.63-10.58,5.01-2.09,2.44-9.95-2.73-7.87-17.32,7.22-48.4,13.08-72.04,15.73-1.57.15-1.29,2.73.13,2.73Z"/>
        <path class="cls-1" d="M305.43,67.68c3.28,4.65,9.6.15,6.45-5.78-4.45-8.66-14.19-15.23-24.5-18.28-1.29-.4-1.79,1.36-1,2.09,6.72,5.76,13.75,13.79,19.05,21.96Z"/>
        <path class="cls-1" d="M316.6,79.07c-5.3,20.22-15.05,38.02-27.36,51-4.3,4.17.42,11.23,4.59,7.85,13.17-11.87,23.69-33.5,25.13-58.22.08-1.75-2.02-2.07-2.36-.63Z"/>
        <path class="cls-1" d="M407.84,134.4c-13.19-3.21-28.22-9.14-39.82-21.33-1.15-1.13-2.36.33-1.73,1.59,8.45,17.01,24.79,25.82,39.69,29.03,6.01,1.29,7.3-8.01,1.86-9.29Z"/>
        <path class="cls-1" d="M313.3,27.74c3.3,4.97,9.6.48,6.59-5.61-4.57-8.66-14.46-15.55-24.77-18.45-1.29-.31-1.81,1.54-.86,2.25,6.87,5.63,13.75,13.8,19.05,21.81Z"/>
      </g>
      <g>
        <path class="cls-1" d="M123.24,133.43c-27.07-14.43-44.26-42.5-53.71-72.65-.43-1.44-2.87-.96-2.58.64,5.87,37.85,25.85,67.36,52.71,81.15,5.87,3.05,9.45-5.93,3.58-9.14Z"/>
        <path class="cls-1" d="M105.11,52.12c4.24.13,8.34.54,12.5,1.19.55.15,1.08.25,1.62.25,0,0,.02,0,.03,0,.13.02.3.04.41.04,1.8,0,3-1.58,3-3.88,0,0,0,0,0,0h0c0-2.31-1.2-3.87-3-3.87-.1,0-.26.01-.39.02-.02,0-.03,0-.05,0-.53,0-1.06.1-1.6.25-4.19.66-8.32,1.09-12.59,1.19h-3.17s-32.42,0-32.42,0c-2.79,0-4.58-2.09-4.37-5.21.5-11.87.43-23.41.43-36.16C65.51.16,57.49,0,57.49,6.09c-.14,13.39-.14,25.66-.57,36-.14,3.13-2.08,5.21-4.87,5.21H5.79c-1.36,0-2.29.96-2.29,2.25,0,1.52.93,2.57,2.29,2.57h45.91c2.79,0,4.44,2,4.15,5.21-4.65,37.77-23.56,65.83-55.07,84.76-1.43.96-.72,3.21.86,2.73,37.6-13.39,58.3-49.15,62.45-87.48.21-3.21,2.29-5.21,5.09-5.21h35.94Z"/>
      </g>
      <g>
        <path class="cls-1" d="M170.07,27.74c3.3,4.97,9.6.48,6.6-5.61-4.59-8.66-14.48-15.57-24.79-18.45-1.29-.33-1.79,1.52-.86,2.25,6.87,5.61,13.75,13.79,19.05,21.81Z"/>
        <path class="cls-1" d="M172.95,77.93c-5.45,20.54-13.9,38.65-25.79,51.97-4.01,4.49.86,11.39,4.86,7.85,12.75-12.52,21.93-34.64,23.35-59.17.08-1.77-2.07-2.09-2.42-.65Z"/>
        <path class="cls-1" d="M162.2,64.47c3.3,4.65,9.6.15,6.45-5.78-4.44-8.66-14.19-15.32-24.5-18.36-1.29-.4-1.94,1.36-1,2.15,6.74,5.78,13.75,13.8,19.05,21.98Z"/>
        <path class="cls-1" d="M266.89,134.55c-15.74-4.17-30.22-11.23-41.24-22.77-1-1.06-2.44.31-1.73,1.59,7.03,12.35,21.64,27.26,41.11,30.64,6.6,1.11,7.03-8.18,1.86-9.47Z"/>
        <path class="cls-1" d="M250.54,108.4h1.38c4.28.13,8.39.58,12.58,1.29h.12s.36.06.54.06c1.36,0,2.38-1.13,2.55-2.86.04-.21.06-.42.06-.63,0-.29-.02-.58-.08-.84-.25-1.61-1.23-2.67-2.53-2.67-.17,0-.54.06-.54.06-4.24.71-8.39,1.15-12.71,1.29h-26.96c-2.02,0-3.01-1.36-2.51-3.46.36-1.67.71-3.44.94-5.2.27-2.17,1.71-3.53,3.72-3.53h18.97c3.63.1,7.12.46,10.68,1.02.54.15,1.06.27,1.57.27.1,0,.19,0,.29-.02.08.02.15.02.21.02.98,0,1.77-.63,2.17-1.65.06-.15.12-.31.15-.46.06-.17.1-.35.12-.54.04-.23.06-.46.06-.71s-.02-.5-.06-.73c-.21-1.61-1.17-2.65-2.44-2.65-.17,0-.54.04-.54.04-4.09.69-8.08,1.13-12.23,1.25h-18.53c-2.07,0-3.3-1.44-3.23-3.61.08-1.36.08-3.13.08-5.78,0-2.17,1.29-3.61,3.36-3.61h13.65c3.8.17,5.89,2.48,6.7,3.61.06.06.31.44.38.56.85,1.17,1.9,1.94,3.4,1.94,2.07,0,3.59-1.84,3.59-4.26v-27.57c0-2.25-1.52-3.94-3.59-3.94-1.36,0-2.36.58-3.15,1.5-.09.1-.5.63-.71.9-.96,1.17-3,3.03-6.39,3.21h-13.8c-2.07,0-3.44-1.52-3.44-3.84v-6.49c0-2.02,1.13-3.3,2.94-3.3h1.25c.58,0,1.16.06,1.72.2.49.12.96.28,1.41.5.39.19.76.42,1.11.68.29.22.57.47.83.73.2.21.39.42.56.65.18.23.32.47.45.73.05.1.1.2.16.3.16.29.34.56.54.83.25.33.53.63.85.9.35.29.74.53,1.17.69.38.14.79.21,1.19.21,2.15,0,3.59-1.59,3.59-3.99v-15.07c0-2.57,1.5-4.17,3.71-4.19h1.38c4.28.12,8.37.58,12.56,1.27,0,0,.48.06.65.06,1.34,0,2.36-1.13,2.55-2.84.04-.21.06-.42.06-.63,0-.29-.02-.58-.08-.84-.25-1.61-1.25-2.67-2.53-2.67-.17,0-.54.06-.54.06-4.24.71-8.39,1.15-12.67,1.29h-1.38c-2.21-.02-3.71-1.69-3.71-4.17v-7.55c0-2.4-1.5-4.17-3.59-4.17s-3.72,1.77-3.72,4.17v7.55c0,2.48-1.42,4.17-3.72,4.17h-20.47c-2.23,0-3.72-1.69-3.72-4.17v-7.55c0-2.4-1.52-4.17-3.59-4.17s-3.73,1.77-3.73,4.17v7.55c0,2.48-1.42,4.17-3.72,4.17h-15.9c-1.07,0-1.86.88-1.86,2.07,0,1.29.79,2.25,1.86,2.25h15.9c2.3,0,3.72,1.61,3.72,4.19v15.07c0,2.4,1.44,3.99,3.59,3.99,1.44,0,2.61-.96,3.4-2.09.41-.59.69-1.26,1.16-1.82.34-.4.72-.77,1.13-1.09,1.23-.94,2.74-1.42,4.29-1.42h.96c1.81,0,2.94,1.29,2.94,3.3v6.49c0,2.32-1.36,3.84-3.44,3.84h-13.36c-3.32-.15-5.36-1.96-6.36-3.13-.27-.33-.69-.94-.75-1-.81-.9-1.82-1.48-3.17-1.48-2.07,0-3.57,1.69-3.57,3.94v29.11c0,2.4,1.44,3.99,3.57,3.99,1.94,0,3.25-1.23,4.05-3.19.01-.03.02-.04.04-.08.36-.61,2.5-3.9,7.05-4.11h12.58c2.07,0,3.36,1.44,3.36,3.61,0,2.02,0,3.76-.06,5.78-.15,2.17-1.52,3.61-3.59,3.61h-29.86c-1.08,0-1.86.88-1.86,2.07s.79,2.09,1.86,2.09h29.57c2.02,0,3.09,1.36,2.8,3.53-.23,1.77-.58,3.53-.94,5.28-.5,2.02-2.15,3.38-4.15,3.38h-34.44c-1.08,0-1.86.88-1.86,2.07,0,1.29.79,2.25,1.86,2.25h32.22c2.44,0,3.36,1.61,2.36,4.17-6.87,14.36-19.91,22.69-40.45,30.16-1.44.48-1,2.73.29,2.55,24.77-3.69,40.38-14.67,47.98-32.62,1.21-2.73,3.44-4.26,5.65-4.26h26.11ZM217.05,66.47c0,2.5-1.42,4.09-3.65,4.09h-16.03c-2.23,0-3.67-1.59-3.67-4.09v-7.53c0-2.5,1.44-4.09,3.67-4.09h16.03c2.23,0,3.65,1.59,3.65,4.09v7.53ZM228.01,54.85h16.47c2.23,0,3.65,1.59,3.65,4.09v7.53c0,2.5-1.42,4.09-3.65,4.09h-16.47c-2.23,0-3.65-1.59-3.65-4.09v-7.53c0-2.5,1.42-4.09,3.65-4.09ZM210.18,32.87c-2,0-3.28-1.44-3.28-3.69v-5.28c0-2.25,1.29-3.71,3.28-3.71h21.35c2,0,3.28,1.46,3.28,3.71v5.28c0,2.25-1.29,3.69-3.28,3.69h-21.35Z"/>
      </g>
    </g>
  </g>
</svg>