<?xml version="1.0" encoding="UTF-8"?>
<svg id="_圖層_2" data-name="圖層 2" xmlns="http://www.w3.org/2000/svg" viewBox="0 0 407 146.09">
  <defs>
    <style>
      .cls-1 {
        fill: #231815;
      }
    </style>
  </defs>
  <g id="_中文" data-name="中文">
    <g>
      <g>
        <path class="cls-1" d="M183.88,42.66c-1.07-.4-1.93,1.2-1.15,2.08,4.13,4.47,8.7,11.65,11.84,17.4,3,5.28,9.27,1.11,6.43-4.78-3.58-7.36-10.77-12.14-17.11-14.71Z"/>
        <path class="cls-1" d="M164.76,41.78c0-2.72,1.64-4.55,4.07-4.55h71.75c4.34,0,6.6,2.77,7.3,3.81.04.06.06.11.1.15.06.08.08.13.1.17s.04.06.04.06c.99,1.74,2.18,2.52,3.67,2.52,2.14,0,3.56-1.68,3.56-4.07V7.51c0-2.31-1.41-3.82-3.56-3.82-1.42,0-2.52.63-3.5,2.05,0,0-.08.15-.25.42-.73,1.07-2.98,3.77-7.29,3.77h-69.09c-4.34,0-6.6-2.77-7.31-3.81-.04-.06-.06-.11-.1-.15-.04-.06-.06-.1-.08-.11l-.06-.11c-.96-1.42-2.05-2.05-3.5-2.05-2.14,0-3.58,1.51-3.58,3.82v33.24c0,41.69-1.7,76.82-18.55,102.86-.92,1.43.73,3.35,2.01,2.06,21.53-23.46,24.25-57.33,24.25-98.39v-5.51ZM164.76,18.62c0-2.72,1.64-4.55,4.07-4.55h75.17c2.43,0,4.07,1.84,4.07,4.55v9.91c0,2.72-1.64,4.55-4.07,4.55h-75.17c-2.43,0-4.07-1.84-4.07-4.55v-9.91Z"/>
        <path class="cls-1" d="M262.4,98.07c-.23-1.63-1.22-2.68-2.52-2.68-.17,0-.54.06-.54.06-4.11.67-8.11,1.11-12.26,1.26h-9.22c-2.41,0-4.05-1.84-4.05-4.55v-16.37c0-2.72,1.64-4.55,4.05-4.55h6.25c4.26.13,8.36.57,12.54,1.28h.1s.36.06.55.06c1.3,0,2.29-1.09,2.52-2.73.02-.04.02-.08.02-.11.04-.23.06-.48.06-.73,0-.38-.06-.75-.15-1.07,0-.08-.02-.13-.06-.21-.36-1.3-1.26-2.12-2.39-2.12-.19,0-.55.06-.55.06-4.23.69-8.36,1.15-12.66,1.28h-12.3c-2.2,0-2.77-.73-.63-2.49,4.84-4.07,9.05-9.91,11.34-16.69,1.7-5.26-4.7-8.93-7-3.02-2.43,6.31-6.27,13.4-10.84,18.99-1.78,1.93-4.55,3.21-6.98,3.21h-46.66c-1.07,0-1.85.88-1.85,2.07,0,1.28.78,2.24,1.85,2.24h51.44c2.41,0,4.05,1.84,4.05,4.55v16.37c0,2.72-1.64,4.55-4.05,4.55h-19.49c-2.41,0-3.98-1.84-3.92-4.55.08-5.03-.06-10.38-.06-14.36,0-2.31-1.51-4-3.58-4s-3.71,1.68-3.71,4c0,4.46.08,9.26-.08,14.36-.06,2.72-1.78,4.55-4.21,4.55h-21.32c-1.07,0-1.85.88-1.85,2.08,0,1.28.78,2.24,1.85,2.24h20.98c2.41,0,3.84,1.76,3.48,4.55-2.41,16.14-9.41,28.84-26.45,37.77-1.36.73-.57,2.79.55,2.49,22.26-5.91,31.11-19.96,33.6-40.25.29-2.79,2.07-4.55,4.49-4.55h19.7c2.41,0,4.05,1.84,4.05,4.55v35.13c0,2.41,1.57,4.17,3.71,4.17s3.58-1.76,3.58-4.17v-35.13c0-2.72,1.64-4.55,4.05-4.55h8.83c4.25.13,8.36.57,12.53,1.28h.11s.36.06.54.06c1.34,0,2.35-1.13,2.54-2.79.04-.23.06-.46.06-.69,0-.29-.02-.57-.08-.82Z"/>
      </g>
      <g>
        <path class="cls-1" d="M368.04,36.6c-2.43-7.19-9.85-12.31-15.39-14.53-.94-.4-1.72.78-1.15,1.74,4.57,6.23,7.13,11.34,9.27,15.81,2.85,5.91,8.99,1.91,7.27-3.02Z"/>
        <path class="cls-1" d="M326.24,93.93c3.21-1.19,6.35-2.47,9.5-3.82,1.99-.88,4.76-1.68,6.98-1.84,9.27-.88,25.11-2.01,43.29-2.01,2.56,0,2.72-4.15-.13-4.15-11.99,0-22.91.48-31.61,1.03-3.35.25-3.63-.71-.63-2.47,12.91-7.92,23.75-16.92,30.1-25.24,2.72-4-2.14-8.95-5.28-5.11-11.99,14.06-29.68,27.31-54.35,36.41-4.15,1.45-2.14,8.8,2.12,7.19Z"/>
        <path class="cls-1" d="M374.83,46.26c9.7-4.8,16.91-11.59,19.89-22.28,1.43-5.6-4.99-7.84-7.13-2.89-4.42,11.03-6.69,14.86-13.83,23.18-.94,1.03.06,2.47,1.07,1.99Z"/>
        <path class="cls-1" d="M331.52,68.38c1.07-.57,2.22-1.2,3.29-1.76,1.57-.96,3.79-1.61,5.64-1.76l19.6-1.43c2.43-.15,2.14-4.32-.29-4.15l-10.56.78c-2.77.17-3.14-.78-.78-2.54,4.72-3.67,8.15-6.96,9.5-8.62,3.14-3.67-1.72-8.95-4.86-5.6-4.7,5.13-14.42,12.47-24.4,18.05-4.28,2.41-.99,8.95,2.85,7.04Z"/>
        <path class="cls-1" d="M343.66,39.32c-2.14-6.71-9.43-12.47-15.13-14.71-.86-.32-1.85.8-1.15,1.91,4.57,6.08,6.43,10.38,9.27,16.29,2.72,5.43,8.83,2.24,7-3.5Z"/>
        <path class="cls-1" d="M385.1,69.66c-1.15-.57-1.86,1.03-1.22,1.91,4.28,5.91,7.29,11.97,10.27,19.96,2.01,5.28,8.43,2.72,7-2.87-2.43-9.43-9.35-15.81-16.04-19.01Z"/>
        <path class="cls-1" d="M389.76,109.11c3.67.13,7.21.5,10.8,1.05,0,0,1.36.21,1.43.21,0,0,.36.06.54.06,1.32,0,2.35-1.11,2.54-2.81.04-.25.06-.48.06-.75,0-.23-.02-.46-.06-.67-.02-.13-.04-.27-.08-.38-.02-.13-.06-.27-.1-.38-.31-.92-.88-1.57-1.61-1.82-.1-.04-.19-.08-.29-.1-.15-.04-.31-.06-.48-.06s-.54.04-.54.04c-.75.11-1.47.23-2.2.33-3.48.54-6.9.86-10.46.96h-23.87c-2.22,0-3.29-1.59-2.64-4,.36-1.84.71-3.67.92-5.58.73-6.39-6.56-7.52-7.55-1.91-.42,2.47-.99,4.88-1.65,7.19-.78,2.62-2.98,4.3-5.41,4.3h-32.03c-1.07,0-1.86.88-1.86,2.08,0,1.28.78,2.24,1.86,2.24h30.31c2.43,0,3.29,1.59,2.14,3.98-8.05,15.11-21.32,24.53-37.16,29.72-1.57.48-1.15,2.72.29,2.56,18.89-2.41,37.02-13.58,45.86-32.11,1.36-2.64,3.63-4.15,5.85-4.15h25.36Z"/>
        <path class="cls-1" d="M322.53,20.46c25.11.63,55.36-2.24,74.33-10.54,4.99-2.08,2.43-9.91-2.72-7.84-17.25,7.19-48.21,13.02-71.75,15.66-1.57.15-1.28,2.72.13,2.72Z"/>
        <path class="cls-1" d="M301.57,68.06c3.27,4.63,9.56.15,6.43-5.76-4.44-8.62-14.13-15.16-24.4-18.2-1.28-.4-1.78,1.36-.99,2.08,6.69,5.74,13.69,13.73,18.97,21.88Z"/>
        <path class="cls-1" d="M312.7,79.4c-5.28,20.14-14.99,37.86-27.25,50.79-4.28,4.15.42,11.19,4.57,7.82,13.12-11.82,23.6-33.37,25.03-57.98.08-1.74-2.01-2.06-2.35-.63Z"/>
        <path class="cls-1" d="M403.57,134.51c-13.14-3.19-28.11-9.1-39.66-21.25-1.15-1.13-2.35.32-1.72,1.59,8.41,16.94,24.69,25.72,39.53,28.91,5.99,1.28,7.27-7.97,1.86-9.26Z"/>
        <path class="cls-1" d="M309.41,28.28c3.29,4.95,9.56.48,6.56-5.58-4.55-8.62-14.4-15.49-24.67-18.38-1.28-.31-1.8,1.53-.86,2.24,6.85,5.6,13.69,13.75,18.97,21.72Z"/>
      </g>
      <g>
        <path class="cls-1" d="M84.45,90.58c-1.47,0-2.61.67-3.38,1.87-1.16,1.8-2.19,4.16-7.49,4.19h-25.17c-5.31-.03-6.33-2.38-7.5-4.19-.78-1.2-1.91-1.87-3.38-1.87-2.08,0-3.58,1.84-3.58,4.23v34.98c0,2.24,1.43,3.92,3.58,3.92s3.63-1.51,4.05-4.47c.08-.85.2-1.89.31-2.71.16-1.25.69-2.42,1.57-3.33,1.05-1.09,2.73-2.24,5.17-2.26h24.87c2.6.02,4.34,1.32,5.37,2.46.76.84,1.23,1.91,1.37,3.04.03.26.06.53.09.81.34,2.39,1.63,4.38,4.13,4.38,2.14,0,3.56-1.66,3.56-4.07v-32.74c0-2.39-1.49-4.23-3.56-4.23ZM80.74,112.63c0,2.54-1.43,4.15-3.71,4.15h-32.09c-2.3,0-3.71-1.61-3.71-4.15v-7.67c0-2.56,1.41-4.17,3.71-4.17h32.09c2.28,0,3.71,1.61,3.71,4.17v7.67Z"/>
        <path class="cls-1" d="M46.22,2.4c6.69,4.95,10.56,8.95,15.55,15.01,3.92,4.8,9.12-.63,6.14-5.74C64.33,5.75,55.34,1.29,46.93.01c-1.28-.17-1.86,1.59-.71,2.39Z"/>
        <path class="cls-1" d="M34.34,68.72h0s2.19-4.19,7.53-4.19c.02,0,.03,0,.06,0h37.81s.03,0,.06,0c5.34,0,7.53,4.19,7.53,4.19h0c1.07,1.74,2.28,2.52,3.88,2.52,2.22,0,3.79-1.68,3.79-4.07v-28.82c0-2.41-1.64-4.17-3.79-4.17-1.49,0-2.6.71-3.5,1.78-.1.1-.17.21-.25.32-.06.08-.13.17-.19.27-.04.06-.08.1-.11.15-.9,1.17-2.96,3.21-6.5,3.38h-39.68c-3.71-.17-5.79-2.39-6.64-3.54,0,0-.02,0-.02-.02-.13-.17-.29-.36-.44-.52-.88-.99-1.99-1.66-3.44-1.66-2.14,0-3.77,1.76-3.77,4v28.82c0,2.39,1.57,4.07,3.77,4.07,1.62,0,2.83-.78,3.9-2.52ZM34.38,48.41c0-2.56,1.49-4.15,3.71-4.15h45.49c2.29,0,3.71,1.59,3.71,4.15v7.82c0,2.47-1.42,4.15-3.71,4.15h-45.49c-2.22,0-3.71-1.68-3.71-4.15v-7.82Z"/>
        <path class="cls-1" d="M108.98,72.68c-1.63,0-2.79.9-3.71,2.22,0,0-.17.23-.23.31-.02.04-.06.1-.1.15-.04.06-.08.11-.11.17-.84,1.15-2.93,3.37-6.62,3.54H22.7c-3.71-.17-5.79-2.39-6.64-3.54-.04-.06-.08-.11-.11-.17-.04-.06-.32-.46-.32-.46-.94-1.32-2.1-2.22-3.71-2.22-2.14,0-3.79,1.91-3.79,4.47v64.37c0,2.56,1.57,4.32,3.84,4.32s3.86-1.76,3.86-4.32v-53.74c0-2.72,1.64-4.55,4.05-4.55h81.1c2.43,0,4.07,1.84,4.07,4.55v33.69c0,12.22-2.22,17.98-13.77,20.04-1.57.32-1.28,2.41-.08,2.56,15.49,1.84,21.55-6.16,21.55-20.37v-46.56c0-2.56-1.64-4.47-3.79-4.47Z"/>
        <path class="cls-1" d="M120.26,24.18c-.23-1.66-1.22-2.75-2.54-2.75-.06,0-.54.06-.54.06-.54.1-1.09.17-1.63.25-3.67.57-7.31.92-11.05,1.03H1.91c-1.07,0-1.91.88-1.91,2.16s.84,2.16,1.91,2.16h102.61c4.26.11,8.36.57,12.54,1.28,0,0,.48.06.65.06,1.32,0,2.31-1.09,2.54-2.75.04-.25.06-.48.06-.75s-.02-.5-.06-.75Z"/>
      </g>
    </g>
  </g>
</svg>