<?xml version="1.0" encoding="UTF-8"?>
<svg id="_圖層_1" data-name="圖層 1" xmlns="http://www.w3.org/2000/svg" viewBox="0 0 181.85 56.17">
  <defs>
    <style>
      .cls-1 {
        fill: #231815;
      }
    </style>
  </defs>
  <path class="cls-1" d="M111.69,35.51c-.09,0-.29.03-.3.03-1.59.26-3.06.41-4.47.46h-3.43c-.67,0-.91-.57-.91-1.09v-6.09c0-.53.24-1.09.91-1.09h2.31c1.5.05,3,.2,4.63.47,0,0,.2.03.3.03.79,0,1.41-.62,1.53-1.53,0,0,0-.02,0-.03.02-.12.03-.24.03-.37,0-.19-.03-.38-.08-.57h0s-.01-.05-.02-.07h0c-.21-.75-.78-1.23-1.47-1.23-.1,0-.3.03-.3.03-1.69.27-3.16.42-4.62.47h-4.27c1.92-1.67,3.42-3.91,4.25-6.35.45-1.39-.29-2.59-1.26-2.93-.84-.3-1.94.02-2.48,1.41-.96,2.51-2.4,5.02-3.92,6.88-.55.6-1.42,1-2.16,1h-6.31c.83-.55,1.32-1.8.63-3.23-1.61-3.32-4.88-5.04-6.69-5.77,0,0,0,0-.01,0-.42-.16-.88,0-1.15.38-.29.43-.27.98.07,1.36,1.54,1.67,3.24,4.38,4.32,6.37.23.41.52.7.82.89h-9.06c-.74,0-1.29.59-1.29,1.37s.55,1.43,1.29,1.43h8.12c-.62.35-1.02,1.02-1.02,1.84v1.25c0,1.31.01,2.66-.03,4.09-.01.68-.38,1.11-.97,1.11h-7.94c-.38,0-.71.16-.94.43.89-5.73,1.04-11.91,1.04-18.23v-2.05c0-.53.24-1.09.92-1.09h26.7c1.29,0,1.99.81,2.21,1.13,0,.02.02.04.05.08h0s.03.05.04.07c.47.81,1.1,1.22,1.88,1.22,1.11,0,1.92-.89,1.92-2.12V3.39c0-1.19-.79-2.02-1.92-2.02-.74,0-1.32.33-1.84,1.09,0,.01-.03.05-.05.09-.23.34-.91,1.14-2.22,1.14h-25.71c-1.29,0-1.99-.81-2.2-1.12-.01-.02-.03-.06-.06-.1,0,0,0,0,0,0-.01-.03-.03-.05-.04-.07-.47-.69-1.05-1.03-1.8-1.03-1.14,0-1.93.83-1.93,2.02v12.37c0,15.01-.51,28.23-6.81,37.96-.34.53-.23,1.22.26,1.61.19.16.42.23.65.23.28,0,.56-.12.79-.35,4.39-4.78,6.68-10.72,7.89-17.31.18.53.64.89,1.2.89h7.81c.24,0,.42.07.54.2.15.17.21.46.16.8-.97,6.47-3.9,10.67-9.53,13.62-.51.27-.72.86-.5,1.41.16.41.52.66.91.66.08,0,.16,0,.24-.03,7.9-2.1,11.89-6.87,12.95-15.5.07-.72.48-1.16,1.08-1.16h7.33c.67,0,.91.57.91,1.09v13.07c0,1.23.85,2.15,1.98,2.15s1.93-.92,1.93-2.15v-13.07c0-.53.24-1.09.91-1.09h3.27c1.5.05,3,.2,4.63.47,0,0,.2.03.29.03.8,0,1.44-.65,1.54-1.54.02-.12.03-.24.03-.35,0-.16-.01-.29-.04-.42-.14-.89-.75-1.49-1.53-1.49ZM76.89,11.22v-3.69c0-.53.24-1.09.92-1.09h27.98c.68,0,.92.57.92,1.09v3.69c0,.53-.24,1.09-.92,1.09h-27.98c-.68,0-.92-.57-.92-1.09ZM98.67,28.81v6.09c0,.53-.24,1.09-.91,1.09h-7.25c-.24,0-.44-.08-.59-.22-.18-.19-.28-.49-.27-.86.02-1.19,0-2.43,0-3.56,0-.64-.01-1.25-.01-1.79,0-.82-.39-1.5-.99-1.84h9.13c.67,0,.91.57.91,1.09Z"/>
  <path class="cls-1" d="M171.51,8.23c-1.63,4.06-2.43,5.41-5.03,8.45-.36.39-.39.96-.09,1.38.19.26.48.4.78.4.14,0,.27-.03.41-.09,0,0,0,0,.01,0,4.13-2.05,6.66-4.88,7.72-8.68.37-1.46-.39-2.45-1.25-2.74-.83-.28-1.98,0-2.54,1.29Z"/>
  <path class="cls-1" d="M150.3,9.2c-.38-.15-.82-.02-1.09.32-.3.37-.32.87-.03,1.32,1.48,1.97,2.18,3.43,3.06,5.27l.34.7c.49.98,1.24,1.37,1.92,1.37.24,0,.47-.05.68-.13.91-.37,1.58-1.52,1.11-2.99-.84-2.63-3.64-4.93-5.99-5.85Z"/>
  <path class="cls-1" d="M147.85,8.81c.89.02,1.78.03,2.66.03,2.63,0,5.21-.1,7.68-.29-.27.35-.3.82-.04,1.26,1.66,2.26,2.59,4.1,3.4,5.79.49,1.02,1.25,1.43,1.96,1.43.24,0,.48-.05.69-.14.93-.38,1.62-1.57,1.16-2.88-.91-2.69-3.55-4.65-5.68-5.59,6.43-.6,12.08-1.84,16.07-3.59,1.33-.55,1.61-1.92,1.19-2.92-.37-.9-1.35-1.63-2.67-1.1-6.37,2.66-17.92,4.82-26.53,5.79-.57.06-.96.53-.93,1.13.03.61.47,1.07,1.03,1.08Z"/>
  <path class="cls-1" d="M139.55,26.26s0,.01.01.02c.45.63,1.08.97,1.72.97.34,0,.69-.1,1.02-.3.94-.58,1.47-1.94.67-3.44-1.63-3.16-5.16-5.81-9.44-7.07-.46-.14-.9.03-1.14.43-.25.44-.18,1.02.2,1.37,2.51,2.15,5.04,5.07,6.95,8.01Z"/>
  <path class="cls-1" d="M144.75,29.22c-.53-.07-1,.25-1.13.78-1.89,7.22-5.44,13.84-9.98,18.62-1.13,1.09-.97,2.68-.17,3.58.4.46.91.69,1.43.69.43,0,.87-.16,1.26-.48,5.36-4.83,9-13.25,9.51-22,.03-.69-.44-1.12-.93-1.19Z"/>
  <path class="cls-1" d="M178.16,50.08c-6.22-1.51-10.95-4.04-14.48-7.75-.28-.27-.63-.37-.96-.29.23-.13.47-.22.72-.22h9.43c1.28.05,2.57.17,3.94.38,0,0,.54.08.54.08h0s.2.03.29.03c.8,0,1.44-.65,1.54-1.55.02-.12.03-.24.03-.37,0-.12-.01-.24-.03-.34,0-.06-.02-.12-.04-.18-.01-.07-.03-.14-.05-.2-.18-.52-.52-.9-.94-1.04-.07-.03-.15-.06-.18-.06-.11-.03-.21-.04-.33-.04-.08,0-.26.02-.26.02-.01,0-.11.02-.13.02-.24.04-.48.07-.72.11-1.31.2-2.55.32-3.8.35h-8.88c-.11,0-.3-.02-.38-.13-.09-.11-.09-.34-.01-.65.13-.66.27-1.38.35-2.13.15-1.33-.48-2.22-1.28-2.56,2.62-.13,5.67-.24,8.97-.24.71,0,1.24-.52,1.3-1.23.39.86.78,1.78,1.16,2.81.4,1.04,1.17,1.46,1.89,1.46.19,0,.37-.03.54-.08.93-.3,1.69-1.35,1.31-2.8-1.18-4.59-4.79-6.75-6.29-7.47-.41-.2-.85-.11-1.14.23-.32.38-.35.97-.06,1.38.72.99,1.35,2.01,1.94,3.15-.2-.11-.43-.18-.71-.18-3.67,0-7.48.12-11.33.36,4.79-2.98,8.69-6.28,11.03-9.35.75-1.1.36-2.39-.45-2.99-.67-.5-1.69-.58-2.46.37-1.59,1.86-3.37,3.57-5.31,5.16.22-.46.18-1.06-.11-1.49-.26-.38-.67-.58-1.13-.55l-3.62.27c1.79-1.41,2.97-2.57,3.44-3.15.88-1.03.55-2.3-.21-2.98-.77-.69-1.8-.65-2.5.1-1.78,1.94-5.46,4.66-8.93,6.6-1.15.65-1.27,1.91-.79,2.81.36.68.98,1.06,1.63,1.06.26,0,.53-.06.79-.19h.02s.38-.21.38-.21c.28-.15.57-.31.88-.47.48-.29,1.2-.52,1.83-.57l7.29-.53c.09,0,.17-.03.25-.05-3.95,3.08-8.59,5.61-13.86,7.56-.65.23-1.09.75-1.21,1.45-.14.78.15,1.62.71,2.1.3.25.67.38,1.05.38.21,0,.43-.04.65-.12,1.1-.41,2.27-.88,3.57-1.44.75-.33,1.71-.59,2.41-.63,1.28-.12,3.14-.28,5.43-.42-.5.28-.92.8-1.06,1.59-.14.83-.34,1.69-.6,2.6-.21.7-.79,1.17-1.44,1.17h-11.92c-.74,0-1.29.59-1.29,1.38s.55,1.43,1.29,1.43h11.28c.23,0,.35.05.37.09.02.03.05.2-.1.51-2.72,5.11-7.26,8.73-13.47,10.77-.56.17-.89.71-.77,1.29.1.5.51.84,1.01.84.04,0,.08,0,.12,0,7.78-.99,14.34-5.58,17.53-12.27.08-.15.17-.28.26-.4-.13.3-.14.66.02.98,2.77,5.57,8.28,9.61,15.12,11.08.18.04.35.06.53.06,1.02,0,1.85-.67,2.1-1.77.26-1.16-.24-2.57-1.67-2.91Z"/>
  <path class="cls-1" d="M142.48,11.46s0,0,0,0c.5.75,1.17,1.05,1.78,1.05.34,0,.67-.09.95-.25.96-.55,1.52-1.92.74-3.49-1.7-3.22-5.36-5.96-9.57-7.14-.47-.11-.92.11-1.13.55-.22.48-.09,1.04.29,1.33,2.32,1.9,4.85,4.8,6.94,7.95Z"/>
  <path class="cls-1" d="M33.95,35.89c0-1.24-.83-2.17-1.92-2.17-.73,0-1.36.34-1.76.97l-.11.17c-.37.59-.69,1.11-2.18,1.12h-9.36c-1.49,0-1.81-.52-2.18-1.12l-.11-.17c-.4-.63-1.03-.97-1.76-.97-1.1,0-1.93.93-1.93,2.17v13.02c0,1.19.81,2.06,1.93,2.06.54,0,1.82-.21,2.11-2.21.03-.31.07-.69.11-.99.04-.35.19-.66.42-.9.42-.43.92-.65,1.49-.66h9.25c.61,0,1.13.25,1.55.72.2.22.32.5.36.81.01.09.02.18.04.31.19,1.32,1.01,2.14,2.13,2.14s1.92-.87,1.92-2.12v-12.18ZM30.05,39.66v2.85c0,.43-.14.94-.78.94h-11.94c-.65,0-.78-.51-.78-.94v-2.85c0-.43.14-.95.78-.95h11.94c.65,0,.78.52.78.95Z"/>
  <path class="cls-1" d="M17.45,1.98c2.5,1.85,3.92,3.35,5.67,5.48.55.67,1.15.91,1.68.91.4,0,.76-.13,1.04-.33.88-.61,1.33-2.05.54-3.41C24.84,2.07,21.14.47,18.15.01c-.48-.07-.92.2-1.1.65-.19.48-.02,1.02.4,1.32Z"/>
  <path class="cls-1" d="M13.89,26.49s.01-.02.02-.03c.03-.05.69-1.24,2.29-1.24h14.09c1.57,0,2.25,1.2,2.28,1.25,0,0,.01.02.02.03.51.82,1.15,1.22,1.96,1.22,1.16,0,2.01-.89,2.01-2.12v-10.73c0-1.23-.86-2.15-2.01-2.15-.68,0-1.27.29-1.73.84-.06.06-.11.13-.15.19-.03.04-.07.09-.1.14-.28.36-.91.97-1.94,1.03h-14.74c-1.11-.05-1.74-.69-2.01-1.07-.01-.02-.03-.03-.04-.05-.06-.07-.12-.15-.17-.19-.48-.54-1.06-.82-1.73-.82-1.12,0-2,.92-2,2.09v10.73c0,1.23.84,2.12,2,2.12.81,0,1.45-.4,1.96-1.22ZM14,21.53v-2.91c0-.35.1-.94.78-.94h16.93c.52,0,.78.32.78.94v2.91c0,.35-.1.94-.78.94H14.78c-.72,0-.78-.72-.78-.94Z"/>
  <path class="cls-1" d="M41.16,27.05c-.74,0-1.37.36-1.86,1.07l-.08.11s-.07.09-.08.13c-.28.38-.91,1.02-1.98,1.07H9.08c-1.11-.05-1.74-.69-2.04-1.11l-.13-.19c-.51-.71-1.14-1.08-1.87-1.08-1.15,0-2.01.97-2.01,2.26v23.96c0,1.28.85,2.21,2.03,2.21s2.04-.93,2.04-2.21v-20c0-.53.24-1.09.91-1.09h30.18c.68,0,.92.57.92,1.09v12.54c0,4.26-.64,6.16-4.65,6.87-.54.11-.9.57-.88,1.11.02.53.4.96.9,1.03,2.78.33,4.93-.16,6.39-1.46,1.53-1.36,2.3-3.62,2.3-6.72v-17.33c0-1.29-.86-2.26-2.01-2.26Z"/>
  <path class="cls-1" d="M44.41,7.98s-.27.03-.31.03c-.17.03-.35.06-.59.09-1.36.21-2.68.34-4.02.38H1.31c-.75,0-1.31.6-1.31,1.4s.56,1.4,1.31,1.4h38.18c1.45.04,2.95.19,4.61.47,0,0,.23.03.31.03.79,0,1.41-.62,1.54-1.53.02-.12.03-.24.03-.37s0-.24-.03-.36c-.13-.92-.75-1.54-1.54-1.54Z"/>
</svg>