<?xml version="1.0" encoding="UTF-8"?>
<svg id="_圖層_2" data-name="圖層 2" xmlns="http://www.w3.org/2000/svg" viewBox="0 0 407.94 143.61">
  <defs>
    <style>
      .cls-1 {
        fill: #231815;
      }
    </style>
  </defs>
  <g id="_中文" data-name="中文">
    <g>
      <path class="cls-1" d="M100.05,10.65h-45.83c-3.85-.05-6.02-2.28-6.9-3.45-.07-.1-.14-.2-.21-.3-.17-.23-.28-.36-.28-.36-.81-.97-1.8-1.62-3.1-1.62-1.92,0-3.4,1.75-3.4,3.97v32.71c0,2.23,1.41,3.82,3.4,3.82,1.72,0,3.03-1.16,3.75-2.87.11-.21,2.3-4.13,7.47-4.13.08,0,.13,0,.2,0h44.32c.07,0,.12,0,.2,0,5.31,0,6.42,2.3,7.5,4.16.88,1.52,2.01,2.19,3.37,2.19,2,0,3.4-1.58,3.4-3.88V8.9c0-2.22-1.48-3.97-3.4-3.97-1.3,0-2.27.65-3.11,1.63-1.37,1.6-2.17,4.02-7.38,4.09ZM91.68,19.06c0-2.62,1.5-4.28,3.84-4.28h7.66c2.34,0,3.82,1.65,3.82,4.28v10.97c0,2.61-1.48,4.28-3.82,4.28h-7.66c-2.34,0-3.84-1.67-3.84-4.28v-10.97ZM69.54,19.06c0-2.62,1.5-4.28,3.84-4.28h7.8c2.34,0,3.84,1.65,3.84,4.28v10.97c0,2.61-1.5,4.28-3.84,4.28h-7.8c-2.34,0-3.84-1.67-3.84-4.28v-10.97ZM47.27,19.06c0-2.62,1.5-4.28,3.84-4.28h7.93c2.36,0,3.84,1.65,3.84,4.28v10.97c0,2.61-1.48,4.28-3.84,4.28h-7.93c-2.34,0-3.84-1.67-3.84-4.28v-10.97Z"/>
      <path class="cls-1" d="M25.86,75.92c-4.26,20.98-11.77,39.41-23.28,53.23-3.82,4.6,1.71,10.63,5.4,6.83,12.34-13.03,20.71-36.71,20.14-59.89,0-1.43-1.98-1.6-2.26-.17Z"/>
      <path class="cls-1" d="M32.38,22.71C28.12,13.83,18.61,6.68,8.55,3.33c-1.27-.4-1.85,1.43-1.01,2.22,6.68,5.88,13.2,14.15,18.16,22.4,3.12,5.08,9.51.8,6.67-5.25Z"/>
      <path class="cls-1" d="M19.34,65.12c3.12,4.7,9.43.17,6.37-5.71-4.47-8.58-14.47-15.25-24.53-18.28-1.27-.4-1.5,1.52-.72,2.23,6.68,5.72,13.48,13.75,18.89,21.76Z"/>
      <path class="cls-1" d="M113.46,49.31c-1.42,0-2.55.68-3.54,2.11,0,0-.04.06-.06.1-.05.07-.1.15-.15.23-.63.96-2.85,3.83-7.28,3.83-.17,0-.3,0-.45.01h-37.52c-1.06,0-1.84.87-1.84,2.07s.78,2.07,1.84,2.07h41.14c2.42,0,4.05,1.83,3.97,4.53l-.7,46.29c-.36,21.6-6.96,26.85-24.27,29.08-1.41.15-1.27,2.15,0,2.38,20.16,3.65,31.21-7.3,31.49-27.16l.86-59.01v-2.62c.08-2.22-1.35-3.8-3.48-3.9Z"/>
      <path class="cls-1" d="M86.01,114.22c-2.83.86-5.74,1.58-8.81,2.21-2.19.4-3.69-.95-3.69-3.48v-9.3c0-2.62,1.56-4.37,3.9-4.37h5.53c3.42.02,5.17,2.2,5.69,2.99.06.09.12.18.17.27,0,0,.01.02.01.02h0c.83,1.26,1.91,2.11,3.43,2.11,1.85,0,3.27-1.58,3.27-3.8v-24.7c0-2.3-1.5-3.58-3.2-3.58-1.44,0-2.42.69-3.3,1.81-1.01,1.28-2.03,2.96-5.81,2.96-.17,0-.29,0-.43,0h-5.59c-2.19,0-3.69-1.67-3.69-4.15v-4.75c0-2.3-1.48-3.97-3.54-3.97s-3.4,1.67-3.4,3.97v4.75c0,2.47-1.43,4.15-3.69,4.15h-8.65c-.72,0-1.35-.17-1.77-1.2-.44-.95-.86-2.07-1.14-3.18-.29-.87-.21-1.67.34-2.38,5.61-6.68,10-14.93,12.49-24.23,1.48-5.55-5.32-7.63-6.96-2.7-5.46,16.83-14.4,29.54-26.87,40.74-1.07.97-.15,2.7,1.07,2.15,3.54-1.58,7.02-3.73,10.35-6.28,2.13-1.5,3.12-.55,3.12,1.83v18.75c0,2.22,1.43,3.8,3.27,3.8,1.52,0,2.6-.85,3.44-2.12,0,0,.14-.21.19-.3.53-.79,2.27-2.96,5.68-2.98h5.08c2.49,0,4.05,1.75,4.05,4.53v9.93c0,2.8-1.56,4.77-3.97,5.1-7.25.87-14.55,1.35-21.57,1.58-4.83.17-4.68,7.8.29,7.8,14.76,0,33.47-3.58,45.4-12,.93-.63.29-2.3-.7-1.98ZM73.52,85.3c0-2.3,1.35-3.8,3.4-3.8h8.52c2.05,0,3.4,1.5,3.4,3.8v6.05c0,2.3-1.35,3.8-3.4,3.8h-8.52c-2.05,0-3.4-1.5-3.4-3.8v-6.05ZM66.58,91.34c0,2.3-1.35,3.8-3.4,3.8h-8.24c-2.05,0-3.4-1.5-3.4-3.8v-6.05c0-2.3,1.35-3.8,3.4-3.8h8.24c2.05,0,3.4,1.5,3.4,3.8v6.05Z"/>
      <path class="cls-1" d="M85.58,106.1c-.84-.38-1.77.87-1.12,1.75,4.11,5.4,6.73,10.5,9.64,16.85,2.05,4.45,8.03,2.23,6.67-3.02-1.64-6.2-8.1-12.23-15.2-15.58Z"/>
      <path class="cls-1" d="M227.47,62.91c13.47-4.45,24.89-15.1,29.93-26.7,2.62-6.03-3.84-10-6.68-4.93-6.24,11.13-13.48,21.3-24.27,29.23-1.12.8-.29,2.8,1.01,2.4Z"/>
      <path class="cls-1" d="M264.92,114.85c-26.95-18.98-43.99-45.03-54.33-82.44-.78-2.95-1.27-7-1.27-10.08V4.28c0-2.53-1.56-4.28-3.84-4.28s-3.82,1.75-3.82,4.28v104.85c0,19.85-4.68,27.8-22.56,30.03-1.43.15-1.43,2.38,0,2.7,19.57,4.6,30.22-5.88,30.22-28.28V46.78c.13-2.38,1.12-2.87,1.9-.25,8.81,32.41,24.69,60.36,49.16,77.04,5.4,3.65,9.09-5.23,4.55-8.73Z"/>
      <path class="cls-1" d="M188.16,34.94c-1.63,0-2.96,1.03-3.85,2.61-1.46,2.58-3.26,5.98-10.22,5.98h-25.94c-1.07,0-1.84.87-1.84,2.05s.78,2.07,1.84,2.07h30.09c2.76,0,4.26,1.98,3.69,5.08-5.74,28.68-17.46,51.06-38.87,69.74-1.07.87-.08,2.78.99,2.22,28.53-15.4,44.56-46.23,48.1-84.67.29-3.35-1.84-5.1-3.97-5.1Z"/>
      <path class="cls-1" d="M369.19,35.43c-2.42-7.15-9.79-12.25-15.31-14.45-.93-.4-1.71.78-1.14,1.73,4.55,6.2,7.09,11.28,9.22,15.73,2.83,5.88,8.94,1.9,7.23-3.01Z"/>
      <path class="cls-1" d="M327.62,92.45c3.19-1.18,6.31-2.45,9.45-3.8,1.98-.87,4.74-1.67,6.94-1.83,9.22-.87,24.97-2,43.06-2,2.55,0,2.7-4.13-.13-4.13-11.92,0-22.78.48-31.44,1.03-3.33.25-3.61-.7-.63-2.45,12.84-7.87,23.62-16.83,29.93-25.1,2.7-3.97-2.13-8.9-5.25-5.08-11.92,13.98-29.52,27.16-54.05,36.21-4.13,1.45-2.13,8.75,2.11,7.15Z"/>
      <path class="cls-1" d="M375.94,45.03c9.64-4.77,16.81-11.53,19.78-22.16,1.43-5.57-4.96-7.8-7.09-2.87-4.39,10.97-6.66,14.78-13.75,23.05-.93,1.03.06,2.45,1.07,1.98Z"/>
      <path class="cls-1" d="M332.87,67.04c1.07-.57,2.21-1.2,3.27-1.75,1.56-.95,3.77-1.6,5.61-1.75l19.49-1.43c2.42-.15,2.13-4.3-.29-4.13l-10.5.78c-2.76.17-3.12-.78-.78-2.53,4.7-3.65,8.1-6.92,9.45-8.58,3.12-3.65-1.71-8.9-4.83-5.57-4.68,5.1-14.34,12.4-24.27,17.95-4.26,2.4-.99,8.9,2.83,7Z"/>
      <path class="cls-1" d="M344.95,38.13c-2.13-6.68-9.38-12.4-15.04-14.63-.86-.32-1.84.8-1.14,1.9,4.55,6.05,6.39,10.33,9.22,16.2,2.7,5.4,8.79,2.23,6.96-3.48Z"/>
      <path class="cls-1" d="M386.16,68.31c-1.14-.57-1.84,1.03-1.22,1.9,4.26,5.88,7.25,11.91,10.21,19.85,2,5.25,8.39,2.7,6.96-2.85-2.42-9.38-9.3-15.73-15.96-18.9Z"/>
      <path class="cls-1" d="M390.8,107.55c3.65.13,7.17.49,10.75,1.05,0,0,1.35.21,1.43.21,0,0,.36.06.53.06,1.31,0,2.34-1.1,2.53-2.8.04-.25.06-.48.06-.74,0-.23-.02-.46-.06-.67-.02-.13-.04-.27-.08-.38-.02-.13-.06-.27-.1-.38-.3-.91-.87-1.56-1.6-1.81-.09-.04-.19-.08-.29-.1-.15-.04-.3-.06-.48-.06s-.53.04-.53.04c-.74.11-1.46.23-2.19.32-3.46.53-6.87.86-10.4.95h-23.73c-2.21,0-3.27-1.58-2.62-3.97.36-1.83.7-3.65.91-5.55.72-6.35-6.52-7.47-7.51-1.9-.42,2.45-.99,4.85-1.64,7.15-.78,2.61-2.97,4.28-5.38,4.28h-31.86c-1.07,0-1.85.87-1.85,2.07,0,1.27.78,2.23,1.85,2.23h30.14c2.42,0,3.27,1.58,2.13,3.96-8.01,15.02-21.21,24.4-36.95,29.55-1.56.48-1.14,2.7.29,2.55,18.79-2.4,36.82-13.5,45.61-31.93,1.35-2.62,3.61-4.13,5.82-4.13h25.22Z"/>
      <path class="cls-1" d="M323.93,19.38c24.97.63,55.06-2.22,73.92-10.48,4.96-2.07,2.42-9.85-2.7-7.8-17.15,7.15-47.94,12.95-71.36,15.58-1.56.15-1.27,2.7.13,2.7Z"/>
      <path class="cls-1" d="M303.09,66.72c3.25,4.6,9.51.15,6.39-5.72-4.41-8.58-14.05-15.08-24.27-18.1-1.27-.4-1.77,1.35-.99,2.07,6.66,5.71,13.62,13.65,18.87,21.76Z"/>
      <path class="cls-1" d="M314.15,77.99c-5.25,20.03-14.91,37.66-27.1,50.51-4.26,4.13.42,11.13,4.55,7.78,13.05-11.75,23.47-33.19,24.89-57.66.08-1.73-2-2.05-2.34-.63Z"/>
      <path class="cls-1" d="M404.53,132.8c-13.07-3.18-27.96-9.05-39.44-21.13-1.14-1.12-2.34.32-1.71,1.58,8.37,16.85,24.55,25.58,39.31,28.76,5.95,1.27,7.23-7.93,1.85-9.2Z"/>
      <path class="cls-1" d="M310.88,27.16c3.27,4.93,9.51.48,6.52-5.55-4.53-8.58-14.32-15.4-24.53-18.28-1.27-.3-1.79,1.52-.86,2.22,6.81,5.57,13.62,13.67,18.87,21.6Z"/>
    </g>
  </g>
</svg>