<?xml version="1.0" encoding="UTF-8"?>
<svg id="_圖層_1" data-name="圖層 1" xmlns="http://www.w3.org/2000/svg" viewBox="0 0 181.34 56.17">
  <defs>
    <style>
      .cls-1 {
        fill: #231815;
      }
    </style>
  </defs>
  <path class="cls-1" d="M9.82,11.5c.5.81,1.19,1.13,1.83,1.13.33,0,.64-.08.91-.23.98-.53,1.58-1.89.84-3.46,0,0,0,0,0,0-1.59-3.32-5.19-6.25-9.38-7.65-.46-.14-.91.03-1.15.44-.27.45-.19,1.06.19,1.42,2.35,2.07,4.82,5.11,6.76,8.35Z"/>
  <path class="cls-1" d="M7.42,25.59c.43.65,1.07,1,1.73,1,.33,0,.67-.09.98-.28.97-.57,1.54-1.96.74-3.5-1.65-3.16-5.34-5.92-9.64-7.22-.44-.13-.86.03-1.08.41-.26.45-.16,1.11.24,1.46,2.36,2.03,4.93,4.99,7.04,8.12Z"/>
  <path class="cls-1" d="M43.58,18.67c-.74.02-1.37.35-1.89,1.1l-.06.1c-.23.35-.91,1.18-2.25,1.18h-14.38c-.17,0-.33.04-.47.1.37-.92.69-1.86.95-2.83.32-1.21-.18-2.14-.93-2.57h13.8c1.59,0,1.9.55,2.32,1.28.54.93,1.27,1.13,1.79,1.13,1.09,0,1.89-.87,1.89-2.07V3.97c0-1.18-.83-2.11-1.89-2.11-.62,0-1.16.27-1.63.83-.09.11-.18.22-.27.34-.39.52-.72.98-2.08,1h-17.34c-1.18-.02-1.85-.67-2.12-1.04l-.09-.13c-.08-.11-.13-.17-.13-.17-.46-.55-1.01-.83-1.63-.83-1.06,0-1.89.92-1.89,2.11v12.38c0,1.19.79,2.05,1.89,2.05.86,0,1.58-.53,1.95-1.4.03-.05.7-1.25,2.38-1.25h1.14c-.4.23-.75.62-.94,1.2-1.91,5.89-5.06,10.68-9.88,15.05.04-.87.06-1.73.04-2.59,0-.55-.39-.98-.92-1.03-.53-.05-1.01.3-1.12.85-1.68,8.3-4.61,14.99-8.69,19.89-1.03,1.24-.67,2.72.18,3.49.4.36.87.54,1.33.54.51,0,1.02-.21,1.43-.64,4.06-4.29,6.9-11.45,7.62-18.73.29.25.69.33,1.06.16,1.34-.6,2.69-1.42,4.02-2.43.09-.06.16-.1.21-.12.01.07.03.17.03.33v7.1c0,1.16.79,2.04,1.84,2.04.73,0,1.33-.36,1.8-1.07l.07-.11c.17-.26.67-.85,1.65-.86h1.93c.81,0,.93.7.93,1.11v3.76c0,.75-.37,1.25-.98,1.33-2.48.3-5.21.5-8.11.59-1.28.04-1.93,1.09-1.92,2.09.02,1.02.73,2.06,2.04,2.06,5.29,0,12.68-1.22,17.52-4.65.12-.08.21-.19.28-.3.56,1.01,1.08,2.08,1.63,3.28.41.89,1.14,1.25,1.81,1.25.22,0,.43-.04.62-.11.84-.3,1.59-1.27,1.22-2.69-.63-2.37-3.01-4.84-6.08-6.29h0c-.39-.18-.83-.06-1.12.29-.3.37-.32.9-.04,1.28.37.49.71.97,1.03,1.46-.05,0-.09,0-.14.02-1.03.31-2.1.58-3.26.82-.14.03-.34.03-.48-.08-.14-.11-.21-.34-.21-.65v-3.52c0-.66.33-1.06.88-1.06h2.09c.98,0,1.49.61,1.64.83l.05.07s.03.05.04.07c.46.71,1.07,1.07,1.8,1.07,1.05,0,1.84-.88,1.84-2.04v-9.35c0-1.28-.91-1.95-1.81-1.95s-1.41.52-1.72.91l-.08.11c-.33.42-.61.79-1.64.79h-2.28c-.59,0-.8-.5-.8-.97v-1.8c0-1.2-.83-2.1-1.94-2.1s-1.89.9-1.89,2.1v1.8c0,.29-.08.97-.8.97h-3.34s-.02-.01-.06-.11c-.16-.35-.3-.75-.41-1.14-.06-.2-.02-.28.02-.33,1.23-1.47,2.29-3.12,3.15-4.89.16.58.62.98,1.23.98h15.57c.26,0,.48.08.63.24.19.19.28.5.27.86l-.27,17.53c-.13,7.92-2.39,9.62-8.65,10.42-.52.06-.9.46-.92.98-.02.55.35,1.01.87,1.11.99.18,1.94.27,2.84.27,2.48,0,4.58-.67,6.19-2,2.29-1.89,3.54-5.05,3.6-9.14l.32-22.35v-.97c.04-1.16-.76-2.04-1.89-2.1ZM40.51,7.81v4.15c0,.38-.11,1.02-.85,1.02h-2.9c-.74,0-.85-.64-.85-1.02v-4.15c0-.38.11-1.02.85-1.02h2.9c.74,0,.85.64.85,1.02ZM32.19,7.81v4.15c0,.38-.11,1.02-.85,1.02h-2.95c-.74,0-.85-.64-.85-1.02v-4.15c0-.38.11-1.02.85-1.02h2.95c.74,0,.85.64.85,1.02ZM23.81,7.81v4.15c0,.38-.11,1.02-.85,1.02h-3c-.74,0-.85-.64-.85-1.02v-4.15c0-.38.11-1.02.85-1.02h3c.71,0,.85.55.85,1.02ZM10.39,29.34h0s0,0,0,0ZM20.71,35.18v-2.29c0-.31.09-.84.69-.84h3.12c.6,0,.69.53.69.84v2.29c0,.31-.09.84-.69.84h-3.12c-.6,0-.69-.53-.69-.84ZM29.03,35.18v-2.29c0-.31.09-.84.69-.84h3.23c.6,0,.69.53.69.84v2.29c0,.31-.09.84-.69.84h-3.23c-.6,0-.69-.53-.69-.84Z"/>
  <path class="cls-1" d="M97.75,25.04c.1,0,.2-.01.3-.05,0,0,0,0,.01,0,5.08-1.68,9.67-5.78,11.7-10.44.69-1.58.05-2.9-.94-3.38-.8-.4-1.97-.25-2.66.99-1.89,3.36-4.61,7.64-9.01,10.87-.44.31-.58.91-.33,1.41.19.38.55.6.93.6Z"/>
  <path class="cls-1" d="M112.42,43.61h-.02c-10-7.05-16.46-16.87-20.34-30.89-.28-1.05-.46-2.52-.46-3.66V2.22c0-1.29-.86-2.22-2.05-2.22s-2.05.93-2.05,2.22v39.7c0,7.58-1.8,10-8,10.77-.52.06-.91.47-.94,1.01-.03.57.33,1.07.87,1.19,1.2.28,2.31.42,3.35.42,2.06,0,3.81-.56,5.21-1.66,2.4-1.9,3.62-5.28,3.62-10.05v-23.61c3.71,12.58,10.05,22.2,18.4,27.89,1.05.71,2.19.53,2.9-.45.78-1.08.77-2.87-.48-3.83Z"/>
  <path class="cls-1" d="M84.51,13.89c-.39-.42-.94-.67-1.52-.67-.81,0-1.51.46-2.01,1.34-.53.94-1.08,1.91-3.32,1.91h-9.82c-.74,0-1.3.59-1.3,1.38s.56,1.38,1.3,1.38h11.39c.21,0,.49.04.67.25.17.2.22.54.14.96-2.22,11.08-6.83,19.37-14.51,26.06-.44.36-.52,1-.2,1.49.2.3.49.46.8.46.15,0,.29-.04.44-.11,10.54-5.69,17.12-17.24,18.52-32.53.08-.97-.27-1.58-.58-1.91Z"/>
  <path class="cls-1" d="M171.45,7.95c-1.65,4.11-2.46,5.47-5.09,8.55-.36.4-.4.97-.09,1.38.19.26.48.4.78.4.14,0,.28-.03.41-.09,0,0,0,0,.01,0,4.18-2.07,6.73-4.94,7.8-8.78.38-1.47-.39-2.47-1.26-2.76-.84-.29-1.99,0-2.56,1.31Z"/>
  <path class="cls-1" d="M149.98,8.94c-.38-.15-.82-.02-1.1.32-.3.37-.32.87-.03,1.33,1.5,2,2.2,3.47,3.1,5.33l.34.71c.49.99,1.25,1.38,1.94,1.38.24,0,.47-.05.69-.13.92-.37,1.59-1.53,1.12-3.02-.85-2.66-3.68-4.98-6.06-5.92Z"/>
  <path class="cls-1" d="M147.5,8.54c.91.02,1.81.03,2.7.03,2.67,0,5.27-.1,7.78-.3-.28.35-.31.84-.05,1.28,1.68,2.29,2.62,4.15,3.44,5.86.5,1.03,1.26,1.45,1.97,1.45.24,0,.48-.05.7-.14.94-.39,1.63-1.58,1.17-2.9-.92-2.73-3.61-4.71-5.77-5.67,6.52-.61,12.24-1.86,16.28-3.63,1.34-.56,1.62-1.94,1.2-2.95-.37-.91-1.37-1.64-2.69-1.11-6.45,2.69-18.13,4.88-26.84,5.85-.57.06-.97.53-.94,1.14.03.61.48,1.08,1.04,1.08Z"/>
  <path class="cls-1" d="M139.11,26.18v.02c.46.64,1.1.98,1.75.98.35,0,.7-.1,1.02-.3.94-.58,1.48-1.96.68-3.47-1.64-3.2-5.22-5.87-9.54-7.15-.46-.14-.91.03-1.15.44-.26.44-.18,1.03.2,1.38,2.54,2.18,5.1,5.13,7.03,8.11Z"/>
  <path class="cls-1" d="M144.36,29.2c-.53-.07-1,.25-1.13.78-1.92,7.3-5.51,14-10.1,18.84-1.14,1.1-.98,2.7-.18,3.61.41.46.92.7,1.44.7.43,0,.87-.16,1.27-.49,5.42-4.88,9.11-13.41,9.62-22.25.03-.69-.45-1.12-.93-1.19Z"/>
  <path class="cls-1" d="M178.16,50.3c-6.29-1.53-11.08-4.09-14.65-7.84-.32-.31-.73-.39-1.08-.24.27-.18.56-.29.85-.29h9.54c1.3.05,2.6.18,3.99.39,0,0,.58.08.54.08,0,0,.2.03.29.03.81,0,1.45-.65,1.55-1.57.02-.12.03-.24.03-.37,0-.12-.01-.25-.03-.34,0-.06-.02-.13-.04-.19-.01-.07-.03-.14-.05-.2-.17-.52-.53-.91-.95-1.05-.07-.03-.15-.06-.18-.06-.11-.03-.21-.04-.33-.04-.09,0-.27.02-.29.02l-.12.02c-.24.04-.47.07-.71.1-1.33.2-2.59.32-3.85.35h-8.99c-.11,0-.31-.02-.39-.13-.09-.11-.1-.35-.01-.66.13-.67.27-1.39.35-2.15.15-1.36-.5-2.26-1.32-2.6,2.66-.14,5.75-.24,9.1-.24.72,0,1.26-.54,1.32-1.26.4.87.79,1.81,1.18,2.86.4,1.05,1.18,1.47,1.9,1.47.19,0,.38-.03.55-.08.94-.3,1.7-1.37,1.32-2.83-1.2-4.64-4.84-6.82-6.36-7.55-.41-.2-.86-.11-1.15.23-.33.38-.35.98-.06,1.38.73,1.01,1.37,2.05,1.97,3.21-.2-.12-.44-.19-.73-.19-3.72,0-7.58.12-11.49.36,4.85-3.02,8.81-6.36,11.18-9.47.76-1.11.36-2.41-.46-3.02-.68-.5-1.71-.58-2.48.37-1.61,1.89-3.43,3.63-5.4,5.24,0,0,0,0,.01-.02.23-.47.19-1.08-.1-1.51-.26-.38-.67-.58-1.14-.55l-3.68.27c1.82-1.43,3.02-2.61,3.49-3.19.89-1.04.55-2.32-.21-3.01-.77-.69-1.81-.65-2.52.1-1.8,1.96-5.52,4.71-9.04,6.68-1.16.66-1.28,1.92-.8,2.83.36.68.99,1.07,1.64,1.07.26,0,.53-.06.79-.19,0,0,.01,0,.02,0l.42-.23c.27-.15.55-.3.85-.45.49-.3,1.22-.52,1.86-.58l7.37-.54c.1,0,.19-.03.28-.05-4.01,3.12-8.7,5.69-14.04,7.66-.65.23-1.1.76-1.22,1.46-.14.79.15,1.64.72,2.11.31.26.67.39,1.06.39.21,0,.43-.04.65-.12,1.11-.41,2.25-.87,3.61-1.45.76-.34,1.73-.59,2.44-.64,1.3-.12,3.2-.28,5.53-.42-.52.28-.95.81-1.1,1.62-.14.84-.34,1.71-.6,2.64-.21.71-.8,1.19-1.46,1.19h-12.06c-.74,0-1.3.59-1.3,1.38s.56,1.44,1.3,1.44h11.41c.23,0,.35.06.38.09.02.04.05.21-.1.52-2.76,5.17-7.35,8.84-13.64,10.9-.57.17-.9.72-.78,1.29.1.5.52.85,1.02.85.04,0,.08,0,.12,0,7.87-1,14.5-5.65,17.73-12.41.09-.17.19-.32.3-.46-.16.32-.18.71,0,1.05,2.8,5.63,8.37,9.72,15.3,11.21.18.04.36.06.53.06,1.03,0,1.87-.68,2.12-1.78.26-1.17-.24-2.59-1.68-2.93Z"/>
  <path class="cls-1" d="M142.07,11.21s0,0,0,0c.51.76,1.18,1.06,1.8,1.06.35,0,.68-.09.96-.25.96-.56,1.53-1.94.75-3.52-1.72-3.26-5.42-6.03-9.68-7.22-.47-.11-.93.11-1.14.55-.23.48-.1,1.05.29,1.34,2.35,1.93,4.91,4.86,7.02,8.05Z"/>
</svg>