<?xml version="1.0" encoding="UTF-8"?>
<svg id="_圖層_1" data-name="圖層 1" xmlns="http://www.w3.org/2000/svg" viewBox="0 0 182.06 56.17">
  <defs>
    <style>
      .cls-1 {
        fill: #231815;
      }
    </style>
  </defs>
  <path class="cls-1" d="M46.63,39.85c-4.18-1.43-10.07-4.42-14.04-8.51-.11-.11-.24-.19-.37-.24h8.6c1.6.05,3.18.21,4.84.49,0,0,.2.03.29.03.97,0,1.65-.81,1.65-1.96s-.68-1.96-1.65-1.96c-.08,0-.26.02-.3.02-1.71.29-3.3.45-4.83.49h-1.11s-.04,0-.06,0h-2.47c-.69,0-.93-.57-.93-1.11V10.99c0-.66.33-1.05.88-1.05h.47s.06,0,.09,0h.79c1.25.03,2.53.15,3.91.37,0,0,.01,0,.02,0h0c.2.05.42.1.66.1.98,0,1.72-.8,1.72-1.86s-.74-1.8-1.72-1.8c-.05,0-.15,0-.26.03-1.43.22-2.8.35-4.15.4h-1.53c-.55,0-.88-.39-.88-1.06v-3.88c0-1.2-.84-2.1-1.95-2.1s-1.99.9-1.99,2.1v3.88c0,.66-.33,1.06-.88,1.06h-14.07c-.55,0-.88-.39-.88-1.06v-3.88c0-1.2-.83-2.1-1.94-2.1s-2,.9-2,2.1v3.88c0,.66-.33,1.06-.88,1.06h-6.74c-.74,0-1.3.59-1.3,1.38s.56,1.38,1.3,1.38h6.74c.55,0,.88.39.88,1.05v16.11c0,.54-.25,1.11-.93,1.11H2.51c-.79,0-1.41.63-1.41,1.44s.62,1.44,1.41,1.44h10.98c.26,0,.36.07.37.09.02.03.04.21-.12.52-2.72,4.93-7.17,9-13.27,12.11-.43.28-.59.83-.38,1.32.16.37.5.59.87.59.08,0,.16-.01.24-.03,3.59-.85,6.95-2.53,9.84-4.82.02.79.58,1.41,1.3,1.41h9.31c.69,0,.93.57.93,1.11v5.65c0,.54-.25,1.11-.93,1.11H3.59c-.79,0-1.41.63-1.41,1.44s.62,1.44,1.41,1.44h35.65c1.59.05,3.16.21,4.81.49,0,0,.2.03.29.03.97,0,1.65-.81,1.65-1.96s-.68-1.96-1.65-1.96c-.08,0-.26.02-.3.02-1.71.29-3.3.45-4.83.49h-1.11s-.05,0-.08,0h-10.4c-.69,0-.93-.57-.93-1.11v-5.65c0-.54.25-1.11.93-1.11h3.58c1.53.05,3.08.21,4.8.49,0,0,.2.03.3.03.94,0,1.62-.82,1.62-1.96,0-.17-.02-.34-.05-.49,2.39,1.79,5.02,3.22,7.48,3.95.26.08.5.12.73.12,1.03,0,1.75-.74,2.01-1.57.35-1.11-.04-2.54-1.46-3ZM32.31,13.28c0,.4-.12.87-.72.87h-14.39c-.59,0-.72-.47-.72-.87v-2.47c0-.4.12-.87.72-.87h14.39c.59,0,.72.47.72.87v2.47ZM31.57,16.92c.67,0,.75.63.75.9v2.71c0,.27-.07.9-.75.9h-14.34c-.67,0-.75-.63-.75-.9v-2.71c0-.27.07-.9.75-.9h14.34ZM16.48,25.04c0-.25.07-.85.69-.85h14.44c.63,0,.7.59.7.85v2.35c0,.31-.09.84-.7.84h-14.44c-.6,0-.69-.53-.69-.84v-2.35ZM36,38.91c-1.72.29-3.32.45-4.85.49h-.54s-.05,0-.07,0h-2.92c-.69,0-.93-.57-.93-1.11v-3.34c0-1.23-.86-2.16-2-2.16-1.2,0-2.1.93-2.1,2.16v3.34c0,.54-.25,1.11-.93,1.11h-8.91c2.15-2.03,3.97-4.42,5.31-7.09.38-.72,1.06-1.21,1.69-1.21h11.72c-.08.03-.17.06-.25.12-.46.33-.6.95-.34,1.43,1.14,2.14,3,4.33,5.19,6.25-.04,0-.07,0-.07,0Z"/>
  <path class="cls-1" d="M140.57,25.13c.52.78,1.19,1.08,1.82,1.08.34,0,.67-.09.94-.25.93-.54,1.48-1.89.71-3.44,0,0,0,0,0-.01-1.73-3.27-5.5-6.13-9.63-7.29-.47-.11-.92.11-1.13.54-.23.48-.1,1.05.29,1.34,2.35,1.92,4.9,4.85,7.01,8.03Z"/>
  <path class="cls-1" d="M146.6,29.72c-.55-.08-1.03.24-1.18.8,0,0,0,0,0,0-1.84,6.86-6,14.05-10.61,18.32-1.14,1.11-1,2.55-.27,3.4.42.5.98.75,1.56.75.44,0,.89-.15,1.3-.45,5.54-4.31,9.79-13.42,10.11-21.65.03-.59-.36-1.08-.91-1.17Z"/>
  <path class="cls-1" d="M143.36,11.81c.52.77,1.19,1.08,1.82,1.08.34,0,.67-.09.94-.25.93-.54,1.48-1.89.71-3.44,0,0,0,0,0-.01-1.73-3.28-5.5-6.14-9.63-7.29-.46-.12-.92.09-1.13.53-.23.48-.11,1.05.29,1.36,2.35,1.92,4.9,4.84,7,8.03Z"/>
  <path class="cls-1" d="M165,42.86c1.14,0,1.99-.92,1.99-2.13v-23.52c0-1.33-.82-2.25-1.99-2.25-.65,0-1.25.32-1.7.9-.14.19-.27.39-.37.6-.25.48-.47.73-.84.94-.31.18-.7.27-1.12.27h-3.8c-.25,0-.49-.04-.72-.13-.19-.07-.37-.17-.53-.3-.25-.19-.4-.44-.58-.77-.06-.1-.12-.21-.18-.31-.2-.33-.41-.58-.65-.77-.26-.2-.56-.34-.88-.4-.12-.02-.25-.03-.37-.03-1.17,0-1.99.93-1.99,2.25v24.21c0,1.25.84,2.16,1.99,2.16s2.05-.92,2.13-2.33c.06-.89.12-1.53.19-2.02.06-.46.3-.86.63-1.09.32-.22.7-.33,1.12-.33h3.58c.42,0,.8.11,1.13.33.34.23.57.61.63,1.05.05.37.1.81.14,1.38.29,2.06,1.62,2.28,2.18,2.28ZM162.95,21.65v12.17c0,.54-.24,1.11-.93,1.11h-5.78c-.69,0-.93-.57-.93-1.11v-12.17c0-.54.24-1.11.93-1.11h5.78c.69,0,.93.57.93,1.11Z"/>
  <path class="cls-1" d="M180.6,5.73c-.07-.06-.16-.12-.2-.15-.09-.06-.19-.12-.32-.17-.01,0-.09-.03-.1-.03-.08-.02-.15-.04-.19-.04-.22-.05-.46-.04-.67,0-1.73.26-3.43.4-5.19.45h-26.2c-.77,0-1.35.62-1.35,1.44s.58,1.44,1.35,1.44h23.29c.12,0,.21.01.32.05.04.01.09.03.18.08.03.01.06.03.12.08.02.03.05.06.07.09.03.03.05.06.11.15.02.03.04.07.06.12,0,.01,0,.03.01.04.05.14.08.32.08.5v31.47c0,8.19-1.84,10.91-7.89,11.64-.53.06-.91.54-.91,1.13,0,.58.38,1.02.89,1.08.84.13,1.64.19,2.4.19,2.48,0,4.52-.68,6.08-2.02,2.3-1.98,3.51-5.43,3.51-9.98V9.74c.04-.23.19-.44.42-.61.26-.19.62-.28.99-.24.56.07,1.08.13,1.65.22,0,0,.02,0,.03,0,.08.01.14.01.13.01.03,0,.06,0,.09,0,.27.03.36,0,.55-.05.09-.02.19-.05.29-.09.22-.1.42-.25.57-.42.31-.35.49-.83.49-1.35,0-.59-.23-1.13-.63-1.49Z"/>
  <path class="cls-1" d="M112.36,49.64c-.1,0-.3.03-.31.03l-.44.07c-1.55.24-2.98.38-4.35.42h-6.47c-.74,0-.85-.64-.85-1.02v-3.31c0-.38.11-1.02.85-1.02h2.66c1.16.03,2.34.14,3.63.34h0c.08.01.2.03.33.05l.39.06s.28.02.29.02c.89,0,1.54-.78,1.54-1.86s-.65-1.87-1.54-1.87c-.07,0-.19.01-.25.02,0,0-.61.1-.69.11-1.38.2-2.64.32-3.84.35h-.5s-.06,0-.09,0h-1.96c-.74,0-.82-.7-.82-1v-3c0-.3.08-1,.82-1h3.89c1.47.05,2.96.2,4.58.47,0,0,.23.02.31.02.91,0,1.58-.8,1.58-1.91s-.66-1.92-1.58-1.92c-.1,0-.29.03-.37.04l-.24.04c-1.56.25-2.99.39-4.36.43h-.52s-.05,0-.08,0h-3.13c-.68,0-.93-.57-.93-1.11v-3.1c0-1.23-.84-2.16-1.95-2.16s-2,.93-2,2.16v3.1c0,.54-.24,1.11-.93,1.11h-4.11c-.12,0-.22.04-.32.07.35-1.05.63-2.15.81-3.28.22-1.41-.66-2.34-1.66-2.52-.96-.18-2.09.37-2.37,1.76-.84,4-2.04,8.18-5.13,11.62-.36.41-.37,1.02-.03,1.45.2.25.48.38.77.38.16,0,.33-.04.48-.13,2.64-1.46,4.86-4.06,6.32-7.25.22.43.63.72,1.13.72h4.22c.74,0,.82.7.82,1v3c0,.3-.08,1-.82,1h-7.33c-.74,0-1.3.59-1.3,1.38s.56,1.38,1.3,1.38h7.31c.74,0,.85.64.85,1.02v3.31c0,.38-.11,1.02-.85,1.02h-13.05c-.76,0-1.36.63-1.36,1.44s.6,1.44,1.36,1.44h25.1c1.54.05,3.11.21,4.83.5,0,0,.23.02.32.02.93,0,1.61-.82,1.61-1.96s-.68-1.96-1.61-1.96Z"/>
  <path class="cls-1" d="M70.56,6.76c-1.14,0-2,.93-2,2.16v44.55c0,1.2.86,2.1,2,2.1s1.95-.9,1.95-2.1V8.92c0-1.23-.84-2.16-1.95-2.16Z"/>
  <path class="cls-1" d="M81.92,16.91c.19.35.53.55.9.55.13,0,.26-.02.39-.07,6.29-2.37,11.25-7.95,12.96-14.57.36-1.43-.43-2.47-1.4-2.74-.91-.26-2.04.13-2.44,1.39-1.96,5.97-5.26,10.55-10.08,14-.46.32-.6.94-.33,1.44Z"/>
  <path class="cls-1" d="M102.21,27.86c1.5.04,3.03.19,4.65.47,0,0,.19.03.29.03.94,0,1.62-.8,1.62-1.91s-.66-1.9-1.62-1.9c-.09,0-.26.02-.26.02-.02,0-.12.02-.14.02-.05.01-.11.02-.1.02-.05,0-.1,0-.16.02-1.52.24-2.93.38-4.28.41h-1.06s-.06,0-.09,0h-12.94c-.76,0-1.35.6-1.35,1.38s.59,1.44,1.35,1.44h14.09Z"/>
  <path class="cls-1" d="M112.96,20.83c-4.01-.58-7.49-1.52-10.63-2.87-.23-.1-.34-.22-.35-.29,0-.06.04-.21.29-.43,2.91-2.68,5.14-5.89,6.65-9.54.3-.77.23-1.56-.2-2.19-.65-.95-1.93-1.18-2.91-.39-.14.1-.26.22-.43.4-.03.03-.06.07-.1.12-.49.52-1.11.8-1.8.83h-7.79c-.74,0-1.3.59-1.3,1.38s.57,1.38,1.3,1.38h7.3c.22,0,.31.05.32.04,0,.04-.02.2-.17.44-1.27,1.95-2.68,3.65-4.3,5.19-.54.47-1.22.52-1.8.13-1.36-.9-2.69-1.97-3.94-3.18-.38-.37-.93-.39-1.34-.06-.44.36-.54,1-.23,1.48.86,1.33,1.95,2.62,3.25,3.85.2.18.3.36.29.51,0,.15-.13.32-.33.46-3.26,2.12-7.25,3.86-12.23,5.34-.56.18-.88.75-.74,1.34.12.5.53.83,1,.83.05,0,.11,0,.16-.01,5.52-.74,10.43-2.38,14.61-4.87.61-.39,1.43-.38,2.05.03,3.93,2.39,8.49,3.99,12.84,4.5,1.18.13,2.11-.63,2.27-1.86.14-1.13-.47-2.4-1.74-2.57Z"/>
  <path class="cls-1" d="M81.84,39.63c3.13-4.35,2.27-12.72-4.55-18.69-.61-.68-.62-.94-.12-1.68,3.06-3.66,4.79-9.01,5-15.49.02-.82-.31-1.34-.59-1.63-.67-.68-1.79-.8-2.65-.2-.18.11-.36.26-.54.44l-.14.14c-.35.35-.96.76-1.9.76h-8.47c-.74,0-1.3.59-1.3,1.38s.56,1.38,1.3,1.38h9.18c.26,0,.45.07.58.22.16.18.23.48.2.83-.44,4.28-1.28,8.74-4.39,12.37-.21.23-.32.52-.3.84.02.34.18.68.45.92,4.5,4,7.62,11.59,5.04,15.77-1.14,1.85-2.52,2.47-4.32,1.96-.44-.13-.89.07-1.11.49-.25.47-.15,1.05.23,1.38,1.05.94,2.33,1.44,3.65,1.44.17,0,.35,0,.52-.03,1.61-.16,3.11-1.08,4.23-2.59Z"/>
</svg>