<?xml version="1.0" encoding="UTF-8"?>
<svg id="_圖層_2" data-name="圖層 2" xmlns="http://www.w3.org/2000/svg" viewBox="0 0 407.9 143.33">
  <defs>
    <style>
      .cls-1 {
        fill: #231815;
      }
    </style>
  </defs>
  <g id="_中文" data-name="中文">
    <g>
      <path class="cls-1" d="M115.29,130.87c-.17,0-.52.04-.52.04-4.35.74-8.6,1.2-13.01,1.32h-2.93s-27.62.01-27.62.01c-2.41,0-4.04-1.82-4.04-4.51v-14.89c0-2.69,1.63-4.51,4.04-4.51h9.49c4.32.14,8.48.6,12.73,1.31h.11s.37.06.56.06c1.54,0,2.68-1.47,2.68-3.59s-1.13-3.61-2.68-3.61c-.19,0-.56.06-.56.06-4.37.72-8.62,1.19-13.05,1.32h-1.41s-7.88.01-7.88.01c-2.41,0-4.04-1.82-4.04-4.51v-8.8c0-2.37-1.56-4.12-3.68-4.12-2.26,0-3.96,1.75-3.96,4.12v8.8c0,2.69-1.63,4.51-4.04,4.51h-24.55c-1.06,0-1.84.95-1.84,2.22s.78,2.22,1.84,2.22h24.55c2.41,0,4.04,1.82,4.04,4.51v14.89c0,2.69-1.63,4.51-4.04,4.51H7.88c-1.21,0-2.12.95-2.12,2.22s.91,2.22,2.12,2.22h94.02c4.36.13,8.56.58,12.87,1.31,0,0,.35.06.52.06,1.67,0,2.78-1.46,2.78-3.59s-1.11-3.58-2.78-3.58Z"/>
      <path class="cls-1" d="M263.99,130.86c-.19,0-.56.06-.56.06-4.35.72-8.59,1.19-13,1.32h-16.93c-2.33,0-3.83-1.67-3.83-4.29v-8.71c0-2.62,1.5-4.29,3.83-4.29h7.06c3.38.11,6.64.44,9.94.97.55.06,1.08.15,1.63.25h.09s.15.02.3.02c.08.02.17.02.23.02,1.42,0,2.47-1.35,2.47-3.32s-1.04-3.32-2.47-3.32c-.09,0-.21,0-.32.02h-.02c-.11.02-.19.02-.19.02-.57.09-1.14.19-1.71.27-3.45.53-6.85.85-10.36.97h-6.73c-2.26,0-3.76-1.65-3.76-4.19v-7.93c0-2.52,1.5-4.19,3.76-4.19h10.42c4.1.14,8.06.57,12.1,1.25h.11s.36.05.54.05c1.48,0,2.57-1.41,2.57-3.45s-1.09-3.47-2.57-3.47c-.18,0-.54.05-.54.05-.12.02-.24.03-.36.05h-.07c-.08.02-.15.02-.25.04-.04,0-.06.02-.09.02-.01,0-.03,0-.05.01-3.91.62-7.75,1.03-11.72,1.14h-9.8c-2.41,0-4.04-1.82-4.04-4.51v-8.16c0-2.37-1.48-4.12-3.53-4.12s-3.68,1.75-3.68,4.12v8.16c0,2.69-1.63,4.51-4.04,4.51h-10.83c-1.06,0-1.84.87-1.84,2.07,0,1.27.78,2.22,1.84,2.22h11.12c2.28,0,3.76,1.67,3.76,4.19v7.93c0,2.54-1.48,4.19-3.76,4.19h-19.31c-1.06,0-1.84.87-1.84,2.07s.78,2.05,1.84,2.05h19.24c2.35,0,3.83,1.67,3.83,4.29v8.71c0,2.62-1.48,4.29-3.83,4.29h-34.39c-1.12,0-1.97.95-1.97,2.22s.85,2.22,1.97,2.22h66.32c4.33.14,8.5.59,12.76,1.31h.11s.37.06.56.06c1.54,0,2.67-1.46,2.67-3.58s-1.13-3.6-2.67-3.6Z"/>
      <path class="cls-1" d="M407.58,15.72c-.03-.07-.06-.15-.1-.21,0-.01-.01-.02-.02-.04-.12-.23-.26-.44-.43-.63-.06-.08-.13-.17-.23-.23-.1-.09-.23-.13-.34-.21-.18-.13-.35-.27-.55-.35-.02,0-.06-.02-.08-.02-.15-.06-.32-.09-.49-.11-.16-.04-.33-.05-.51-.05-.02,0-.04-.01-.06-.01-.15,0-.44.04-.46.04-.08.02-.13.02-.21.02-4.63.68-9.22,1.08-13.92,1.21h-16.45s-52.74,0-52.74,0c-1.14,0-1.99.95-1.99,2.22s.85,2.22,1.99,2.22h61.5c.21,0,.42.02.62.04.02,0,.04,0,.06,0,.2.04.39.07.6.15.13.04.25.08.38.13.23.09.46.23.66.38.23.17.44.36.63.59.17.17.3.38.44.59t.02.04c.13.23.25.47.34.74v.02c.19.55.28,1.16.28,1.84v83.11c0,20.6-3.95,30.11-22.21,32.32-1.27.17-1.42,2.54,0,2.69,22.08,3.34,29.86-10.93,29.86-29.63V42.29h0v-18.01s0-.07,0-.1c.04-1.23.71-2.33,1.74-3.06.99-.72,2.31-1.08,3.68-.95,1.52.19,2.9.36,4.44.59.04,0,.08,0,.12.01.01,0,.03,0,.04.01.08.02.15.04.23.02.08.02.13.02.19.02.06.02.11.02.17.02.93,0,1.71-.36,2.24-.99.28-.3.49-.66.64-1.08.14-.4.2-.83.22-1.28,0-.06.01-.11.01-.16,0-.6-.12-1.13-.32-1.6Z"/>
      <path class="cls-1" d="M120.83,104.97c-12.03-4.12-27.47-12.35-37.65-22.82-1.06-1.1-2.62.4-1.97,1.59,6.58,12.35,22.78,25.67,37.22,29.95,5.65,1.75,7.78-6.98,2.41-8.73Z"/>
      <path class="cls-1" d="M44.61,82.87c1.35-2.54,3.68-4.04,5.86-4.04h55.58c4.4.13,8.63.57,12.97,1.31,0,0,.35.06.52.06,1.67,0,2.78-1.46,2.78-3.59s-1.11-3.58-2.78-3.58c-.17,0-.52.04-.52.04-4.35.74-8.6,1.2-13.01,1.32h-2.93s-6.67,0-6.67,0c-2.41,0-4.04-1.82-4.04-4.51V27.4c0-2.6,1.56-4.34,3.89-4.34h1.48v.02s2.11,0,2.11,0c3.6.1,7.08.45,10.62,1,0,0,.01,0,.02,0,.02,0,.04.02.06.02.46.11.91.21,1.37.21,1.69,0,2.96-1.42,2.96-3.32s-1.27-3.17-2.96-3.17c-.06,0-.13,0-.19.02-.09.01-.17.02-.25.04-3.74.58-7.41.94-11.19,1.06h-4.02c-2.33,0-3.89-1.75-3.89-4.36V4.36c0-2.3-1.48-3.96-3.55-3.96s-3.66,1.67-3.66,3.96v10.22c0,2.62-1.57,4.36-3.91,4.36h-37.09c-2.33,0-3.89-1.75-3.89-4.36V4.36c0-2.3-1.48-3.96-3.53-3.96s-3.68,1.67-3.68,3.96v10.22c0,2.62-1.56,4.36-3.91,4.36H11.41c-1.06,0-1.84.85-1.84,2.05s.78,2.07,1.84,2.07h17.76c2.35,0,3.91,1.75,3.91,4.34v42.47c0,2.69-1.63,4.51-4.04,4.51H5.04c-1.19,0-2.12.95-2.12,2.22s.93,2.22,2.12,2.22h28.95c2.41,0,3.26,1.59,2.05,3.96-8.14,14.74-21.36,25.27-35.51,32.48-1.01.64-.44,2.37.7,2.07,16.69-3.96,33.98-15.76,43.38-34.47ZM40.28,26.93c0-2.37,1.35-3.87,3.47-3.87h37.94c2.12,0,3.47,1.5,3.47,3.87v6.51c0,2.37-1.35,3.87-3.47,3.87h-37.94c-2.12,0-3.47-1.5-3.47-3.87v-6.51ZM40.28,45.39c0-2.37,1.42-3.95,3.55-3.95h37.79c2.12,0,3.55,1.57,3.55,3.95v7.13c0,2.39-1.42,3.96-3.55,3.96h-37.79c-2.12,0-3.55-1.57-3.55-3.96v-7.13ZM40.28,64.41c0-2.3,1.35-3.81,3.4-3.81h38.07c2.07,0,3.41,1.52,3.41,3.81v6.18c0,2.3-1.35,3.79-3.41,3.79h-38.07c-2.05,0-3.4-1.5-3.4-3.79v-6.18Z"/>
      <path class="cls-1" d="M153.82,17.83c-2.12,0-3.68,1.75-3.68,4.12v117.42c0,2.3,1.56,3.96,3.68,3.96s3.55-1.67,3.55-3.96V21.94c0-2.37-1.5-4.12-3.55-4.12Z"/>
      <path class="cls-1" d="M186.58,42.79c15.57-5.86,28.66-19.73,33.2-37.33,1.42-5.54-5.52-7.59-7.08-2.69-5.1,15.54-13.87,28.21-27.18,37.73-1.12.78-.34,2.85,1.06,2.3Z"/>
      <path class="cls-1" d="M237.53,70.28c4.14.13,8.14.55,12.24,1.25,0,0,.34.05.5.05,1.6,0,2.67-1.41,2.67-3.45s-1.07-3.44-2.67-3.44c-.16,0-.5.04-.5.04-.13.02-.27.04-.4.06-.02,0-.05,0-.07,0h-.06c-.06.02-.13.02-.19.04-.01,0-.03,0-.04.01-3.91.64-7.75,1.04-11.72,1.15h-37.17c-1.14,0-1.97.87-1.97,2.07,0,1.27.84,2.22,1.97,2.22h37.43Z"/>
      <path class="cls-1" d="M265.36,54.91c-9.28-1.35-19.05-3.64-28.45-7.7-2.26-1.02-2.49-2.85-.57-4.51,7.28-6.73,13.09-14.82,17.13-24.55,1.27-3.26-.93-5.96-3.32-5.96-1.5,0-2.77,1.04-4.04,2.62-1.48,1.75-2.33,2.22-4.04,2.22h-22c-1.06,0-1.84.87-1.84,2.07s.78,2.05,1.84,2.05h19.25c2.41,0,3.11,1.52,1.69,3.74-3.45,5.31-7.28,9.9-11.61,14.02-1.9,1.67-4.51,1.9-6.64.47-3.68-2.45-7.23-5.31-10.62-8.56-1.06-1.02-2.47.55-1.69,1.75,2.26,3.49,5.08,6.81,8.27,9.83,1.84,1.65,1.71,3.64-.28,5.07-9.28,6.01-20.09,10.55-32.63,14.27-1.48.47-1.06,2.85.44,2.62,14.08-1.92,26.96-6.11,37.86-12.6,2.12-1.35,4.95-1.35,7.08.08,10.03,6.09,21.8,10.3,33.2,11.65,5.37.63,5.65-7.93.99-8.56Z"/>
      <path class="cls-1" d="M170.45,54.74c-2.2-2.37-2.28-3.87-.44-6.56,8.57-10.22,12.31-24.57,12.82-39.86.06-2.77-1.84-4.29-3.76-4.29s-3.55,1.59-5.03,3.41c-.78.87-1.69,1.2-2.9,1.2h-24.41c-1.06,0-1.84.87-1.84,2.05s.78,2.07,1.84,2.07h24.21c2.41,0,3.89,1.75,3.6,4.51-1.35,13.07-4.04,24.24-11.95,33.5-.65.72-.44,1.75.28,2.39,12.31,10.93,20.79,31.85,13.58,43.57-3.26,5.24-7.51,7.44-13.16,5.86-1.14-.32-1.76,1.42-.85,2.22,5.67,5.06,14.15,4.74,19.82-2.85,8.21-11.42,5.16-32.42-11.82-47.23Z"/>
      <path class="cls-1" d="M187.22,111.95c10.91-6.03,17.98-18.86,20.09-32.02.85-5.39-6.36-6.96-7.49-1.42-2.41,11.42-5.8,22.35-13.87,31.38-.93,1.02.13,2.69,1.27,2.07Z"/>
      <path class="cls-1" d="M310.81,28.6c3.24,4.91,9.41.72,6.43-5.31-4.53-8.56-14.23-15.61-24.41-18.46-1.27-.32-1.76,1.5-.85,2.22,6.79,5.54,13.58,13.62,18.84,21.55Z"/>
      <path class="cls-1" d="M316.46,79.31c-4.53,16.79-15.14,36.76-28.45,49.11-4.38,4.29.49,10.55,4.74,7.38,14.44-11.25,25.27-34.79,26.12-56.02.08-1.57-1.99-2.07-2.41-.47Z"/>
      <path class="cls-1" d="M366.64,109.89c2.2,0,3.68-1.75,3.68-4.04v-62.11c0-2.62-1.48-4.36-3.68-4.36-1.92,0-3.32,1.27-4.53,4.12-.91,2.37-1.69,3.02-3.24,3.02h-15.44c-1.56,0-2.33-.65-3.24-3.02-1.21-2.85-2.54-4.12-4.53-4.12-2.2,0-3.68,1.75-3.68,4.36v63.93c0,2.47,1.48,4.12,3.68,4.12,2.77,0,3.89-2.37,4.04-4.67.63-9.67,1.48-10.55,4.1-10.55h14.72c2.62,0,3.32,1.35,3.96,8.65.42,3.09,1.92,4.67,4.17,4.67ZM362.83,87.63c0,2.69-1.63,4.51-4.04,4.51h-15.29c-2.41,0-4.02-1.82-4.02-4.51v-32.17c0-2.69,1.61-4.51,4.02-4.51h15.29c2.41,0,4.04,1.82,4.04,4.51v32.17Z"/>
      <path class="cls-1" d="M303.45,63.77c3.24,4.91,9.41.72,6.43-5.29-4.53-8.56-14.23-15.61-24.41-18.48-1.27-.3-1.76,1.52-.85,2.22,6.79,5.56,13.6,13.64,18.84,21.55Z"/>
    </g>
  </g>
</svg>