<?xml version="1.0" encoding="UTF-8"?>
<svg id="_圖層_1" data-name="圖層 1" xmlns="http://www.w3.org/2000/svg" viewBox="0 0 249.61 57.36">
  <defs>
    <style>
      .cls-1 {
        fill: #231815;
      }
    </style>
  </defs>
  <path class="cls-1" d="M40.66,34.73c-.95,0-1.56.68-1.92,1.18,0,.01-.84,1.09-1.9,1.1h-4.3c-.16,0-.37-.03-.49-.17-.12-.15-.15-.42-.08-.75.45-2.12.77-4.29,1.05-6.32.1-.72-.08-1.39-.51-1.87-.39-.44-.95-.7-1.54-.7-.66,0-1.26.34-1.8,1.01h0s-.03.03-.04.05l.46.33h0s-.52-.25-.52-.25c-.24.29-.89.98-1.9.98H8.29c-.74,0-1.3.59-1.3,1.38s.56,1.38,1.3,1.38h8.61c-.79.09-1.56.65-1.84,1.78h0c-2.35,9.57-5.07,14.86-14.21,19.06-.51.24-.76.82-.59,1.37.14.45.53.74.98.74.06,0,.12,0,.19-.02,9.64-1.82,15.25-8.25,17.64-20.23.28-1.47-.55-2.46-1.53-2.68-.06-.01-.12-.01-.19-.02h10.38c.24,0,.42.07.54.2.14.16.19.45.13.78-.36,1.97-.97,4.85-1.8,7.4-.26.79-.17,1.56.25,2.15.38.52.98.83,1.6.83.86,0,1.62-.56,2.08-1.56.91-2.1.97-2.1,1.41-2.1h5.44c.31,0,.56.08.68.22.09.1.12.24.09.44l-.32,3c-.62,5.58-2.24,8.84-8.66,9.02-.55.03-.97.45-1.01,1.02-.05.6.31,1.13.87,1.25,1.19.24,2.31.36,3.35.36,2.23,0,4.12-.56,5.63-1.67,2.13-1.57,3.4-4.16,3.76-7.69l.86-8.46c.08-.74-.11-1.41-.53-1.88-.37-.41-.89-.65-1.43-.65Z"/>
  <path class="cls-1" d="M45.38,25.39s0,0,0,0c-5.93-1.89-12.19-4.28-17.73-9.01-.14-.12-.31-.18-.48-.21h13.04c1.49.05,3,.2,4.69.48,0,0,.2.03.29.03.91,0,1.58-.8,1.58-1.94,0-.06,0-.11-.01-.19-.08-1-.73-1.7-1.56-1.7-.1,0-.29.03-.3.03-1.66.28-3.19.43-4.67.47h-13.63c-.74,0-.79-.74-.79-.96v-1.92c0-.91-.44-1.64-1.11-1.99,5.05-.79,10.02-2.1,14.73-4.26,1.29-.64,1.58-2.07,1.11-3.09-.47-1.01-1.53-1.4-2.58-.94C27.27,4.77,16.91,6.22,6.36,7.41c-.59.06-.99.54-.96,1.16.03.61.47,1.06,1.02,1.06,5.26,0,10.65-.16,15.98-.83-.4.4-.65.98-.65,1.67v1.92c0,.29-.08.96-.79.96H2.23c-.76,0-1.35.61-1.35,1.38s.59,1.44,1.35,1.44h16.76c.11,0,.19.01.24.02-.03.07-.08.17-.17.29C13.8,23.03,6.49,26.37.71,28.55c-.55.21-.83.78-.65,1.37.15.49.55.8,1.01.8.08,0,.15,0,.23-.03,0,0,0,0,0,0,8.94-2.07,15.77-5.7,20.31-10.77.05-.05.1-.1.14-.14,0,.07,0,.14,0,.23v6.79c0,1.29.84,2.22,1.99,2.22s2.05-.93,2.05-2.22v-9.52c0-.54.24-1.11.93-1.11h.17c-.18.03-.36.09-.51.23-.42.36-.51.96-.21,1.43,3.45,5.17,9.46,9.21,17.85,12.01.29.1.58.15.85.15.52,0,.98-.17,1.37-.51.62-.55.9-1.46.71-2.33-.18-.84-.75-1.48-1.56-1.74Z"/>
  <path class="cls-1" d="M83.06,38.48c-.55-.5-.74-1.22-.49-1.9,1.98-5.72,3.15-12.7,3.68-21.97l.05-1.17c.07-1.33-.69-2.35-1.84-2.43-1.23-.05-1.88.91-2.25,1.63-.03.05-.7,1.25-2.37,1.26h-1.47c-.23,0-.4-.06-.5-.18-.13-.15-.17-.42-.11-.76.54-4.03.87-7.46,1.02-10.5.07-1.42-.86-2.23-1.82-2.29-.98-.04-2.01.64-2.12,2.11-.12,3.01-.46,6.53-1.01,10.44-.11.71-.59,1.18-1.2,1.18h-4.75c-.74,0-1.3.59-1.3,1.38s.56,1.38,1.3,1.38h4.48c.17,0,.4.03.53.2.13.16.17.44.11.78-1.32,7.07-3.15,13.2-5.12,17.26-.6,1.21.03,2.54.99,3.01.79.39,1.87.22,2.5-1.04.39-.78.77-1.63,1.14-2.55,0,.35.14.69.43.9,1.38,1.04,2.58,2,3.66,2.94.54.49.68,1.24.37,1.91-2.37,5.04-5.87,9.31-10.7,13.07-.43.35-.52,1-.21,1.5.2.32.52.5.88.5.16,0,.32-.04.48-.11,5.48-2.98,9.6-7.09,12.59-12.57.13-.27.3-.44.44-.46.12-.01.29.08.46.27,1.13,1.2,2.18,2.45,3.11,3.68.8,1.15,1.93,1.17,2.69.67.97-.63,1.49-2.08.67-3.44-1.01-1.6-2.47-3.18-4.33-4.7ZM72.83,33.53c1.6-4.17,3.04-9.61,4.16-15.75.11-.69.55-1.12,1.15-1.12h3.08c.23,0,.42.07.54.2.16.17.23.46.2.8-.56,7.07-1.47,12.48-2.87,17.01-.11.33-.27.55-.45.62-.19.07-.42-.02-.59-.12-1.35-.74-2.79-1.4-4.15-1.9-.12-.04-.23-.06-.35-.06-.27,0-.53.11-.72.32Z"/>
  <path class="cls-1" d="M112.58,14.57c-.1,0-.3.03-.31.03-1.72.29-3.31.45-4.84.49h-4.73c-.68,0-.93-.57-.93-1.11V2.87c0-1.34-.85-2.31-2.02-2.31s-2.07.95-2.07,2.31v11.11c0,.54-.24,1.11-.93,1.11h-9.17c-.76,0-1.35.63-1.35,1.44s.59,1.44,1.35,1.44h9.17c.68,0,.93.58.93,1.11v9.97c0,.54-.24,1.11-.93,1.11h-1.91c-1.6,0-2.28-1.21-2.32-1.28-.53-.88-1.18-1.3-1.99-1.3-1.17,0-2.02.92-2.02,2.19v23c0,1.27.85,2.19,2.02,2.19s2.01-.86,2.18-2.25c.07-.7.13-1.27.21-1.73.05-.3.17-.57.35-.78.44-.5.98-.76,1.61-.76h9.96c.62,0,1.16.25,1.59.74.2.22.32.51.36.83.04.27.06.57.09.93.16,1.5.98,2.4,2.21,2.4s2.02-.92,2.02-2.19v-22.37c0-1.27-.85-2.19-2.02-2.19-.81,0-1.46.42-2.03,1.36-.18.29-.86,1.22-2.35,1.22h-2c-.68,0-.93-.58-.93-1.11v-9.97c0-.54.24-1.11.93-1.11h4.78c1.52.05,3.07.21,4.79.49,0,0,.2.03.3.03.93,0,1.61-.82,1.61-1.97,0-1.13-.68-1.95-1.61-1.95ZM93.54,32.93h12.55c.69,0,.93.57.93,1.11v11.53c0,.54-.24,1.11-.93,1.11h-12.55c-.68,0-.93-.58-.93-1.11v-11.53c0-.54.24-1.11.93-1.11Z"/>
  <path class="cls-1" d="M163.05,17.5s0-.03,0-.03c0-.05-.02-.09-.03-.14-.17-.86-.77-1.41-1.52-1.41-.1,0-.29.03-.32.03-.13.01-.26.03-.35.05-1.53.24-2.93.38-4.28.42h-5.98c-.74,0-1.3.59-1.3,1.38s.56,1.44,1.3,1.44h5.96c1.4.04,2.84.18,4.38.43.05.01.11.02.16.03l.07-.6h0s.06.61.06.61c0,0,.2.03.29.03.91,0,1.58-.8,1.58-1.94,0-.1,0-.2-.02-.3Z"/>
  <path class="cls-1" d="M161.13,34.25c1.06,0,1.83-.81,1.83-1.92v-9.97c0-1.11-.76-1.92-1.81-1.92-.65,0-1.2.27-1.67.83h0s-.03.04-.05.05l-.07.08c-.2.23-.76.77-1.65.77h-2.92c-.87,0-1.43-.54-1.6-.74l-.11-.13s-.04-.05-.06-.07c-.47-.54-1-.8-1.64-.8-1.05,0-1.81.81-1.81,1.92v10.03c0,1.18.77,2.04,1.83,2.04s1.62-.82,1.91-1.42c.02-.04.52-.93,1.71-.93h2.53c1.1,0,1.61.76,1.68.88,0,.02.02.04.03.06h0c.47.82,1.07,1.22,1.85,1.22ZM159.24,25.84v2.58c0,.27-.07.9-.74.9h-4.45c-.67,0-.74-.63-.74-.9v-2.58c0-.27.07-.9.74-.9h4.45c.67,0,.74.63.74.9Z"/>
  <path class="cls-1" d="M170.19,25.2s0,.03,0,.04c.41,2.05.63,4.55.63,7.03,0,1.28.91,1.97,1.8,2,.02,0,.03,0,.05,0,.88,0,1.8-.67,1.87-1.96.18-2.82-1.22-6.25-2.67-7.94-.29-.33-.73-.42-1.11-.25-.4.18-.63.62-.57,1.09Z"/>
  <path class="cls-1" d="M164.46,15.07c.36.33.78.5,1.2.5.46,0,.93-.2,1.32-.59,0,0,.03-.03.04-.04.12-.13.23-.26.42-.45.3-.36.81-.65,1.26-.72l2.49-.36c.08-.01.15-.04.22-.06-1.98,3.15-4.37,6.2-6.62,8.34,0,0,0,0,0,0-.96.94-.8,2.27-.09,3.01.3.32.74.53,1.22.53.43,0,.89-.17,1.33-.59l.56-.57c.39-.39.97-.7,1.5-.79l5.34-.87c.46-.08.82-.37.98-.81.09-.25.11-.52.07-.78.24.69.44,1.36.64,2.08l.05.17c.29.97,1.04,1.41,1.76,1.41.15,0,.3-.02.44-.06.82-.21,1.57-1.07,1.26-2.43-.59-2.75-2.65-4.93-4.44-5.87-.01,0-.02-.01-.03-.02-.35-.15-.77-.06-1.05.23-.32.33-.38.82-.14,1.28.59.99,1,1.86,1.32,2.69-.04-.08-.08-.16-.14-.23-.29-.34-.7-.49-1.13-.42l-2.8.45s-.08.01-.11.02c.04-.06.09-.12.15-.2,2.84-3.68,5.26-7.86,6.63-11.48.44-1.22-.21-2.3-1.1-2.64-.77-.3-1.78-.04-2.27,1.19-.63,1.56-1.48,3.26-2.48,4.95-.02-.32-.12-.62-.31-.86-.28-.35-.7-.51-1.14-.43l-.62.09c1.5-2.36,2.86-5.07,3.74-7.47.44-1.25-.21-2.25-1.05-2.57-.76-.29-1.82-.02-2.33,1.24-1.44,3.46-4.09,7.83-6.17,10.16-.91,1.02-.64,2.29.07,2.96ZM166.55,14.55h0s0,0,0,0Z"/>
  <path class="cls-1" d="M167.91,24.6c-.45-.03-.86.27-.97.71-.84,2.77-1.63,4.84-3.2,7.24-.73,1.13-.25,2.32.57,2.87.32.22.67.32,1,.32.54,0,1.05-.27,1.41-.78t0,0c1.81-2.59,2.48-6.86,2.09-9.49-.06-.48-.43-.84-.9-.87Z"/>
  <path class="cls-1" d="M163.05,12.7s0-.03,0-.04c0-.05-.02-.09-.03-.14-.17-.86-.77-1.41-1.52-1.41-.1,0-.29.03-.32.03-.13.01-.26.03-.35.05-1.54.24-2.95.38-4.29.42h-5.97c-.74,0-1.3.59-1.3,1.38s.56,1.44,1.3,1.44h5.96c1.41.04,2.84.19,4.37.43.05.01.11.02.16.03l.07-.6h0l.06.61s.2.03.29.03c.91,0,1.58-.8,1.58-1.94,0-.1,0-.2-.02-.3Z"/>
  <path class="cls-1" d="M141.76,35.46s.1,0,.15,0c.82,0,1.71-.57,1.85-1.87,0,0,0,0,0,0,.3-3.07-1.02-6.78-2.41-8.69-.26-.36-.71-.49-1.12-.33-.42.17-.67.59-.61,1.06.3,2.48.59,4.82.43,7.7-.08,1.29.83,2.07,1.72,2.15Z"/>
  <path class="cls-1" d="M172.93,37.13c-1.19,0-2.05.91-2.05,2.16v6.82c0,.54-.24,1.11-.93,1.11h-10.41c-.68,0-.93-.58-.93-1.11v-10.6c0-1.32-.86-2.28-2.05-2.28s-2.1.96-2.1,2.28v10.6c0,.54-.24,1.11-.93,1.11h-9.92c-.68,0-.93-.58-.93-1.11v-6.82c0-1.25-.86-2.16-2.05-2.16s-2.05.91-2.05,2.16v14.11c0,1.23.87,2.16,2.02,2.16s2.01-.84,2.18-2.25c.06-.67.13-1.22.2-1.67.05-.3.17-.57.35-.78.43-.5.97-.75,1.6-.76h23.71c.63,0,1.17.26,1.61.76.19.21.31.49.35.81.05.33.09.72.13,1.19.28,2.07,1.63,2.29,2.2,2.29,1.15,0,2.02-.92,2.02-2.13v-13.72c0-1.25-.86-2.16-2.05-2.16Z"/>
  <path class="cls-1" d="M175.13,23.37c-.38-.27-.87-.24-1.22.08-.37.34-.46.9-.19,1.34,1.69,2.61,2.26,3.94,3.09,6.62.32,1.1,1.05,1.54,1.75,1.54.15,0,.29-.02.44-.06.93-.25,1.7-1.28,1.38-2.58-.91-3.58-3.06-5.46-5.25-6.95Z"/>
  <path class="cls-1" d="M147.34,33.13c.1,0,.19,0,.28-.02.83-.14,1.65-.91,1.5-2.28-.27-2.57-2.07-5.44-4.4-6.98h0c-.4-.26-.88-.23-1.2.07-.34.31-.4.83-.15,1.3,1.07,1.88,1.57,3.82,2.16,6.35.24,1.07,1.05,1.57,1.81,1.57Z"/>
  <path class="cls-1" d="M137.17,24.91h0c-.48,0-.86.35-.92.85-.57,3.55-2.05,6.5-3.19,8.36-.69,1.13-.23,2.38.62,2.92.27.18.6.28.94.28.52,0,1.06-.25,1.5-.88,1.89-2.89,2.46-7.66,2.02-10.68-.06-.49-.48-.86-.96-.86Z"/>
  <path class="cls-1" d="M135.62,15.57c.47,0,.93-.2,1.32-.59,0,0,.01-.01.02-.02.04-.05.09-.09.13-.14.06-.06.13-.12.19-.2.34-.38.85-.67,1.31-.74l2.31-.36c.11-.02.21-.05.31-.09-1.97,3.12-4.34,6.14-6.57,8.26-.96.94-.8,2.27-.09,3.01.31.32.75.53,1.23.53.42,0,.87-.16,1.3-.57l.32-.3c.32-.34.86-.62,1.36-.72l5.73-.99c.46-.07.81-.42.99-.85.11.4.21.8.32,1.24.24.96,1.01,1.41,1.75,1.41.11,0,.21,0,.32-.03.84-.15,1.67-.94,1.52-2.31-.23-2.2-2.18-4.92-4.22-5.92-.37-.21-.81-.17-1.11.11-.31.28-.39.73-.2,1.16.49.99.83,1.84,1.11,2.66-.27-.18-.58-.26-.89-.21l-3.05.54s-.08.01-.11.02c.04-.06.09-.12.15-.2,2.86-3.66,5.29-7.78,6.73-11.4.17.55.63.94,1.22.94h9.06c1.49.04,3,.2,4.69.48,0,0,.19.03.29.03.76,0,1.37-.58,1.55-1.53,0,0,0-.11.01-.11,0-.08.02-.15.02-.26,0-1.11-.66-1.92-1.58-1.92-.1,0-.29.03-.39.04-.06,0-.13.02-.17.03-1.26.2-2.43.32-3.57.38.5-.64.67-1.61.11-2.63-1.34-2.48-4.27-3.85-6.37-4.27-.45-.09-.87.12-1.07.52-.22.45-.1,1.01.3,1.36,1.25,1.09,2.72,2.86,3.91,4.73,0,0,0,0,0,0,.08.13.18.23.27.33h-7.06c-.37,0-.7.16-.93.42-.1-.75-.6-1.35-1.21-1.59-.77-.3-1.78-.04-2.27,1.19-.65,1.62-1.55,3.39-2.6,5.15,0-.34-.11-.67-.31-.93-.29-.36-.73-.52-1.18-.45l-.36.05c1.49-2.36,2.85-5.1,3.75-7.55.44-1.25-.21-2.25-1.05-2.57-.77-.29-1.82-.02-2.33,1.24-1.44,3.46-4.09,7.83-6.17,10.16-.91,1.02-.64,2.29.07,2.96.36.33.78.5,1.2.5Z"/>
  <path class="cls-1" d="M238.73,7.78c-1.64,4.11-2.45,5.46-5.09,8.53-.36.4-.4.97-.09,1.38.19.26.48.4.78.4.14,0,.28-.03.41-.09,0,0,0,0,.01,0,4.17-2.07,6.72-4.93,7.79-8.77.38-1.47-.39-2.46-1.26-2.76-.83-.29-1.99,0-2.56,1.3Z"/>
  <path class="cls-1" d="M217.3,8.77c-.38-.15-.82-.02-1.1.32-.3.37-.32.87-.03,1.33,1.5,1.99,2.2,3.46,3.09,5.32l.34.71c.49.99,1.25,1.38,1.94,1.38.24,0,.47-.05.69-.13.92-.37,1.59-1.53,1.12-3.02-.85-2.65-3.68-4.98-6.05-5.91Z"/>
  <path class="cls-1" d="M214.82,8.37c.9.02,1.8.03,2.69.03,2.66,0,5.27-.1,7.77-.29-.28.35-.31.83-.04,1.27,1.67,2.28,2.61,4.14,3.43,5.85.5,1.03,1.26,1.45,1.97,1.45.24,0,.48-.05.7-.14.94-.39,1.63-1.58,1.17-2.9-.92-2.73-3.6-4.71-5.76-5.66,6.51-.61,12.21-1.86,16.25-3.62,1.34-.56,1.62-1.93,1.2-2.95-.37-.91-1.37-1.64-2.69-1.11-6.44,2.68-18.1,4.87-26.8,5.85-.57.06-.97.53-.94,1.14.03.61.48,1.08,1.04,1.08Z"/>
  <path class="cls-1" d="M206.44,25.99v.02c.46.63,1.1.97,1.75.97.35,0,.7-.1,1.02-.3.94-.58,1.48-1.96.68-3.46-1.64-3.19-5.21-5.86-9.53-7.14-.46-.15-.91.03-1.14.43-.26.44-.18,1.03.2,1.38,2.54,2.17,5.09,5.12,7.02,8.09Z"/>
  <path class="cls-1" d="M211.68,29c-.54-.08-1,.25-1.13.78-1.91,7.29-5.5,13.98-10.08,18.81-1.14,1.1-.98,2.7-.18,3.61.41.46.92.69,1.44.69.43,0,.87-.16,1.27-.49,5.41-4.88,9.1-13.39,9.61-22.22.03-.69-.45-1.12-.93-1.19Z"/>
  <path class="cls-1" d="M245.44,50.07c-6.29-1.53-11.07-4.08-14.63-7.83-.3-.3-.7-.39-1.04-.26.26-.17.53-.27.81-.27h9.52c1.29.05,2.6.17,3.98.39,0,0,.58.08.54.08,0,0,.2.03.29.03.81,0,1.45-.65,1.55-1.56.02-.12.03-.24.03-.37,0-.12-.01-.25-.03-.34,0-.07-.02-.13-.04-.19-.01-.07-.03-.14-.05-.2-.18-.53-.52-.9-.95-1.05-.07-.03-.15-.06-.19-.06-.11-.03-.21-.04-.33-.04-.09,0-.27.02-.29.02l-.11.02c-.24.04-.47.07-.71.11-1.32.2-2.58.32-3.84.35h-8.97c-.11,0-.3-.02-.39-.13-.09-.11-.1-.34-.01-.66.13-.68.27-1.4.35-2.15.15-1.35-.49-2.26-1.31-2.59,2.65-.14,5.74-.24,9.08-.24.72,0,1.26-.54,1.32-1.26.4.87.79,1.81,1.18,2.86.4,1.05,1.18,1.47,1.9,1.47.19,0,.38-.03.55-.08.94-.3,1.7-1.37,1.32-2.83-1.19-4.63-4.84-6.81-6.35-7.54-.41-.2-.86-.11-1.15.23-.33.38-.35.98-.06,1.38.73,1.01,1.37,2.04,1.97,3.2-.2-.12-.44-.19-.73-.19-3.71,0-7.57.12-11.47.36,4.84-3.01,8.79-6.35,11.16-9.46.75-1.11.36-2.41-.46-3.02-.67-.5-1.71-.58-2.48.37-1.61,1.89-3.42,3.62-5.39,5.23,0,0,0,0,0,0,.23-.47.19-1.08-.1-1.51-.26-.38-.67-.58-1.13-.55l-3.67.27c1.81-1.43,3.01-2.61,3.48-3.19.89-1.04.55-2.32-.21-3-.77-.69-1.81-.65-2.52.1-1.8,1.96-5.51,4.7-9.03,6.67-1.16.65-1.28,1.92-.8,2.83.36.68.99,1.07,1.64,1.07.26,0,.53-.06.79-.19,0,0,.01,0,.02,0l.38-.2c.28-.15.57-.31.89-.47.49-.3,1.22-.52,1.85-.58l7.36-.54c.09,0,.18-.03.27-.05-4,3.12-8.68,5.68-14.02,7.65-.65.23-1.1.76-1.22,1.46-.14.79.15,1.64.72,2.11.31.25.67.39,1.06.39.21,0,.43-.04.65-.12,1.11-.41,2.26-.87,3.61-1.45.76-.33,1.73-.59,2.44-.64,1.3-.12,3.19-.28,5.51-.42-.52.28-.94.81-1.09,1.62-.14.84-.34,1.71-.6,2.63-.21.71-.8,1.19-1.46,1.19h-12.04c-.74,0-1.3.59-1.3,1.38s.56,1.44,1.3,1.44h11.4c.23,0,.35.06.38.09s.05.21-.1.52c-2.75,5.17-7.34,8.83-13.62,10.88-.57.17-.89.72-.78,1.29.1.5.52.85,1.02.85.04,0,.08,0,.12,0,7.86-1,14.48-5.64,17.7-12.39.09-.17.19-.32.3-.46-.16.32-.17.7,0,1.05,2.79,5.62,8.36,9.7,15.27,11.19.18.04.36.06.53.06,1.03,0,1.87-.68,2.12-1.78.26-1.16-.24-2.58-1.68-2.93Z"/>
  <path class="cls-1" d="M209.39,11.04s0,0,0,0c.51.76,1.18,1.06,1.79,1.06.35,0,.68-.09.96-.25.96-.56,1.53-1.94.75-3.52-1.72-3.25-5.41-6.02-9.67-7.21-.47-.11-.93.11-1.14.55-.23.48-.09,1.05.29,1.34,2.35,1.92,4.9,4.85,7.01,8.04Z"/>
</svg>