<?xml version="1.0" encoding="UTF-8"?>
<svg id="_圖層_2" data-name="圖層 2" xmlns="http://www.w3.org/2000/svg" viewBox="0 0 550.45 144.43">
  <defs>
    <style>
      .cls-1 {
        fill: #231815;
      }
    </style>
  </defs>
  <g id="_中文" data-name="中文">
    <g>
      <path class="cls-1" d="M106.41,92.27c-1.58,0-2.77,1.05-3.83,2.5,0,0-2.63,3.52-6.33,3.56h-11.42c-2.42,0-3.63-1.75-3.06-4.39,1.21-5.74,2.07-11.57,2.78-16.67.43-3.19-1.71-5.02-3.85-5.02-1.42,0-2.57.88-3.55,2.1h0s-.04.05-.06.07c-.07.1-.15.19-.22.29-.72.89-2.88,3.19-6.1,3.2-.07,0-.12,0-.19,0H20.42c-1.07,0-1.85.88-1.85,2.07s.78,2.07,1.85,2.07h51.65c2.42,0,3.78,1.76,3.35,4.47-1.21,6.62-2.85,13.8-4.84,19.86-1.14,3.43,1.07,5.82,3.42,5.82,1.71,0,3.13-1.2,4.06-3.19,2.49-5.74,2.92-6.54,5.2-6.54h14.46c2.42,0,3.92,1.36,3.63,3.51l-.86,7.98c-1.78,15.95-6.84,24.89-24.51,25.37-1.57.08-1.57,2.55-.14,2.87,18.81,3.83,30.06-4.31,31.92-22.49l2.28-22.49c.36-3.19-1.64-4.95-3.63-4.95Z"/>
      <path class="cls-1" d="M118.45,67.38c-18.81-5.98-33.91-12.52-47.66-24.25-.93-.8-2.28.64-1.57,1.75,10.76,16.11,29.85,25.68,46.59,31.27,6.2,2.07,8.05-7.02,2.64-8.78Z"/>
      <path class="cls-1" d="M39.94,88.76c-6.7,27.28-14.68,40.68-38.61,51.69-1.35.64-.86,2.79.57,2.55,26.22-4.94,39.61-22.49,45.59-52.48,1.14-5.9-6.13-7.5-7.55-1.76Z"/>
      <path class="cls-1" d="M15.44,22.4c31.63,0,60.84-2.23,86.91-14.2,4.84-2.39,2.42-9.97-2.56-7.82C71.57,12.51,43.72,16.49,15.44,19.68c-1.64.16-1.35,2.71,0,2.71Z"/>
      <path class="cls-1" d="M1.47,78.39c19.66-4.55,39.47-12.84,53.14-28.16,2.21-2.31,3.14-1.52,3.14,1.36v18.03c0,2.55,1.57,4.31,3.7,4.31,2.28,0,3.85-1.76,3.85-4.31v-25.29c0-2.71,1.64-4.55,4.06-4.55h34.47s1.39,0,1.39,0c4.26.13,8.35.58,12.54,1.28h.11s.36.05.54.05c1.5,0,2.6-1.43,2.6-3.48,0-.02,0-.03,0-.05,0-.01,0-.03,0-.04,0-.13-.02-.24-.03-.36-.15-1.82-1.18-3.05-2.57-3.05-.18,0-.54.05-.54.05-4.24.7-8.37,1.15-12.67,1.28h-1.37s-34.83,0-34.83,0c-2.21,0-3.7-1.67-3.7-4.15v-5.1c0-2.55-1.57-4.31-3.85-4.31-2.14,0-3.7,1.76-3.7,4.31v5.1c0,2.47-1.42,4.15-3.71,4.15H4.32c-1.14,0-1.99.88-1.99,2.07,0,1.28.85,2.23,1.99,2.23h44.52c2.42,0,2.99,1.36,1.42,3.43-12.82,15.95-29.99,25.21-49.44,32.54-1.5.56-.78,2.95.64,2.63Z"/>
      <path class="cls-1" d="M184.2,101.84c-2.07-1.84-2.64-4.47-1.78-6.78,6.13-17.71,8.55-38.05,9.69-57.91l.14-3.11c.14-2.63-1.21-4.63-3.35-4.79-1.87-.07-3.23.99-4.51,3.48,0,0-2.19,4.17-7.53,4.17-.06,0-.1,0-.16,0h-3.9c-2.35,0-3.63-1.67-3.21-4.31,1.28-9.57,2.28-19.06,2.71-27.76.29-5.58-6.84-6.06-7.27-.32-.36,8.69-1.35,18.27-2.71,27.92-.43,2.71-2.35,4.47-4.77,4.47h-12.61c-1.07,0-1.85.88-1.85,2.07s.78,2.07,1.85,2.07h11.9c2.42,0,3.78,1.76,3.28,4.47-3.35,17.87-8.19,34.86-13.75,46.26-2.14,4.31,3.71,9.25,6.41,3.83,6.2-12.44,11.26-31.03,14.75-50.25.43-2.63,2.28-4.31,4.63-4.31h8.19c2.35,0,3.78,1.76,3.56,4.39-1.35,17.07-3.56,32.14-7.69,45.54-.86,2.63-2.85,3.51-5.06,2.23-3.63-1.99-7.34-3.67-10.83-4.94-1.28-.48-2.07,1.59-1,2.39,3.06,2.31,6.41,4.94,9.83,7.9,1.92,1.76,2.49,4.47,1.35,6.94-6.2,13.16-15.32,24.73-28.85,35.26-1.07.88-.14,3.03,1.28,2.39,15.1-8.22,25.5-19.38,32.77-32.7,1.21-2.39,3.21-2.79,4.99-.88,2.92,3.11,5.77,6.46,8.41,9.97,3.42,4.95,9.26-.64,6.27-5.58-2.78-4.39-6.7-8.45-11.18-12.12Z"/>
      <path class="cls-1" d="M263.65,38.72c-.19,0-.56.06-.56.06-4.39.73-8.66,1.19-13.11,1.33h-1.42s-11.15,0-11.15,0c-2.42,0-4.06-1.83-4.06-4.55V6.04c0-2.71-1.57-4.55-3.78-4.55-2.35,0-3.92,1.84-3.92,4.55v29.51c0,2.71-1.64,4.55-4.06,4.55h-24.36c-1.14,0-1.99.96-1.99,2.23s.86,2.23,1.99,2.23h24.36c2.42,0,4.06,1.84,4.06,4.55v26.48c0,2.71-1.64,4.55-4.06,4.55h-4.88c-.07,0-.12,0-.19,0-5.34,0-7.53-4.17-7.53-4.17-1.09-1.81-2.29-2.68-3.93-2.68-2.21,0-3.78,1.67-3.78,4.23v61.1c0,2.47,1.57,4.23,3.78,4.23s3.85-1.67,4.2-4.55c.18-1.9.36-3.44.56-4.7.17-1.06.6-2.06,1.31-2.87,1.02-1.17,2.79-2.56,5.48-2.56h26.46c2.64,0,4.39,1.34,5.42,2.5.76.85,1.21,1.92,1.35,3.05.1.75.18,1.58.24,2.51.29,2.71,1.57,4.95,4.27,4.95,2.21,0,3.78-1.76,3.78-4.23v-59.42c0-2.55-1.57-4.23-3.78-4.23-1.64,0-2.84.87-3.93,2.68,0,0-.04.06-.1.16,0,0-.01.02-.01.02-.5.81-2.76,4-7.41,4-.07,0-.12,0-.19,0h-5.31c-2.42,0-4.06-1.84-4.06-4.55v-26.48c0-2.71,1.64-4.55,4.06-4.55h12.75c4.35.14,8.53.6,12.81,1.32h.11s.37.06.56.06c1.55,0,2.69-1.47,2.69-3.6h0s0-.01,0-.02c0-2.14-1.14-3.6-2.69-3.6ZM246.4,84.29c2.42,0,4.06,1.83,4.06,4.55v30.63c0,2.71-1.64,4.55-4.06,4.55h-33.34c-2.42,0-4.06-1.84-4.06-4.55v-30.63c0-2.71,1.64-4.55,4.06-4.55h33.34Z"/>
      <path class="cls-1" d="M362.47,45.1s0-.05,0-.07c-.01-.1-.04-.19-.06-.28-.3-1.49-1.25-2.47-2.48-2.47-.18,0-.54.05-.54.05-.06.01-.12.02-.18.03-.27.02-.54.06-.82.12-3.87.61-7.68,1.01-11.62,1.13h-15.88c-1.07,0-1.85.88-1.85,2.07,0,1.28.78,2.23,1.85,2.23h14.48s1.39,0,1.39,0c4.04.12,7.94.54,11.9,1.18.11.02.21.04.32.05.1.02.2.03.3.05h.11s.36.05.54.05c1.5,0,2.59-1.42,2.59-3.48,0-.02,0-.03,0-.05,0-.01,0-.03,0-.04,0-.21-.02-.4-.05-.59Z"/>
      <path class="cls-1" d="M359.03,54.3c-1.4,0-2.37.63-3.23,1.65h0s-.03.03-.04.05c-.09.11-.18.21-.26.32-.68.79-2.55,2.6-5.52,2.6-.02,0-.04,0-.06,0h-7.7s-.04,0-.06,0c-2.98,0-4.85-1.82-5.53-2.61-.08-.11-.16-.2-.25-.3-.02-.03-.05-.07-.05-.07h0c-.86-1.02-1.83-1.65-3.23-1.65-1.71,0-3.2,1.28-3.2,3.51v26.64c0,2.23,1.35,3.83,3.28,3.83,1.61,0,2.69-.92,3.68-2.92h0s1.73-3.3,5.94-3.3h6.71c3.78,0,5.55,2.64,5.87,3.19,0,.01.01.03.02.04.02.03.05.08.05.08h0c.96,1.67,2.05,2.44,3.52,2.44,1.92,0,3.28-1.43,3.28-3.51v-26.48c0-2.23-1.5-3.51-3.2-3.51ZM355.54,73.92c0,2.39-1.42,3.99-3.56,3.99h-11.82c-2.14,0-3.56-1.59-3.56-3.99v-6.86c0-2.39,1.42-3.99,3.56-3.99h11.82c2.14,0,3.56,1.59,3.56,3.99v6.86Z"/>
      <path class="cls-1" d="M384.6,65.15c1.14,5.74,1.71,12.44,1.71,18.98,0,4.79,6.41,5.1,6.7,0,.43-6.86-2.99-15.63-6.7-19.94-.71-.8-1.85-.16-1.71.96Z"/>
      <path class="cls-1" d="M373.35,37.07c.36-.4.71-.8,1.14-1.2,1.07-1.28,2.78-2.23,4.35-2.47l6.62-.96c2.28-.32,1.85-4.55-.57-4.15l-2.14.32c-1.78.32-2.28-.64-1.21-2.31,3.99-6.22,7.62-13.48,9.9-19.7,1.57-4.47-3.99-7.34-5.98-2.39-3.7,8.93-10.83,20.9-16.67,27.44-3.28,3.67,1.28,8.78,4.56,5.42Z"/>
      <path class="cls-1" d="M369.78,57.17c-3.42,3.35.57,9.09,4.27,5.58l1.5-1.52c1.28-1.28,3.13-2.23,4.84-2.55l14.18-2.31c2.42-.4,1.71-4.55-.57-4.15l-7.41,1.2c-2.78.48-3.35-.72-1.42-3.03,7.27-9.41,13.75-20.5,17.38-30.07,1.57-4.31-3.99-7.66-5.99-2.71-5.27,13.08-16.38,29.67-26.79,39.56Z"/>
      <path class="cls-1" d="M396.14,42.66c-.71-.32-1.71.64-1.14,1.76,3.42,5.74,4.56,9.89,5.99,14.84,1.28,4.31,7.26,3.03,6.13-2.07-1.42-6.7-6.41-12.12-10.97-14.52Z"/>
      <path class="cls-1" d="M372.49,90.35c4.56-6.54,6.27-17.39,5.27-24.09-.14-1.12-1.57-1.28-1.85-.16-2.28,7.5-4.42,13.08-8.69,19.62-2.56,3.99,2.71,8.3,5.27,4.63Z"/>
      <path class="cls-1" d="M326.75,22.87h22.71s1.39,0,1.39,0c4.26.13,8.36.58,12.54,1.28h.11s.36.05.54.05c1.26,0,2.22-1.01,2.51-2.55.01-.06.03-.12.04-.19,0-.06,0-.12.01-.18.02-.16.04-.33.04-.5,0-.01,0-.02,0-.03,0-.01,0-.02,0-.04,0-2.08-1.1-3.5-2.6-3.5-.18,0-.54.05-.54.05-.1.02-.2.03-.3.05-.13.02-.26.03-.4.06-3.99.64-7.91,1.06-11.97,1.17h-1.37s-22.71,0-22.71,0c-1.07,0-1.85.96-1.85,2.23,0,1.2.78,2.07,1.85,2.07Z"/>
      <path class="cls-1" d="M346.13,15.22c2.99,4.63,8.55.32,5.84-4.63-3.28-6.06-10.61-9.49-15.81-10.53-1.21-.24-1.71,1.36-.71,2.23,3.85,3.35,7.84,8.45,10.69,12.92Z"/>
      <path class="cls-1" d="M362.47,32.34s0-.06,0-.08c-.01-.09-.04-.18-.06-.27-.3-1.5-1.25-2.47-2.48-2.47-.18,0-.54.05-.54.05-.06.01-.12.02-.18.03-.27.02-.54.06-.81.12-3.89.61-7.7,1.01-11.65,1.13h-1.37s-14.48,0-14.48,0c-1.07,0-1.85.88-1.85,2.07,0,1.28.78,2.23,1.85,2.23h15.89c4.03.12,7.92.54,11.87,1.18.11.02.21.04.32.05.1.02.2.03.3.05h.11s.36.05.54.05c1.5,0,2.59-1.42,2.59-3.48,0-.02,0-.03,0-.05,0-.01,0-.03,0-.04,0-.2-.02-.39-.04-.58Z"/>
      <path class="cls-1" d="M311.22,87.48c.71-7.34-2.42-16.91-6.13-22.01-.57-.8-1.85-.32-1.71.8.85,7.02,1.57,13.08,1.14,20.74-.29,4.79,6.13,5.74,6.7.48Z"/>
      <path class="cls-1" d="M390.3,98.65c-2.28,0-3.85,1.76-3.85,4.15v18.11c0,2.71-1.64,4.55-4.06,4.55h-27.64c-2.42,0-4.06-1.84-4.06-4.55v-28.16c0-2.63-1.57-4.47-3.85-4.47s-3.99,1.84-3.99,4.47v28.16c0,2.71-1.64,4.55-4.06,4.55h-26.36c-2.42,0-4.06-1.84-4.06-4.55v-18.11c0-2.39-1.57-4.15-3.85-4.15s-3.85,1.76-3.85,4.15v37.49c0,2.39,1.57,4.15,3.78,4.15s3.85-1.59,4.2-4.55c.18-1.83.35-3.32.55-4.54.17-1.06.61-2.06,1.31-2.87,1.02-1.17,2.78-2.55,5.46-2.55h62.99c2.68,0,4.45,1.39,5.47,2.56.73.84,1.16,1.88,1.31,2.98.12.9.24,1.95.36,3.15.43,3.11,1.92,4.71,4.27,4.71,2.21,0,3.78-1.76,3.78-4.07v-36.45c0-2.39-1.57-4.15-3.85-4.15Z"/>
      <path class="cls-1" d="M395.22,61.8c-1-.72-2.07.64-1.5,1.59,4.56,7.02,6.13,10.69,8.41,18.03,1.57,5.42,7.55,2.55,6.41-2.07-2.14-8.45-6.98-13.24-13.32-17.55Z"/>
      <path class="cls-1" d="M316.07,54.78c-.14-1.28-1.14-2.07-2.14-1.91l-8.12,1.44c-2.78.48-3.35-.72-1.42-3.03,7.55-9.65,14.32-21.06,18.09-30.95,1.57-4.31-3.99-7.66-5.98-2.71-5.27,13.08-16.39,29.67-26.79,39.56-3.42,3.35.57,9.09,4.27,5.58l.78-.72c1.14-1.2,2.92-2.07,4.49-2.39l15.24-2.63c1-.16,1.71-1.28,1.57-2.23Z"/>
      <path class="cls-1" d="M314.5,63.08c-1-.64-1.99.32-1.35,1.52,2.99,5.26,4.35,10.61,5.91,17.31,1,4.47,6.98,3.67,6.41-1.44-.71-6.86-5.7-13.88-10.97-17.39Z"/>
      <path class="cls-1" d="M326.18,57.33c-.57-5.42-5.56-12.13-10.4-14.52-.85-.48-1.71.32-1.28,1.28,2.85,5.74,3.85,9.57,5.27,15.15,1,3.99,6.98,3.19,6.41-1.91Z"/>
      <path class="cls-1" d="M294.41,67.06c-1.57,9.73-5.56,17.71-8.69,22.81-2.42,3.99,2.56,8.62,5.41,4.47,4.7-7.18,6.27-19.3,5.13-27.28-.14-1.12-1.71-1.28-1.85,0Z"/>
      <path class="cls-1" d="M293.56,37.07c.29-.32.57-.56.85-.88,1.14-1.28,2.85-2.23,4.42-2.47l6.13-.96c2.49-.4,1.92-4.55-.57-4.15l-1.64.24c-1.78.32-2.21-.56-1.14-2.15,4.06-6.38,7.69-13.72,10.05-20.1,1.57-4.47-3.99-7.34-5.99-2.39-3.7,8.93-10.83,20.9-16.67,27.44-3.28,3.67,1.28,8.78,4.56,5.42Z"/>
      <path class="cls-1" d="M511.54,35.17c-2.43-7.18-9.84-12.3-15.38-14.51-.94-.4-1.72.78-1.15,1.74,4.56,6.23,7.12,11.33,9.26,15.79,2.85,5.9,8.98,1.91,7.26-3.02Z"/>
      <path class="cls-1" d="M469.79,92.43c3.21-1.18,6.34-2.46,9.49-3.82,1.99-.88,4.76-1.68,6.97-1.83,9.26-.88,25.08-2.01,43.24-2.01,2.56,0,2.71-4.14-.13-4.14-11.98,0-22.88.48-31.57,1.03-3.34.25-3.63-.71-.63-2.46,12.89-7.91,23.72-16.9,30.06-25.21,2.71-3.99-2.14-8.94-5.27-5.1-11.98,14.04-29.64,27.27-54.28,36.36-4.14,1.45-2.14,8.79,2.12,7.18Z"/>
      <path class="cls-1" d="M518.32,44.81c9.68-4.79,16.88-11.57,19.86-22.25,1.43-5.6-4.98-7.83-7.12-2.88-4.41,11.02-6.68,14.84-13.81,23.15-.94,1.03.06,2.46,1.07,1.99Z"/>
      <path class="cls-1" d="M475.06,66.91c1.07-.57,2.22-1.2,3.29-1.76,1.57-.95,3.78-1.6,5.63-1.76l19.58-1.43c2.43-.15,2.14-4.32-.29-4.14l-10.54.78c-2.77.17-3.13-.78-.78-2.54,4.72-3.67,8.14-6.95,9.49-8.61,3.13-3.67-1.72-8.94-4.85-5.6-4.7,5.12-14.4,12.45-24.37,18.03-4.28,2.41-.99,8.94,2.85,7.03Z"/>
      <path class="cls-1" d="M487.19,37.88c-2.14-6.7-9.42-12.45-15.11-14.69-.86-.32-1.85.8-1.15,1.91,4.56,6.07,6.42,10.37,9.26,16.27,2.71,5.42,8.82,2.23,6.99-3.49Z"/>
      <path class="cls-1" d="M528.58,68.19c-1.15-.57-1.85,1.03-1.22,1.91,4.28,5.9,7.28,11.96,10.26,19.94,2.01,5.27,8.42,2.71,6.99-2.86-2.43-9.42-9.34-15.79-16.02-18.98Z"/>
      <path class="cls-1" d="M533.24,107.59c3.67.13,7.2.5,10.79,1.05,0,0,1.36.21,1.43.21,0,0,.36.06.54.06,1.32,0,2.35-1.11,2.54-2.81.04-.25.06-.48.06-.75,0-.23-.02-.46-.06-.67-.02-.13-.04-.27-.08-.38-.02-.13-.06-.27-.1-.38-.3-.92-.88-1.57-1.6-1.81-.1-.04-.19-.08-.29-.1-.15-.04-.31-.06-.48-.06s-.54.04-.54.04c-.74.11-1.47.23-2.2.32-3.48.53-6.89.86-10.45.95h-23.84c-2.22,0-3.29-1.59-2.64-3.99.36-1.83.71-3.67.92-5.58.73-6.38-6.55-7.51-7.54-1.91-.42,2.46-.99,4.87-1.64,7.18-.78,2.62-2.98,4.3-5.4,4.3h-31.99c-1.07,0-1.85.88-1.85,2.08,0,1.28.78,2.23,1.85,2.23h30.27c2.43,0,3.29,1.58,2.14,3.97-8.04,15.09-21.3,24.5-37.11,29.68-1.57.48-1.15,2.71.29,2.56,18.87-2.41,36.98-13.56,45.8-32.07,1.36-2.64,3.63-4.14,5.84-4.14h25.32Z"/>
      <path class="cls-1" d="M466.09,19.05c25.08.63,55.29-2.23,74.24-10.52,4.98-2.08,2.43-9.89-2.71-7.83-17.23,7.18-48.15,13.01-71.66,15.64-1.57.15-1.28,2.71.13,2.71Z"/>
      <path class="cls-1" d="M445.15,66.59c3.27,4.62,9.55.15,6.42-5.75-4.43-8.61-14.11-15.15-24.37-18.18-1.28-.4-1.78,1.36-.99,2.08,6.68,5.73,13.68,13.71,18.95,21.85Z"/>
      <path class="cls-1" d="M456.27,77.91c-5.27,20.11-14.97,37.82-27.22,50.73-4.28,4.14.42,11.17,4.56,7.81,13.1-11.8,23.57-33.33,25-57.91.08-1.74-2.01-2.06-2.35-.63Z"/>
      <path class="cls-1" d="M547.03,132.96c-13.12-3.19-28.08-9.09-39.61-21.22-1.15-1.13-2.35.32-1.72,1.59,8.4,16.92,24.66,25.69,39.48,28.88,5.98,1.28,7.26-7.96,1.85-9.24Z"/>
      <path class="cls-1" d="M452.98,26.86c3.29,4.95,9.55.48,6.55-5.58-4.55-8.61-14.38-15.47-24.64-18.35-1.28-.31-1.8,1.53-.86,2.23,6.84,5.6,13.68,13.73,18.95,21.7Z"/>
    </g>
  </g>
</svg>