<?xml version="1.0" encoding="UTF-8"?>
<svg id="_圖層_1" data-name="圖層 1" xmlns="http://www.w3.org/2000/svg" viewBox="0 0 183.14 56.17">
  <defs>
    <style>
      .cls-1 {
        fill: #231815;
      }
    </style>
  </defs>
  <path class="cls-1" d="M17.29,17.59c.4,0,.84-.14,1.27-.46,2.93-2.21,4.79-6.55,5.09-11.92.03-.58-.32-1.05-.84-1.15-.49-.09-.97.2-1.13.68-1.35,3.82-2.82,6.17-5.62,8.95h0c-1.02,1.07-.85,2.47-.17,3.25.34.39.84.65,1.41.65Z"/>
  <path class="cls-1" d="M10.81,11.25c.51.76,1.18,1.06,1.8,1.06.35,0,.68-.09.96-.25.97-.56,1.54-1.94.75-3.54-1.73-3.28-5.45-6.05-9.71-7.24-.47-.12-.92.1-1.13.53-.23.48-.11,1.05.29,1.36,2.36,1.93,4.93,4.87,7.04,8.07Z"/>
  <path class="cls-1" d="M34.67,15.77c.1,0,.2-.02.3-.05,4.07-1.15,7.34-4.5,8.55-8.74.44-1.52-.36-2.54-1.29-2.85-.9-.3-2.1.05-2.55,1.26-1.45,3.85-3.07,6.29-5.59,8.44-.42.35-.54.94-.29,1.4.18.33.51.52.86.52Z"/>
  <path class="cls-1" d="M13.66,27.14s0,0,0,0c-.5.22-.75.77-.58,1.32.14.45.53.74.97.74.06,0,.13,0,.19-.02,6.26-1.34,10.61-4.18,13.7-8.96.72-1.15,1.31-2.36,1.81-3.6.08.21.23.4.44.53h0c3.74,2.35,7.9,6.07,11.39,10.19.91,1.09,2.06,1.02,2.8.46.92-.69,1.35-2.21.36-3.67-2.96-4.13-8.39-7.64-13.87-8.96-.22-.05-.44-.01-.63.08,1.52-4.51,1.85-9.28,1.94-12.85.04-1.43-1.01-2.25-2.02-2.29-.98-.02-2.01.61-2.09,2.12-.31,6.05-.73,10.71-3.32,15.61-2.34,4.26-5.45,6.86-11.08,9.27Z"/>
  <path class="cls-1" d="M12.26,29.33c-.53-.08-1.01.23-1.16.74-2.27,8.11-5.63,14.62-9.99,19.34-1.08,1.17-.81,2.67,0,3.5.42.42.93.64,1.44.64.47,0,.94-.18,1.33-.53,5.15-4.61,8.77-13.48,9.23-22.59.03-.54-.33-1-.86-1.08Z"/>
  <path class="cls-1" d="M20.76,29.31c-1.55,4.63-2.86,6.03-5.67,8.75,0,0,0,0,0,0-1.02,1.01-.84,2.54-.09,3.39.34.38.83.65,1.38.65.41,0,.85-.14,1.28-.49,3.08-2.44,5.08-7.15,5.08-12,0-.52-.36-.96-.85-1.04-.5-.08-.95.21-1.13.73Z"/>
  <path class="cls-1" d="M41.69,28.94c-.86-.33-2.05-.04-2.64,1.35-1.5,3.55-3.36,6.29-5.84,8.61-.37.35-.44.95-.16,1.4.18.29.47.45.78.45.11,0,.22-.02.33-.06,4.24-1.63,7.44-4.82,8.76-8.75.49-1.45-.26-2.62-1.23-2.99Z"/>
  <path class="cls-1" d="M7.97,25.4c.51.69,1.13.96,1.71.96.39,0,.75-.12,1.06-.32.93-.61,1.46-2.08.59-3.61-1.96-3.1-5.84-5.57-10.15-6.42-.47-.09-.91.15-1.09.59-.2.48-.05,1.04.36,1.33,2.57,1.84,5.31,4.56,7.52,7.47Z"/>
  <path class="cls-1" d="M46.4,50.25c-6.44-2.59-11.81-6.75-14.75-11.41-.3-.48-.85-.65-1.34-.42-.14.07-.26.16-.35.27,1.2-3.74,1.79-8.02,1.79-12.93,0-1.49-1.04-2.28-2.07-2.29,0,0-.02,0-.02,0-.98,0-1.98.74-2.02,2.15-.21,7.74-1.43,12.93-4.06,17.33-2.76,4.6-7.01,7.82-13.79,10.43,0,0,0,0,0,0-.51.2-.77.78-.62,1.34.13.48.53.79,1.01.79.06,0,.12,0,.17-.01,7.1-1.15,12.41-4.35,16.25-9.79,1.29-1.89,2.33-3.97,3.13-6.27,0,.11.03.22.06.33,2.38,7.09,8.22,12.88,15.26,15.1,1.14.37,2.24-.2,2.67-1.39.42-1.15.11-2.68-1.29-3.24ZM30.33,39.58h0Z"/>
  <path class="cls-1" d="M98.97,25.12c.1,0,.2-.02.3-.05,0,0,0,0,.01,0,5.1-1.68,9.7-5.79,11.73-10.47.69-1.58.05-2.9-.94-3.39-.8-.4-1.97-.25-2.67.99-1.89,3.37-4.63,7.66-9.04,10.91-.44.31-.58.91-.33,1.41.19.38.55.6.93.6Z"/>
  <path class="cls-1" d="M113.69,43.75s-.01-.01-.02-.02c-10.03-7.06-16.51-16.91-20.41-30.98-.28-1.05-.46-2.53-.46-3.68V2.23c0-1.29-.87-2.23-2.06-2.23s-2.05.94-2.05,2.23v39.83c0,7.61-1.8,10.04-8.03,10.81-.52.06-.91.47-.94,1.02-.03.57.33,1.07.87,1.19,1.2.28,2.32.42,3.36.42,2.07,0,3.82-.56,5.22-1.67,2.41-1.91,3.63-5.3,3.63-10.08v-23.7c3.72,12.63,10.08,22.29,18.46,28,1.05.71,2.19.54,2.91-.45.78-1.08.77-2.88-.48-3.84Z"/>
  <path class="cls-1" d="M85.69,13.94c-.39-.43-.95-.67-1.53-.67-.81,0-1.51.46-2.02,1.35-.53.94-1.08,1.92-3.33,1.92h-9.85c-.74,0-1.3.59-1.3,1.38s.56,1.39,1.3,1.39h11.43c.21,0,.5.04.67.25.17.2.22.55.14.96-2.23,11.12-6.86,19.43-14.56,26.15-.44.36-.52,1-.2,1.49.2.3.49.46.8.46.15,0,.29-.04.44-.11,10.57-5.71,17.17-17.3,18.58-32.64.08-.97-.27-1.58-.58-1.92Z"/>
  <path class="cls-1" d="M146.36,29.87c-.54-.09-1.03.24-1.18.8,0,0,0,0,0,0-1.86,6.9-6.04,14.13-10.67,18.43-1.14,1.11-1,2.56-.27,3.41.42.5.99.75,1.56.75.44,0,.89-.15,1.3-.45,5.57-4.34,9.85-13.5,10.17-21.78.03-.59-.36-1.08-.91-1.17Z"/>
  <path class="cls-1" d="M140.3,25.25c.52.78,1.2,1.09,1.83,1.09.34,0,.67-.09.94-.25.94-.54,1.48-1.9.72-3.46,0,0,0,0,0-.01-1.74-3.29-5.53-6.17-9.69-7.33-.47-.11-.92.11-1.13.55-.23.48-.09,1.05.29,1.35,2.36,1.93,4.93,4.87,7.05,8.07Z"/>
  <path class="cls-1" d="M143.11,11.86c.52.78,1.2,1.08,1.82,1.08.34,0,.67-.09.95-.25.94-.54,1.49-1.9.72-3.45,0,0,0,0,0-.01-1.74-3.3-5.54-6.17-9.68-7.33-.47-.12-.92.09-1.13.53-.23.48-.11,1.06.29,1.37,2.36,1.93,4.93,4.87,7.05,8.07Z"/>
  <path class="cls-1" d="M164.87,43.08c1.14,0,2-.92,2-2.14v-23.65c0-1.33-.82-2.26-2-2.26-.66,0-1.26.32-1.7.9-.14.19-.27.39-.38.6-.25.48-.48.74-.84.94-.32.18-.7.27-1.13.27h-3.83c-.25,0-.49-.04-.72-.13-.19-.07-.37-.17-.54-.3-.25-.19-.4-.45-.58-.77-.06-.1-.12-.21-.18-.32-.2-.33-.41-.58-.66-.77-.26-.2-.57-.34-.89-.4-.12-.02-.25-.03-.37-.03-1.18,0-2,.93-2,2.26v24.34c0,1.26.84,2.17,2,2.17,1.22,0,2.06-.92,2.14-2.34.06-.89.12-1.54.19-2.03.07-.47.3-.87.64-1.09.33-.22.71-.33,1.13-.33h3.6c.43,0,.81.11,1.14.34.34.23.57.62.63,1.05.05.37.1.82.15,1.39.29,2.07,1.63,2.29,2.19,2.29ZM162.81,21.75v12.24c0,.54-.25,1.12-.94,1.12h-5.82c-.69,0-.94-.58-.94-1.12v-12.24c0-.54.25-1.12.94-1.12h5.82c.69,0,.94.58.94,1.12Z"/>
  <path class="cls-1" d="M180.56,5.74c-.07-.06-.16-.12-.21-.16-.09-.06-.19-.12-.32-.17,0,0-.09-.03-.1-.03-.08-.02-.16-.04-.2-.04-.22-.05-.46-.04-.68,0-1.74.26-3.45.41-5.21.46h-26.35c-.77,0-1.35.62-1.35,1.45s.58,1.45,1.35,1.45h23.42c.11,0,.21.01.32.05.04.01.09.03.18.08.03.01.06.03.12.08.02.03.05.06.07.09.03.03.05.06.11.16.02.02.04.06.06.12,0,.01,0,.03.01.04.05.14.08.32.08.5v31.65c0,8.24-1.85,10.97-7.94,11.71-.53.06-.91.54-.91,1.13,0,.58.38,1.03.89,1.08.85.13,1.65.19,2.42.19,2.49,0,4.54-.68,6.12-2.03,2.31-1.99,3.53-5.46,3.53-10.04V9.78c.04-.23.19-.45.42-.61.26-.19.62-.29.98-.25.57.07,1.09.13,1.68.22,0,0,.02,0,.03,0,.08.02.14.02.13.01.03,0,.06,0,.09,0,.27.03.36,0,.54-.05.09-.02.19-.05.3-.1.22-.1.43-.25.57-.42.31-.35.49-.83.49-1.36,0-.6-.23-1.14-.63-1.5Z"/>
</svg>