<?xml version="1.0" encoding="UTF-8"?>
<svg id="_圖層_2" data-name="圖層 2" xmlns="http://www.w3.org/2000/svg" viewBox="0 0 406.91 142.5">
  <defs>
    <style>
      .cls-1 {
        fill: #231815;
      }
    </style>
  </defs>
  <g id="_中文" data-name="中文">
    <g>
      <path class="cls-1" d="M.52,44.12c-.92-.63-.56-2.45.71-2.22,10.31,2.06,20.48,8.07,25.57,16.13,3.25,5.69-2.68,10.76-6.22,6.01-5.65-7.43-12.99-14.87-20.06-19.93ZM2.49,128.97c12.08-13.05,20.83-30.84,26.55-51.32.35-1.26,2.26-1.03,2.19.4-1.2,23.88-10.59,46.42-23.66,58.12-3.88,3.48-9.11-2.85-5.09-7.2ZM9.27,5.53c-.92-.71-.42-2.53.85-2.21,10.17,2.85,19.92,9.65,24.44,18.19,2.97,6.01-3.25,10.44-6.5,5.53-5.23-7.91-12.01-15.97-18.79-21.51ZM24.6,139.8c18.08-6.96,29.45-15.5,36.94-27.99,6.92-11.55,10.31-25.46,10.88-46.18.14-5.69,7.63-5.38,7.63.32,0,21.98-4.66,38.75-13.28,51.4-9.04,12.81-22.03,21.82-41.53,24.99-1.55.24-1.84-2.06-.64-2.53ZM34.84,71.01c15.11-6.48,23.45-13.44,29.8-24.99,6.78-12.81,8.05-24.99,8.9-41.59.28-5.85,7.77-5.06,7.63.32-.42,16.29-2.68,32.74-10.88,45.86-8.47,13.13-20.06,19.61-34.89,22.77-1.27.24-1.84-1.82-.56-2.37ZM39.08,99.32c7.34-7.12,11.02-10.91,15.25-23.56.49-1.42,2.12-.95,2.12.32,0,11.55-4.52,23.72-12.71,30.21-4.38,3.48-8.19-3.48-4.66-6.96ZM41.62,35.43c7.34-7.28,11.44-13.6,15.11-24.04.42-1.26,2.19-.95,2.12.63-.71,12.49-4.94,24.2-12.71,30.05-4.24,3.16-8.19-2.85-4.52-6.64ZM78.34,42.07c-1.13-.71-.49-2.53.64-2.29,13.14,3.16,27.33,11.62,35.38,22.85,3.67,5.38-1.98,11.07-5.79,6.48-7.91-9.33-18.79-19.85-30.23-27.04ZM77.92,102.16c-.49-1.42,1.27-2.45,2.12-1.11,8.33,13.21,23.31,24.04,39.41,30.52,5.08,2.05,2.83,10.91-2.54,9.17-19.49-6.17-33.48-22.14-38.98-38.59ZM86.54,101.53c7.2-6.72,12.01-14.39,15.68-23.09,2.4-5.69,9.04-2.21,7.2,3.16-3.67,10.91-12.57,18.34-22.03,21.98-.99.39-1.69-1.27-.85-2.06ZM88.8,35.9c7.63-6.48,11.72-13.76,15.11-22.77,1.7-4.59,8.76-2.69,7.06,3.16-3.25,11.39-11.86,19.14-21.33,21.83-1.27.39-1.91-1.34-.85-2.22Z"/>
      <g>
        <path class="cls-1" d="M225.91,62.63c13.41-4.43,24.78-15.03,29.8-26.58,2.61-6-3.82-9.96-6.65-4.9-6.21,11.08-13.42,21.21-24.16,29.1-1.12.8-.28,2.78,1,2.39Z"/>
        <path class="cls-1" d="M263.19,114.34c-26.83-18.9-43.79-44.84-54.09-82.08-.78-2.93-1.27-6.97-1.27-10.04V4.26c0-2.52-1.55-4.26-3.82-4.26s-3.81,1.74-3.81,4.26v104.38c0,19.77-4.66,27.68-22.46,29.9-1.42.15-1.42,2.37,0,2.69,19.48,4.58,30.09-5.85,30.09-28.15V46.58c.13-2.37,1.12-2.86,1.89-.25,8.77,32.26,24.58,60.1,48.94,76.7,5.38,3.64,9.05-5.21,4.53-8.69Z"/>
        <path class="cls-1" d="M186.78,34.78c-1.62,0-2.95,1.03-3.84,2.6-1.45,2.57-3.24,5.96-10.17,5.96h-25.83c-1.06,0-1.84.87-1.84,2.05s.78,2.06,1.84,2.06h29.95c2.75,0,4.24,1.97,3.67,5.06-5.72,28.55-17.38,50.84-38.7,69.43-1.06.87-.08,2.76.98,2.22,28.4-15.34,44.36-46.03,47.88-84.29.28-3.33-1.84-5.07-3.96-5.07Z"/>
      </g>
      <g>
        <path class="cls-1" d="M309.07,58.43c-4.51-8.54-14.18-15.56-24.37-18.42-1.27-.3-1.76,1.51-.83,2.22,6.78,5.55,13.56,13.61,18.78,21.51,3.26,4.9,9.39.72,6.42-5.3ZM315.64,79.24c-4.51,16.76-15.11,36.69-28.38,49.02-4.39,4.28.49,10.53,4.73,7.36,14.41-11.23,25.22-34.72,26.05-55.91.08-1.59-1.97-2.06-2.4-.47ZM316.42,23.33c-4.51-8.54-14.18-15.58-24.37-18.42-1.27-.32-1.76,1.5-.83,2.22,6.78,5.53,13.56,13.59,18.78,21.51,3.26,4.9,9.39.7,6.42-5.3Z"/>
        <path class="cls-1" d="M365.73,39.38c-1.33,0-2.42.7-3.21,1.74-.32.42-.59.88-.84,1.35-.69,1.33-1.46,2.34-2.84,3.12-1.13.64-2.43.91-3.72.91h-10.03c-.83,0-1.67-.15-2.45-.45-.64-.24-1.24-.58-1.79-.99-1.19-.89-1.67-2.07-2.41-3.3-.36-.6-.8-1.17-1.35-1.6-.47-.37-1.02-.62-1.61-.73-.23-.04-.47-.06-.7-.06-2.18,0-3.67,1.74-3.67,4.35v63.8c0,2.46,1.5,4.11,3.67,4.11,2.76,0,3.9-2.37,4.03-4.66.15-2.25.31-4.03.51-5.44.22-1.59,1.03-3.07,2.36-3.96.93-.62,2.19-1.13,3.84-1.13h9.45c1.66,0,2.94.52,3.87,1.15,1.29.87,2.12,2.3,2.34,3.85.14,1.01.26,2.2.38,3.64.44,3.09,1.91,4.66,4.18,4.66s3.67-1.74,3.67-4.03v-61.99c0-2.61-1.5-4.35-3.67-4.35ZM361.91,87.53c0,2.69-1.63,4.51-4.03,4.51h-15.24c-2.4,0-4.03-1.82-4.03-4.51v-32.09c0-2.69,1.63-4.51,4.03-4.51h15.24c2.4,0,4.03,1.82,4.03,4.51v32.09Z"/>
        <path class="cls-1" d="M406.91,17.4c0,1.02-.32,1.89-.87,2.5-.26.3-.61.55-.98.72-.19.08-.42.13-.62.19-.21.06-.42.08-.64.08-.06,0-.13,0-.19-.02-.06,0-.11-.02-.19-.02-.06,0-.13,0-.21-.02-.04,0-.09-.02-.15-.02-1.53-.23-2.92-.4-4.45-.59-1.34-.13-2.67.23-3.65.95-.91.64-1.55,1.59-1.7,2.65-.04.17-.04.34-.04.53v88.09c0,18.67-7.78,32.9-29.82,29.57-1.4-.15-1.27-2.54,0-2.69,18.23-2.22,22.19-11.7,22.19-32.26V24.12c0-.66-.09-1.29-.28-1.84v-.02c-.09-.26-.21-.53-.36-.76-.13-.25-.28-.45-.47-.64-.08-.11-.19-.21-.28-.28-.19-.19-.4-.34-.62-.45-.23-.13-.47-.25-.74-.32-.4-.13-.81-.19-1.27-.19h-61.38c-1.14,0-1.97-.95-1.97-2.22s.83-2.22,1.97-2.22h69.07c4.7-.13,9.28-.53,13.9-1.21.23-.04.45-.06.66-.06.19,0,.38.02.57.06.15.02.28.06.42.09.06.02.11.04.17.06.15.06.3.13.44.23.15.09.3.21.44.32.68.61,1.1,1.57,1.1,2.73Z"/>
      </g>
    </g>
  </g>
</svg>