<?xml version="1.0" encoding="UTF-8"?>
<svg id="_圖層_2" data-name="圖層 2" xmlns="http://www.w3.org/2000/svg" viewBox="0 0 268.08 145.19">
  <defs>
    <style>
      .cls-1 {
        fill: #231815;
      }
    </style>
  </defs>
  <g id="_中文" data-name="中文">
    <g>
      <g>
        <path class="cls-1" d="M229.09,36.32c-2.43-7.2-9.86-12.32-15.41-14.54-.94-.4-1.72.78-1.15,1.74,4.57,6.24,7.14,11.35,9.28,15.83,2.85,5.91,8.99,1.91,7.27-3.02Z"/>
        <path class="cls-1" d="M187.26,93.7c3.22-1.19,6.35-2.47,9.51-3.83,1.99-.88,4.77-1.68,6.99-1.84,9.28-.88,25.13-2.01,43.33-2.01,2.56,0,2.72-4.15-.13-4.15-12,0-22.93.48-31.64,1.03-3.35.25-3.64-.71-.63-2.47,12.92-7.92,23.77-16.94,30.12-25.26,2.72-4-2.14-8.96-5.28-5.11-12,14.07-29.7,27.33-54.39,36.44-4.15,1.45-2.14,8.8,2.12,7.2Z"/>
        <path class="cls-1" d="M235.89,45.99c9.7-4.8,16.92-11.6,19.9-22.3,1.44-5.61-4.99-7.85-7.14-2.89-4.42,11.04-6.7,14.87-13.84,23.2-.94,1.03.06,2.47,1.07,1.99Z"/>
        <path class="cls-1" d="M192.54,68.13c1.07-.57,2.22-1.21,3.29-1.76,1.57-.96,3.79-1.61,5.65-1.76l19.62-1.44c2.43-.15,2.14-4.33-.29-4.15l-10.56.78c-2.77.17-3.14-.78-.78-2.55,4.73-3.67,8.15-6.97,9.51-8.63,3.14-3.67-1.72-8.96-4.86-5.61-4.71,5.13-14.43,12.48-24.42,18.07-4.29,2.41-1,8.96,2.85,7.04Z"/>
        <path class="cls-1" d="M204.69,39.04c-2.14-6.72-9.44-12.48-15.14-14.72-.86-.33-1.86.8-1.15,1.91,4.57,6.09,6.43,10.39,9.28,16.31,2.72,5.44,8.84,2.24,7-3.5Z"/>
        <path class="cls-1" d="M246.16,69.41c-1.15-.57-1.86,1.03-1.22,1.91,4.29,5.91,7.29,11.98,10.28,19.98,2.01,5.28,8.44,2.72,7-2.87-2.43-9.44-9.36-15.83-16.06-19.02Z"/>
        <path class="cls-1" d="M250.83,108.89c3.67.13,7.22.5,10.81,1.05,0,0,1.36.21,1.44.21,0,0,.36.06.54.06,1.32,0,2.35-1.11,2.55-2.81.04-.25.06-.48.06-.75,0-.23-.02-.46-.06-.67-.02-.13-.04-.27-.08-.38-.02-.13-.06-.27-.1-.38-.31-.92-.88-1.57-1.61-1.82-.1-.04-.19-.08-.29-.1-.15-.04-.31-.06-.48-.06s-.54.04-.54.04c-.75.11-1.47.23-2.2.33-3.48.54-6.91.86-10.47.96h-23.88c-2.22,0-3.29-1.59-2.64-4,.36-1.84.71-3.67.92-5.59.73-6.39-6.56-7.52-7.56-1.91-.42,2.47-1,4.88-1.65,7.2-.78,2.62-2.99,4.31-5.42,4.31h-32.06c-1.07,0-1.86.88-1.86,2.09,0,1.28.78,2.24,1.86,2.24h30.33c2.43,0,3.29,1.59,2.14,3.98-8.06,15.12-21.34,24.55-37.19,29.74-1.57.48-1.15,2.72.29,2.56,18.91-2.41,37.05-13.59,45.89-32.13,1.36-2.64,3.64-4.15,5.86-4.15h25.38Z"/>
        <path class="cls-1" d="M183.54,20.17c25.13.63,55.41-2.24,74.39-10.55,4.99-2.09,2.43-9.91-2.72-7.85-17.26,7.2-48.25,13.03-71.81,15.67-1.57.15-1.28,2.72.13,2.72Z"/>
        <path class="cls-1" d="M162.57,67.8c3.27,4.63,9.57.15,6.43-5.76-4.44-8.63-14.14-15.18-24.42-18.22-1.28-.4-1.78,1.36-1,2.09,6.7,5.74,13.7,13.74,18.98,21.89Z"/>
        <path class="cls-1" d="M173.71,79.15c-5.28,20.15-15,37.89-27.27,50.83-4.29,4.15.42,11.2,4.57,7.83,13.13-11.83,23.62-33.4,25.05-58.03.08-1.74-2.01-2.07-2.35-.63Z"/>
        <path class="cls-1" d="M264.65,134.31c-13.15-3.2-28.13-9.11-39.69-21.26-1.15-1.13-2.35.33-1.72,1.59,8.42,16.96,24.71,25.74,39.56,28.94,5.99,1.28,7.27-7.98,1.86-9.26Z"/>
        <path class="cls-1" d="M170.41,28c3.29,4.96,9.57.48,6.56-5.59-4.55-8.63-14.41-15.5-24.69-18.39-1.28-.31-1.8,1.53-.86,2.24,6.85,5.61,13.7,13.76,18.99,21.74Z"/>
      </g>
      <path class="cls-1" d="M20.08,108.56c-4.27,13.44-9.42,20-18.7,28.94-3.71,3.52.86,9.21,4.42,6.56,9.57-7.12,16.71-19.9,16.57-35.1,0-1.44-1.86-1.67-2.3-.4ZM50.07,134.62c-.78-8.96-7.5-22.07-14.07-27.18-.92-.73-2.14.4-1.57,1.61,4,8.31,6.85,20.29,8.21,26.85,1.07,5.26,7.92,4.38,7.43-1.28ZM66.2,1.46c-3.58,3.85-9.78,10.24-17.78,14.87-.99.56-.57,2.32.57,2.16,10.14-1.44,18.2-5.68,22.62-11.12,3.58-4.48-1.57-10.07-5.42-5.91ZM75.62,127.58c-3.27-10.7-10.99-18.53-17.7-22.37-1.07-.63-2.07.88-1.42,1.76,6.28,8.63,8.27,13.82,11.98,23.81,2.01,5.53,8.99,2.89,7.14-3.2ZM99.75,120.23c-3.43-8.78-9.28-14.55-18.56-19.18-1.07-.55-1.99.88-1.21,1.76,5.91,6.62,9.49,13.26,13.05,20.94,2.43,5.28,8.71,1.76,6.72-3.52Z"/>
      <path class="cls-1" d="M32.44,74.2h75.98c3.37.11,6.62.42,9.93.94.57.08,1.15.17,1.74.27,0,0,.39.06.48.06,1.55,0,2.58-1.38,2.58-3.35s-1.03-3.33-2.58-3.33h-.13c-.15,0-1.42.19-1.95.27-3.5.55-6.95.9-10.51.98H32.5c-2.2,0-3.71-1.67-3.71-4.15v-8.31c0-2.56,1.51-4.15,3.71-4.15h52.76c3.58,0,5.53,2.43,6.26,3.6.06.08.1.15.13.21.08.11.13.23.23.36,1.07,1.86,2.28,2.7,3.94,2.7,2.2,0,3.79-1.68,3.79-4.23V19.37c0-2.56-1.65-4.48-3.79-4.48-1.78,0-3.02,1.07-4.02,2.64,0,0-.04.06-.1.15-.52.73-2.76,3.6-6.95,3.6h-48.84c-4.19,0-6.43-2.87-6.95-3.6-.06-.1-.1-.15-.1-.15-1-1.57-2.24-2.64-4.02-2.64-2.14,0-3.77,1.91-3.77,4.48v79.19c0,2.49,1.57,4.25,3.77,4.25,1.49,0,2.73-.75,3.54-1.99.27-.41.47-.86.64-1.32.16-.43.26-.9.45-1.32.13-.28.31-.55.49-.81.65-.91,1.48-1.7,2.45-2.25,1.09-.63,2.33-.95,3.59-.95h72.52c2.77,0,4.5,2.07,4.29,5.19l-.65,10.64c-1.44,22.7-8.99,29.42-26.98,30.68-1.28.1-1.49,2.32,0,2.72,19.71,5.13,33.13-6.22,34.41-27.18l1.57-25.97v-2.87c0-2.56-1.57-4.25-3.79-4.25-1.78,0-3.04.96-4.23,3.18-.27.4-2.39,3.48-6.56,3.69H32.44c-2.22,0-3.66-1.59-3.66-4.06v-7.67c0-2.49,1.44-4.08,3.66-4.08ZM28.78,29.99c0-2.72,1.65-4.55,4.08-4.55h54.96c2.43,0,4.08,1.84,4.08,4.55v14.72c0,2.72-1.65,4.55-4.08,4.55h-54.96c-2.43,0-4.08-1.84-4.08-4.55v-14.72Z"/>
    </g>
  </g>
</svg>