<?xml version="1.0" encoding="UTF-8"?>
<svg id="_圖層_1" data-name="圖層 1" xmlns="http://www.w3.org/2000/svg" viewBox="0 0 114.66 57.36">
  <defs>
    <style>
      .cls-1 {
        fill: #231815;
      }
    </style>
  </defs>
  <path class="cls-1" d="M105.75,8.16c-1.64,4.09-2.45,5.45-5.07,8.51-.36.4-.4.96-.09,1.38.19.26.48.4.78.4.14,0,.28-.03.41-.09,0,0,0,0,.01,0,4.16-2.06,6.7-4.91,7.77-8.74.38-1.47-.39-2.46-1.26-2.76-.83-.29-1.99,0-2.55,1.3Z"/>
  <path class="cls-1" d="M84.39,9.14c-.38-.15-.82-.02-1.09.31-.3.37-.32.87-.03,1.32,1.49,1.99,2.19,3.45,3.08,5.31l.34.71c.49.99,1.24,1.38,1.93,1.38.24,0,.47-.05.68-.13.91-.37,1.59-1.52,1.11-3.01-.84-2.65-3.67-4.96-6.03-5.89Z"/>
  <path class="cls-1" d="M81.92,8.75c.9.02,1.79.03,2.68.03,2.65,0,5.25-.1,7.74-.29-.27.35-.31.83-.04,1.27,1.67,2.28,2.6,4.13,3.42,5.83.5,1.03,1.26,1.44,1.97,1.44.24,0,.48-.05.7-.14.93-.39,1.62-1.57,1.17-2.89-.92-2.72-3.58-4.69-5.73-5.64,6.48-.61,12.17-1.85,16.2-3.61,1.33-.56,1.61-1.93,1.2-2.94-.37-.9-1.36-1.64-2.68-1.11-6.42,2.67-18.05,4.85-26.72,5.83-.57.06-.97.53-.94,1.14.03.61.47,1.07,1.04,1.08Z"/>
  <path class="cls-1" d="M73.57,26.32s0,.01.01.02c.45.63,1.09.97,1.73.97.35,0,.7-.1,1.02-.3.94-.58,1.47-1.95.68-3.45-1.64-3.18-5.19-5.85-9.5-7.12-.46-.14-.91.03-1.14.43-.26.44-.18,1.02.2,1.37,2.53,2.17,5.08,5.11,7,8.07Z"/>
  <path class="cls-1" d="M78.79,29.31c-.53-.07-1,.25-1.13.78-1.91,7.27-5.48,13.93-10.05,18.75-1.13,1.1-.98,2.69-.17,3.6.41.46.91.69,1.44.69.43,0,.87-.16,1.27-.48,5.4-4.86,9.07-13.35,9.58-22.15.03-.69-.44-1.12-.93-1.19Z"/>
  <path class="cls-1" d="M112.44,50.31c-6.27-1.52-11.03-4.07-14.59-7.81-.28-.28-.65-.38-.98-.29.24-.14.49-.23.74-.23h9.49c1.29.05,2.59.17,3.97.39,0,0,.55.08.54.08,0,0,0,0,0,0,0,0,.2.03.29.03.81,0,1.44-.65,1.55-1.56.02-.12.03-.24.03-.37,0-.12-.01-.25-.03-.35,0-.06-.02-.12-.04-.18-.01-.07-.03-.14-.05-.2-.18-.53-.52-.9-.96-1.05-.07-.03-.14-.05-.17-.06-.11-.03-.21-.04-.33-.04-.08,0-.26.02-.29.02l-.12.02c-.23.04-.46.07-.71.1-1.31.2-2.57.32-3.83.35h-8.94c-.11,0-.3-.02-.39-.13-.09-.11-.09-.34-.01-.65.13-.67.27-1.38.35-2.14.15-1.34-.49-2.25-1.3-2.58,2.64-.14,5.72-.24,9.05-.24.72,0,1.25-.53,1.31-1.25.4.87.79,1.8,1.17,2.84.4,1.05,1.18,1.47,1.9,1.47.19,0,.38-.03.55-.08.94-.3,1.69-1.36,1.32-2.82-1.19-4.62-4.82-6.79-6.33-7.51-.41-.2-.86-.11-1.15.23-.33.38-.35.98-.06,1.38.73,1,1.36,2.03,1.96,3.19-.2-.11-.44-.19-.72-.19-3.7,0-7.54.12-11.42.36,4.83-3,8.76-6.33,11.12-9.42.75-1.11.36-2.4-.46-3.01-.67-.5-1.7-.58-2.47.37-1.6,1.88-3.4,3.6-5.36,5.2.23-.47.19-1.07-.1-1.51-.26-.38-.67-.59-1.13-.55l-3.66.27c1.8-1.42,3-2.6,3.47-3.18.88-1.03.55-2.32-.21-3-.77-.69-1.8-.65-2.51.1-1.79,1.96-5.49,4.69-9,6.65-1.16.65-1.28,1.92-.8,2.82.36.68.98,1.06,1.64,1.06.26,0,.53-.06.79-.19,0,0,.01,0,.02,0l.4-.22c.28-.15.56-.3.86-.46.48-.3,1.21-.52,1.85-.57l7.34-.54c.09,0,.18-.03.26-.05-3.99,3.11-8.65,5.66-13.97,7.62-.65.23-1.09.76-1.22,1.45-.14.78.15,1.63.72,2.11.31.25.67.39,1.06.39.21,0,.43-.04.65-.12,1.11-.41,2.25-.87,3.6-1.45.75-.33,1.73-.59,2.43-.64,1.29-.12,3.17-.28,5.48-.42-.51.28-.93.81-1.08,1.61-.14.84-.34,1.7-.6,2.62-.21.71-.8,1.18-1.45,1.18h-12.01c-.74,0-1.3.59-1.3,1.38s.56,1.44,1.3,1.44h11.36c.26,0,.36.07.37.09.02.04.05.21-.1.52-2.74,5.15-7.31,8.8-13.57,10.85-.57.17-.89.72-.78,1.29.1.5.52.84,1.02.84.04,0,.08,0,.12,0,7.84-1,14.44-5.62,17.65-12.36.08-.16.18-.3.29-.44-.15.31-.16.69,0,1.03,2.79,5.61,8.33,9.67,15.23,11.16.18.04.36.06.53.06,1.03,0,1.86-.68,2.11-1.78.26-1.16-.24-2.58-1.68-2.92Z"/>
  <path class="cls-1" d="M76.51,11.41s0,0,0,0c.5.76,1.17,1.06,1.79,1.06.35,0,.68-.09.95-.25.96-.55,1.53-1.93.75-3.51-1.71-3.25-5.4-6-9.64-7.19-.47-.11-.93.11-1.13.55-.23.48-.1,1.05.29,1.34,2.34,1.92,4.89,4.84,6.99,8.01Z"/>
  <path class="cls-1" d="M36.73,48.52c.24,0,.48-.05.7-.14.92-.39,1.62-1.56,1.09-2.97,0,0,0,0,0,0-1.3-3.34-3.54-5.65-7.24-7.5-.42-.22-.93-.11-1.22.27-.31.4-.29.95.04,1.32,2.11,2.36,3.44,4.78,4.79,7.69.44.95,1.16,1.32,1.84,1.32Z"/>
  <path class="cls-1" d="M8.72,40.36c-.52-.09-.99.2-1.17.7,0,0,0,.01,0,.02-1.55,4.89-3.45,7.31-6.84,10.58-.98.93-.83,2.22-.17,3,.41.49.95.75,1.5.75.38,0,.76-.12,1.1-.38,4.09-3.04,6.5-8.14,6.45-13.63,0-.53-.35-.96-.86-1.04Z"/>
  <path class="cls-1" d="M22.59,39.48c-.41-.24-.9-.16-1.23.19-.34.38-.38.94-.09,1.33,2.26,3.1,2.98,4.93,4.41,8.77.4,1.09,1.2,1.53,1.94,1.53.21,0,.41-.03.6-.1.98-.33,1.73-1.47,1.26-3.01-1.3-4.26-4.42-7.3-6.9-8.72Z"/>
  <path class="cls-1" d="M14.45,40.37c-.36-.29-.85-.29-1.22,0-.39.31-.51.86-.28,1.33,1.49,3.09,2.54,7.54,3.03,9.92.25,1.21,1.15,1.79,2.01,1.79.09,0,.18,0,.27-.02.9-.13,1.82-.95,1.69-2.42-.31-3.55-2.93-8.6-5.49-10.6Z"/>
  <path class="cls-1" d="M45.7,25.76c-.05,0-.41.05-.67.08l-.16.02c-1.35.21-2.61.33-3.84.36H12.77c-.5,0-.79-.36-.79-.96v-3.11c0-.29.08-.96.79-.96h19.76c1.02,0,1.59.67,1.83,1.06,0,0,.06.09.06.09l.5-.33-.43.44c.51.88,1.16,1.31,2,1.31,1.17,0,2.02-.92,2.02-2.18V7.85c0-1.3-.87-2.28-2.02-2.28-.8,0-1.48.43-2.03,1.3-.18.26-.87,1.09-2.11,1.09h-12.49c3.44-.64,6.34-2.15,8.04-4.24.96-1.2.63-2.58-.17-3.27-.67-.58-1.82-.74-2.76.27-1.58,1.7-3.75,3.85-6.51,5.45-.43.24-.62.77-.46,1.25.08.23.23.41.41.53h-4.34c-1.2,0-1.88-.77-2.13-1.13-.53-.84-1.21-1.27-2.01-1.27-1.15,0-2.01.98-2.01,2.28v29.66c0,1.27.85,2.19,2.01,2.19.74,0,1.41-.37,1.83-1.02.11-.18.21-.37.3-.61.03-.08.05-.16.08-.24.02-.07.04-.15.08-.22.03-.07.08-.14.12-.2.2-.28.45-.51.73-.67.31-.18.67-.27,1.04-.27h27.16c.31,0,.55.09.73.28.21.22.31.59.28,1.03l-.24,3.98c-.49,7.8-2.81,10.46-9.55,10.93-.5.04-.89.44-.94.98-.05.57.29,1.07.83,1.22,1.23.32,2.41.48,3.53.48,2.15,0,4.07-.59,5.67-1.75,2.6-1.89,4.18-5.25,4.43-9.46l.59-9.76v-1.07c0-1.27-.85-2.19-2.02-2.19s-1.77.86-2.08,1.46c-.12.18-.76,1.05-1.96,1.12H12.75c-.67,0-.77-.58-.77-.92v-2.87c0-.35.1-.93.77-.93h28.43c1.24.04,2.43.15,3.66.35.19.03.38.06.64.1,0,0,.22.03.27.03.91,0,1.57-.78,1.57-1.85s-.64-1.85-1.62-1.85ZM11.98,17.34v-5.51c0-.53.24-1.11.93-1.11h20.58c.68,0,.93.57.93,1.11v5.51c0,.53-.24,1.11-.93,1.11H12.91c-.68,0-.93-.57-.93-1.11Z"/>
</svg>