<?xml version="1.0" encoding="UTF-8"?>
<svg id="_圖層_2" data-name="圖層 2" xmlns="http://www.w3.org/2000/svg" viewBox="0 0 398.13 144.04">
  <defs>
    <style>
      .cls-1 {
        fill: #231815;
      }
    </style>
  </defs>
  <g id="_中文" data-name="中文">
    <g>
      <g>
        <path class="cls-1" d="M359.19,35.3c-2.43-7.19-9.84-12.31-15.39-14.53-.94-.4-1.72.78-1.15,1.74,4.57,6.23,7.13,11.34,9.27,15.81,2.85,5.91,8.98,1.91,7.26-3.02Z"/>
        <path class="cls-1" d="M317.4,92.61c3.21-1.18,6.35-2.47,9.5-3.82,1.99-.88,4.76-1.68,6.98-1.84,9.27-.88,25.1-2.01,43.28-2.01,2.56,0,2.71-4.15-.13-4.15-11.99,0-22.9.48-31.6,1.03-3.35.25-3.63-.71-.63-2.47,12.9-7.91,23.74-16.92,30.09-25.23,2.71-4-2.14-8.95-5.28-5.1-11.99,14.05-29.67,27.3-54.33,36.4-4.15,1.45-2.14,8.79,2.12,7.19Z"/>
        <path class="cls-1" d="M365.98,44.95c9.69-4.8,16.9-11.58,19.88-22.27,1.43-5.6-4.99-7.84-7.13-2.89-4.42,11.03-6.69,14.85-13.82,23.17-.94,1.03.06,2.47,1.07,1.99Z"/>
        <path class="cls-1" d="M322.68,67.07c1.07-.57,2.22-1.2,3.29-1.76,1.57-.96,3.79-1.61,5.64-1.76l19.59-1.43c2.43-.15,2.14-4.32-.29-4.15l-10.55.78c-2.77.17-3.13-.78-.78-2.54,4.72-3.67,8.14-6.96,9.5-8.62,3.14-3.67-1.72-8.95-4.86-5.6-4.7,5.12-14.41,12.46-24.39,18.05-4.28,2.41-.99,8.95,2.85,7.04Z"/>
        <path class="cls-1" d="M334.82,38.01c-2.14-6.71-9.42-12.46-15.12-14.7-.86-.32-1.85.8-1.15,1.91,4.57,6.08,6.42,10.38,9.27,16.29,2.71,5.43,8.83,2.24,7-3.5Z"/>
        <path class="cls-1" d="M376.24,68.35c-1.15-.57-1.85,1.03-1.22,1.91,4.28,5.91,7.28,11.97,10.27,19.96,2.01,5.28,8.43,2.71,7-2.87-2.43-9.42-9.35-15.81-16.04-19Z"/>
        <path class="cls-1" d="M380.91,107.79c3.67.13,7.21.5,10.8,1.05,0,0,1.36.21,1.43.21,0,0,.36.06.54.06,1.32,0,2.35-1.11,2.54-2.81.04-.25.06-.48.06-.75,0-.23-.02-.46-.06-.67-.02-.13-.04-.27-.08-.38-.02-.13-.06-.27-.1-.38-.31-.92-.88-1.57-1.61-1.82-.1-.04-.19-.08-.29-.1-.15-.04-.31-.06-.48-.06s-.54.04-.54.04c-.75.11-1.47.23-2.2.33-3.48.53-6.9.86-10.46.96h-23.86c-2.22,0-3.29-1.59-2.64-4,.36-1.84.71-3.67.92-5.58.73-6.39-6.56-7.51-7.55-1.91-.42,2.47-.99,4.87-1.64,7.19-.78,2.62-2.98,4.3-5.41,4.3h-32.02c-1.07,0-1.85.88-1.85,2.08,0,1.28.78,2.24,1.85,2.24h30.3c2.43,0,3.29,1.59,2.14,3.98-8.05,15.1-21.32,24.53-37.14,29.71-1.57.48-1.15,2.71.29,2.56,18.89-2.41,37.01-13.57,45.84-32.1,1.36-2.64,3.63-4.15,5.85-4.15h25.35Z"/>
        <path class="cls-1" d="M313.69,19.17c25.1.63,55.34-2.24,74.31-10.53,4.99-2.08,2.43-9.9-2.71-7.84-17.24,7.19-48.19,13.02-71.72,15.66-1.57.15-1.28,2.71.13,2.71Z"/>
        <path class="cls-1" d="M292.74,66.75c3.27,4.63,9.56.15,6.42-5.75-4.44-8.62-14.13-15.16-24.39-18.2-1.28-.4-1.78,1.36-.99,2.08,6.69,5.73,13.69,13.73,18.96,21.87Z"/>
        <path class="cls-1" d="M303.87,78.08c-5.28,20.13-14.99,37.85-27.24,50.77-4.28,4.15.42,11.18,4.57,7.82,13.11-11.81,23.59-33.36,25.02-57.96.08-1.74-2.01-2.06-2.35-.63Z"/>
        <path class="cls-1" d="M394.71,133.18c-13.13-3.19-28.1-9.1-39.65-21.24-1.15-1.13-2.35.32-1.72,1.59,8.41,16.94,24.68,25.71,39.51,28.9,5.98,1.28,7.26-7.97,1.85-9.25Z"/>
        <path class="cls-1" d="M300.58,26.98c3.29,4.95,9.56.48,6.56-5.58-4.55-8.62-14.39-15.48-24.66-18.37-1.28-.31-1.8,1.53-.86,2.24,6.84,5.6,13.69,13.74,18.96,21.72Z"/>
      </g>
      <g>
        <path class="cls-1" d="M196.67,26.35c3.35,5.51,10.13.96,6.84-5.75-4.63-9.5-15.54-17.24-24.53-20.44-1.15-.4-1.85,1.03-.99,1.91,5.41,5.28,13.11,15.03,18.68,24.28Z"/>
        <path class="cls-1" d="M252.85,132.04c-20.38-6.94-36.23-15.41-49.26-26.65-1.78-1.61-2.14-3.92-.57-6.4,10.84-15.01,18.96-33.61,24.16-55.95.73-3.04,3-5.03,5.79-5.03h2.73c3.98.11,7.82.5,11.74,1.09.61.08,1.22.19,1.84.29,0,0,.09.02.21.04.17.02.27.02.34.02,1.55,0,2.62-1.2,2.83-3.04.04-.23.06-.46.06-.71,0-.29-.02-.55-.06-.8,0-.1-.02-.19-.06-.27-.29-1.62-1.34-2.66-2.77-2.66h-.11c-.19,0-.44.04-.44.04-.67.11-1.34.21-1.99.31-3.86.59-7.65.96-11.58,1.05h-3.06v.02h-95.45c-1.28,0-2.14.96-2.14,2.22,0,1.45.86,2.41,2.14,2.41h77.86c2.79,0,4.21,1.99,3.5,5.03-4.84,20.03-12.04,36.4-21.6,49.97-1.57,2.16-3.71,2.24-5.49.33-10.84-12.46-19.75-27.87-28.23-47.18-.73-1.61-3.08-.73-2.58.96,6,21.16,14.76,38.33,26.04,52.05,1.64,2.06,1.64,4.63-.15,6.54-14.03,14.93-31.87,26.04-53.76,35.21-1.64.73-.99,3.19.57,2.79,23.59-5.58,43.36-16.12,58.9-32,1.57-1.68,3.84-1.93,6.06-.17,14.47,13.42,32.02,23,52.26,30.11,5.98,2.06,8.12-7.59,2.27-9.6Z"/>
      </g>
      <g>
        <path class="cls-1" d="M85.3,80.23c-1.53,0-2.68.77-3.61,1.93-.13.17-.27.32-.39.51-.87,1.14-3.12,3.57-7.19,3.55l-45.15-.29c-3.96-.03-6.16-2.33-7.05-3.52-.08-.11-.15-.23-.23-.33-.07-.12-.15-.23-.25-.33-.91-1.17-2.03-1.94-3.58-1.95-2.14-.01-3.8,1.81-3.81,4.2l-.36,55.32c-.02,2.49,1.54,4.16,3.76,4.17,2.64.02,4.01-2.04,4.37-4.6.03-.45.09-1,.15-1.5.15-1.29.69-2.51,1.61-3.44,1.06-1.08,2.76-2.21,5.2-2.2.03,0,.06,0,.09,0l44.71.29s.05,0,.09,0c2.72.02,4.49,1.44,5.51,2.63.69.82,1.11,1.83,1.26,2.89.06.42.12.87.15,1.23.35,2.47,1.67,4.64,4.31,4.65,2.22.01,3.8-1.73,3.81-4.28l.35-54.69c.02-2.39-1.62-4.24-3.76-4.25ZM81.1,123.71c-.02,2.54-1.52,4.22-3.79,4.2l-52.05-.33c-2.29-.01-3.78-1.71-3.76-4.25l.05-8.32c.02-2.54,1.52-4.21,3.81-4.2l52.05.33c2.28.01,3.76,1.71,3.74,4.25l-.05,8.32ZM81.24,102.78c-.02,2.56-1.52,4.23-3.79,4.22l-52.05-.33c-2.29-.01-3.78-1.71-3.76-4.27l.05-8.14c.02-2.54,1.52-4.21,3.81-4.2l52.05.33c2.28.01,3.76,1.71,3.74,4.25l-.05,8.14Z"/>
        <path class="cls-1" d="M31.33,24.14c2.32,4.74,9.33,2.22,7.08-3.85C35.12,11.39,26.19,3.51,19.08.12c-1.14-.58-1.99,1.02-1.29,1.9,4.82,5.77,9.19,13.31,13.54,22.11Z"/>
        <path class="cls-1" d="M18.71,36.75c-1.14-.64-2.15.87-1.37,1.92,3.96,5.28,8.61,13.86,11.83,21.7,2.33,5.69,8.83,2.7,7.02-3.22-2.65-9.27-10.94-16.66-17.48-20.39Z"/>
        <path class="cls-1" d="M98.14,24.57c-1.57-.01-2.66.77-3.53,1.93-.1.1-.15.21-.23.3-.02.04-.06.08-.1.13-.71.99-2.7,3.19-6.35,3.17l-17.28-.11c-2.22-.01-2.77-.74-.69-2.57,6.8-5.46,12.05-12.46,15.02-19.86,2.18-5.89-4.64-8.98-7.1-4.04-4.11,9-8.6,16.79-14.41,23.31-1.87,1.9-4.65,3.09-7.07,3.07l-42.38-.27c-3.52-.02-5.47-2.12-6.25-3.16-.06-.08-.11-.17-.15-.23-.08-.1-.13-.21-.23-.31-.85-1.17-1.94-1.96-3.5-1.97-2.06-.01-3.57,1.66-3.58,3.9L0,74.48c-.01,2.24,1.39,3.93,3.53,3.94,2.06.01,3.26-1.33,3.96-3.12.2-.53.44-1.04.79-1.49.94-1.19,3.13-3.28,6.86-3.31l71.38.46c5.23.11,7.36,4.22,7.36,4.22h0c.79,1.72,2.06,2.87,3.92,2.89,2.14.01,3.59-1.58,3.6-3.82l.29-45.74c.01-2.24-1.49-3.93-3.55-3.94ZM47.41,62.02c-.02,2.71-1.65,4.54-4.08,4.52l-31.94-.21c-2.43-.02-4.06-1.86-4.04-4.58l.15-23.47c.02-2.71,1.67-4.54,4.1-4.52l31.94.21c2.43.02,4.04,1.86,4.02,4.58l-.15,23.47ZM94.19,62.32c-.02,2.71-1.67,4.54-4.08,4.52l-31.39-.2c-2.41-.02-4.04-1.86-4.02-4.58l.15-23.47c.02-2.71,1.67-4.54,4.08-4.52l31.39.2c2.41.02,4.04,1.86,4.02,4.58l-.15,23.47Z"/>
        <path class="cls-1" d="M78.37,40.57c-2.62,6.69-7.23,15.21-12.83,21.08-.87.95-.02,2.47.98,2.17,9.43-4.11,17.19-12.98,19.25-20.33,1.45-5.57-5.22-8.48-7.4-2.92Z"/>
      </g>
    </g>
  </g>
</svg>