<?xml version="1.0" encoding="UTF-8"?>
<svg id="_圖層_1" data-name="圖層 1" xmlns="http://www.w3.org/2000/svg" viewBox="0 0 177.46 56.17">
  <defs>
    <style>
      .cls-1 {
        fill: #231815;
      }
    </style>
  </defs>
  <path class="cls-1" d="M168.54,7.85c-1.65,4.12-2.46,5.48-5.1,8.57-.36.4-.4.97-.09,1.38.19.26.48.4.78.4.14,0,.28-.03.41-.09,0,0,0,0,0,0,4.19-2.07,6.75-4.95,7.82-8.8.38-1.48-.39-2.47-1.27-2.77-.84-.28-2,0-2.56,1.31Z"/>
  <path class="cls-1" d="M147.02,8.84c-.38-.15-.83-.02-1.1.32-.3.37-.32.87-.03,1.33,1.5,2,2.21,3.47,3.1,5.34l.34.72c.5.99,1.25,1.39,1.94,1.39.24,0,.47-.05.69-.13.92-.37,1.6-1.53,1.12-3.02-.85-2.66-3.69-5-6.07-5.93Z"/>
  <path class="cls-1" d="M144.54,8.43c.91.02,1.81.03,2.71.03,2.67,0,5.29-.1,7.8-.3-.28.35-.32.84-.05,1.28,1.68,2.29,2.62,4.16,3.44,5.87.5,1.04,1.27,1.45,1.98,1.45.25,0,.48-.05.7-.14.94-.39,1.63-1.58,1.17-2.9-.93-2.74-3.62-4.73-5.78-5.68,6.53-.61,12.27-1.86,16.32-3.64,1.34-.56,1.62-1.94,1.21-2.95-.37-.91-1.37-1.65-2.69-1.11-6.46,2.69-18.17,4.89-26.9,5.87-.57.06-.97.54-.94,1.14.03.61.48,1.08,1.04,1.08Z"/>
  <path class="cls-1" d="M136.13,26.12s0,.01.01.02c.45.64,1.09.98,1.74.98.35,0,.7-.1,1.03-.3.95-.58,1.48-1.96.68-3.47-1.65-3.2-5.23-5.88-9.56-7.17-.46-.15-.91.03-1.15.44-.26.44-.18,1.03.2,1.38,2.55,2.18,5.11,5.14,7.05,8.13Z"/>
  <path class="cls-1" d="M141.39,29.14c-.54-.08-1.01.25-1.14.78-1.92,7.32-5.52,14.03-10.12,18.88-1.14,1.1-.98,2.71-.18,3.62.41.46.92.7,1.44.7.43,0,.87-.16,1.28-.49,5.43-4.89,9.13-13.44,9.64-22.3.03-.69-.45-1.13-.93-1.19Z"/>
  <path class="cls-1" d="M175.27,50.29c-6.31-1.53-11.11-4.1-14.69-7.86-.33-.32-.76-.39-1.13-.22.28-.2.59-.32.9-.32h9.56c1.29.05,2.6.18,4,.39,0,0,.55.08.54.08h0s.2.03.29.03c.81,0,1.45-.66,1.55-1.57.02-.12.03-.24.03-.37,0-.12-.01-.25-.03-.35,0-.06-.02-.12-.04-.18-.01-.07-.03-.14-.05-.2-.17-.52-.53-.91-.95-1.05-.07-.03-.15-.06-.19-.06-.11-.03-.22-.04-.33-.04-.09,0-.27.02-.32.03-.27.04-.53.08-.8.12-1.32.2-2.59.32-3.86.35h-9.01c-.11,0-.31-.02-.39-.13-.09-.11-.1-.35-.01-.66.13-.67.27-1.39.35-2.16.16-1.36-.5-2.27-1.32-2.61,2.66-.14,5.77-.24,9.13-.24.72,0,1.26-.54,1.32-1.27.4.88.79,1.82,1.19,2.87.4,1.05,1.19,1.47,1.91,1.47.19,0,.38-.03.55-.08.94-.3,1.7-1.37,1.33-2.83-1.2-4.65-4.85-6.84-6.37-7.56-.41-.2-.86-.11-1.15.23-.33.38-.36.98-.06,1.39.73,1.01,1.38,2.06,1.98,3.22-.2-.12-.45-.2-.74-.2-3.74,0-7.61.12-11.52.36,4.87-3.02,8.83-6.38,11.21-9.49.76-1.11.36-2.41-.46-3.02-.68-.5-1.71-.58-2.49.37-1.62,1.9-3.44,3.64-5.42,5.26,0,0,.01-.01.01-.02.23-.47.19-1.08-.1-1.51-.26-.38-.67-.58-1.14-.55l-3.7.27c1.82-1.43,3.03-2.62,3.5-3.21.89-1.04.56-2.33-.21-3.01-.78-.7-1.81-.66-2.52.1-1.81,1.97-5.53,4.72-9.06,6.69-1.17.66-1.29,1.92-.8,2.84.36.68.99,1.07,1.65,1.07.26,0,.53-.06.79-.19,0,0,.01,0,.02,0l.36-.19c.29-.16.59-.32.91-.49.49-.3,1.22-.53,1.86-.58l7.39-.54c.1,0,.19-.03.28-.05-4.02,3.13-8.72,5.71-14.08,7.69-.65.23-1.1.76-1.23,1.46-.14.79.15,1.64.72,2.12.31.26.67.39,1.06.39.21,0,.44-.04.65-.12,1.12-.41,2.27-.88,3.62-1.46.76-.34,1.74-.59,2.45-.64,1.3-.12,3.2-.28,5.53-.43-.52.28-.94.81-1.09,1.62-.14.84-.34,1.71-.6,2.64-.21.71-.8,1.2-1.47,1.2h-12.09c-.74,0-1.3.6-1.3,1.39s.56,1.44,1.3,1.44h11.44c.24,0,.36.06.38.09.02.04.05.21-.1.52-2.76,5.18-7.36,8.86-13.67,10.92-.57.17-.9.72-.78,1.29.1.51.52.85,1.02.85.04,0,.08,0,.12,0,7.89-1.01,14.53-5.66,17.76-12.44.09-.18.2-.33.31-.48-.17.32-.19.72-.01,1.07,2.8,5.64,8.39,9.74,15.33,11.23.18.04.36.06.53.06,1.03,0,1.87-.68,2.12-1.78.26-1.17-.24-2.59-1.69-2.94Z"/>
  <path class="cls-1" d="M139.1,11.12s0,0,0,0c.51.76,1.18,1.06,1.8,1.06.35,0,.68-.09.96-.25.96-.56,1.53-1.94.75-3.53-1.72-3.27-5.43-6.04-9.7-7.24-.47-.11-.93.11-1.14.55-.23.48-.1,1.05.29,1.34,2.36,1.93,4.92,4.87,7.04,8.06Z"/>
  <path class="cls-1" d="M86.81,10.85s0,0,0,0c.53.87,1.25,1.21,1.92,1.21.34,0,.66-.09.93-.24,1.02-.56,1.62-2.02.78-3.72-1.87-3.85-6.17-6.8-9.6-8.02-.44-.16-.91,0-1.16.39-.26.41-.2.96.16,1.33,2.16,2.1,5.02,5.82,6.96,9.04Z"/>
  <path class="cls-1" d="M108.72,49.88s0,0,0,0c-7.74-2.64-13.58-5.8-18.39-9.94-.49-.44-.52-1-.13-1.62,4.16-5.77,7.27-12.94,9.22-21.33.21-.87.84-1.44,1.6-1.44h1.01c1.4.04,2.82.17,4.37.41.15.02.29.04.44.07l.19.03s.12.02.14.03c.1.01.16.01.21.01.88,0,1.55-.67,1.66-1.65.02-.12.03-.24.03-.37,0-.14-.01-.27-.02-.3,0-.09-.01-.18-.04-.26-.18-.88-.81-1.44-1.67-1.44-.11,0-.26.02-.27.02-.22.04-.43.07-.74.11-1.49.23-2.9.36-4.28.39h-1.15s-.06,0-.1,0h-35.94c-.8,0-1.41.62-1.41,1.44,0,.87.59,1.51,1.41,1.51h29.39c.21,0,.49.04.65.24.15.19.19.52.09.92-1.78,7.38-4.42,13.49-8.06,18.65-.12.17-.32.38-.55.39-.18,0-.39-.1-.58-.31-3.86-4.44-7.22-10.05-10.56-17.66-.25-.56-.85-.81-1.42-.6-.57.21-.85.79-.68,1.37,2.23,7.87,5.58,14.55,9.94,19.86.45.56.44,1.19-.03,1.68-5,5.32-11.39,9.5-20.1,13.15-.58.26-.86.9-.65,1.49.16.45.55.73.99.73.09,0,.17-.01.26-.03,9.1-2.15,16.68-6.27,22.53-12.25.52-.56,1.09-.31,1.44-.03,5.24,4.86,11.76,8.62,19.94,11.49.79.27,1.55.15,2.12-.35.66-.57.97-1.55.78-2.5-.18-.91-.78-1.61-1.66-1.91Z"/>
  <path class="cls-1" d="M32.8,30.29h-.02c-.7,0-1.32.32-1.85.99-.06.07-.11.14-.12.16-.39.51-1.09,1.11-2.23,1.1l-17.04-.11c-1.2,0-1.88-.69-2.16-1.06-.04-.06-.08-.12-.08-.12-.05-.08-.1-.15-.12-.17-.5-.64-1.11-.96-1.82-.97h-.01c-.56,0-1.08.23-1.46.65-.37.4-.57.95-.57,1.53l-.13,20.88c0,.6.19,1.15.55,1.54.37.41.89.63,1.47.63h.02c1.18,0,2.03-.86,2.24-2.29.01-.16.03-.36.05-.54.04-.37.2-.7.44-.95.42-.43.93-.65,1.55-.65h.02l16.91.11c.64,0,1.19.27,1.62.78.18.21.3.48.34.79.02.15.04.31.06.46.2,1.39,1.05,2.26,2.22,2.27h.01c1.17,0,2.02-.93,2.03-2.21l.13-20.65c0-.58-.19-1.13-.55-1.54-.38-.43-.9-.67-1.46-.67ZM30.67,39.39c0,.3-.09,1-.82,1h0l-19.65-.13c-.25,0-.45-.08-.59-.24-.15-.18-.24-.44-.23-.77l.02-3.07c0-.32.09-.58.24-.76.14-.15.34-.23.59-.23h0l19.65.13c.74,0,.82.7.82,1l-.02,3.07ZM9.34,44.02c0-.32.09-.58.24-.76.14-.15.34-.23.59-.23h0l19.65.13c.74,0,.82.7.82,1l-.02,3.14c0,.3-.09.99-.82.99h0l-19.65-.13c-.25,0-.45-.08-.59-.24-.15-.17-.23-.44-.23-.76l.02-3.14Z"/>
  <path class="cls-1" d="M37.65,9.27h-.02c-.72,0-1.32.33-1.74.89-.02.02-.12.15-.13.16-.03.04-.04.04-.06.08-.26.35-.84.95-1.89.95h-.02l-6.29-.04c2.55-2.08,4.58-4.79,5.74-7.66.55-1.48-.14-2.68-1.1-3.09-.85-.37-2.05-.18-2.7,1.11-1.7,3.72-3.4,6.47-5.32,8.63-.58.59-1.47.98-2.23.98h-.01l-8-.05c.26-.01.51-.06.73-.16.9-.39,1.61-1.5,1.04-3.03C14.33,4.45,10.79,1.41,8.07.11c-.42-.21-.91-.11-1.2.25-.33.4-.34.98-.02,1.38,1.61,1.93,3.21,4.54,5.04,8.23.42.86,1.14,1.23,1.85,1.26l-7.84-.05c-.97,0-1.56-.52-1.88-.95l-.49.35h0s.42-.45.42-.45c0,0-.06-.09-.07-.09-.48-.65-1.08-.99-1.8-.99h-.01c-1.1,0-1.93.89-1.94,2.07L0,28.71c0,.56.18,1.08.51,1.46.35.41.86.63,1.42.63h.02c.93,0,1.65-.55,2.04-1.56.05-.14.12-.3.21-.41.3-.38.97-1.01,2.12-1.02l26.94.17c1.57.03,2.24,1.23,2.25,1.24.42.92,1.14,1.43,2.02,1.44h.01c1.12,0,1.94-.85,1.95-2.04l.11-17.27c0-.56-.18-1.08-.53-1.46-.36-.4-.86-.62-1.41-.63ZM33.56,17.17c.38-1.46-.43-2.58-1.38-2.89-.88-.29-2.01.04-2.55,1.42-1.17,2.99-2.94,5.89-4.73,7.77-.34.38-.39.92-.12,1.36.09.15.21.26.36.34l-2.37-.02c-.27,0-.5-.1-.66-.28-.18-.2-.27-.49-.27-.85l.06-8.86c0-.54.25-1.11.93-1.11h0l11.85.08c.69,0,.93.58.92,1.12l-.06,8.86c0,.35-.1.64-.28.84-.16.18-.38.27-.65.27h0l-8.54-.05c3.48-1.56,6.61-4.9,7.48-8.01ZM6.67,15.56c1.45,1.93,3.17,5.1,4.39,8.06.37.9.98,1.35,1.6,1.47l-7.75-.05c-.69,0-.93-.58-.93-1.12l.06-8.86c0-.35.1-.64.28-.84.16-.18.38-.27.66-.27h2c-.09.07-.17.13-.24.21-.34.39-.37.98-.05,1.4ZM13.62,25.03c.96-.34,1.68-1.5,1.21-3.02-1.04-3.63-4.22-6.53-6.86-8.04l9.05.06c.28,0,.5.1.66.28.17.2.27.49.26.85l-.06,8.86c0,.7-.35,1.11-.93,1.11h0l-3.71-.02c.13-.02.26-.02.37-.06Z"/>
</svg>