<?xml version="1.0" encoding="UTF-8"?>
<svg id="_喇뒨쏛_2" data-name="喇뒨쏛 2" xmlns="http://www.w3.org/2000/svg" viewBox="0 0 84.25 79.61">
  <defs>
    <style>
      .cls-1 {
        fill: #232323;
      }
    </style>
  </defs>
  <g id="_喇뒨쏛_1-2" data-name="喇뒨쏛 1">
    <path class="cls-1" d="M84.14,31.04c1.18-12.54-6.58-26.1-17.59-29.24-3.39-1-6.98-1.21-10.5-1.45-5.35-.29-10.68-.84-15.32.57-5.89,1.8-10.82,6.27-16.3,9.27-5.48,3.32-11.35,6.08-16.18,10.63C.93,28.26-2.4,41.94,1.92,51.78c1.88,4.38,4.43,8.44,6.66,12.55,2.16,3.85,4.55,7.38,7.78,10.07,12.92,11.48,28.64,1.94,39.98-9.05,3.6-3.33,7.27-6.73,11.01-9.84,7.36-6,15.78-13.56,16.77-24.28l.02-.2Z"/>
  </g>
</svg>