<?xml version="1.0" encoding="UTF-8"?>
<svg id="_喇뒨쏛_2" data-name="喇뒨쏛 2" xmlns="http://www.w3.org/2000/svg" viewBox="0 0 84.82 84.05">
  <defs>
    <style>
      .cls-1 {
        fill: #232323;
      }
    </style>
  </defs>
  <g id="_喇뒨쏛_1-2" data-name="喇뒨쏛 1">
    <path class="cls-1" d="M84.81,47.28c.14,3.88-1.08,7.33-2.9,10.49-1.6,2.76-3.65,5.28-5.62,7.66-4.51,5.4-10.21,10.11-16.76,14.24-4.92,3.09-8.81,5.51-19.07,3.84-8.83-1.42-18.91-5.07-28.34-9.52C.1,68.33-.11,60.26.02,55.22c.09-4.27,1.67-8.2,3.21-11.98.55-1.34,1.09-2.68,1.56-4.03,4.06-11.6,10.02-22.81,20.58-30.81C30.04,4.87,34.87,1.21,41.52.22c11.74-1.71,26.48,6.92,31.83,15.77,6.63,10.99,11.14,22.03,11.46,31.29Z"/>
  </g>
</svg>