<?xml version="1.0" encoding="UTF-8"?>
<svg id="_喇뒨쏛_2" data-name="喇뒨쏛 2" xmlns="http://www.w3.org/2000/svg" viewBox="0 0 62.1 103.17">
  <defs>
    <style>
      .cls-1 {
        fill: #232323;
      }
    </style>
  </defs>
  <g id="_喇뒨쏛_1-2" data-name="喇뒨쏛 1">
    <path class="cls-1" d="M59.62,49.85c1.19,8.59,3.3,18.3,2.15,26.52-1.86,8.04-5.44,16.12-11.13,22.78-5.3,6.32-12.28,3.76-19.54,1.95-14.64-2.96-20.71-6.78-25.79-20.2C-3.42,59.2-.43,50.33,7.37,29.49c1.75-5.29,1.99-10.95,3.83-16.21,1.99-5.58,5.47-11.2,10.84-12.74,5.86-1.61,12.6.62,17.15,4.5,5.72,4.88,9.24,12.84,12.44,19.5,3.77,7.86,6.37,16.57,7.94,25.14l.03.18Z"/>
  </g>
</svg>