<?xml version="1.0" encoding="UTF-8"?>
<svg id="_喇뒨쏛_2" data-name="喇뒨쏛 2" xmlns="http://www.w3.org/2000/svg" viewBox="0 0 94.59 79.69">
  <defs>
    <style>
      .cls-1 {
        fill: #232323;
      }
    </style>
  </defs>
  <g id="_喇뒨쏛_1-2" data-name="喇뒨쏛 1">
    <g>
      <path class="cls-1" d="M91.28,49.39c-3.09,4.24-7.87,6.78-11.56,10.44-4.43,4.16-7.03,9.03-11.93,12.66-8.08,6.06-18.59,8.47-28.34,6.56-10.32-1.78-21.28-5.35-30.01-11.59C.94,61.77-1.83,53.85,1.17,45.39c2.68-8.89,8.25-17.2,13.73-24.33,3.44-4.53,6.69-8.36,11.14-12.23C33.77,1.96,39.73.11,49.86.36c6.47-.17,13.48-1.24,19.58,1.37,10.97,5.02,21.17,15.39,24.07,27.67,1.5,6.48,1.94,14.06-2.12,19.83l-.11.16Z"/>
      <path class="cls-1" d="M79.06,57.51c-.15.36-.6,1.48-.75,1.85.11-.28.62-1.61.78-1.92l-.03.08Z"/>
    </g>
  </g>
</svg>